<?xml version="1.0" encoding="utf-8" standalone="no"?>
<!DOCTYPE svg PUBLIC "-//W3C//DTD SVG 1.1//EN"
  "http://www.w3.org/Graphics/SVG/1.1/DTD/svg11.dtd">
<svg xmlns:xlink="http://www.w3.org/1999/xlink" width="1069.866503pt" height="297.35pt" viewBox="0 0 1069.866503 297.35" xmlns="http://www.w3.org/2000/svg" version="1.1">
 <metadata>
  <rdf:RDF xmlns:dc="http://purl.org/dc/elements/1.1/" xmlns:cc="http://creativecommons.org/ns#" xmlns:rdf="http://www.w3.org/1999/02/22-rdf-syntax-ns#">
   <cc:Work>
    <dc:type rdf:resource="http://purl.org/dc/dcmitype/StillImage"/>
    <dc:date>2026-05-25T14:40:26.714104</dc:date>
    <dc:format>image/svg+xml</dc:format>
    <dc:creator>
     <cc:Agent>
      <dc:title>Matplotlib v3.10.9, https://matplotlib.org/</dc:title>
     </cc:Agent>
    </dc:creator>
   </cc:Work>
  </rdf:RDF>
 </metadata>
 <defs>
  <style type="text/css">*{stroke-linejoin: round; stroke-linecap: butt}</style>
 </defs>
 <g id="figure_1">
  <g id="patch_1">
   <path d="M 0 297.35 
L 1069.866503 297.35 
L 1069.866503 0 
L 0 0 
z
" style="fill: #ffffff"/>
  </g>
  <g id="axes_1">
   <g id="patch_2">
    <path d="M 44.749063 258.52 
L 348.942443 258.52 
L 348.942443 62.16 
L 44.749063 62.16 
z
" style="fill: #ffffff"/>
   </g>
   <g id="matplotlib.axis_1">
    <g id="xtick_1">
     <g id="line2d_1">
      <path d="M 58.574185 258.52 
L 58.574185 62.16 
" clip-path="url(#p6da0c02824)" style="fill: none; stroke: #b0b0b0; stroke-opacity: 0.3; stroke-width: 0.8; stroke-linecap: square"/>
     </g>
     <g id="line2d_2">
      <defs>
       <path id="m3cb69ab761" d="M 0 0 
L 0 3.5 
" style="stroke: #000000; stroke-width: 0.8"/>
      </defs>
      <g>
       <use xlink:href="#m3cb69ab761" x="58.574185" y="258.52" style="stroke: #000000; stroke-width: 0.8"/>
      </g>
     </g>
     <g id="text_1">
      <!-- 0.00 -->
      <g transform="translate(47.441372 273.118437) scale(0.1 -0.1)">
       <defs>
        <path id="DejaVuSans-30" d="M 2034 4250 
Q 1547 4250 1301 3770 
Q 1056 3291 1056 2328 
Q 1056 1369 1301 889 
Q 1547 409 2034 409 
Q 2525 409 2770 889 
Q 3016 1369 3016 2328 
Q 3016 3291 2770 3770 
Q 2525 4250 2034 4250 
z
M 2034 4750 
Q 2819 4750 3233 4129 
Q 3647 3509 3647 2328 
Q 3647 1150 3233 529 
Q 2819 -91 2034 -91 
Q 1250 -91 836 529 
Q 422 1150 422 2328 
Q 422 3509 836 4129 
Q 1250 4750 2034 4750 
z
" transform="scale(0.015625)"/>
        <path id="DejaVuSans-2e" d="M 684 794 
L 1344 794 
L 1344 0 
L 684 0 
L 684 794 
z
" transform="scale(0.015625)"/>
       </defs>
       <use xlink:href="#DejaVuSans-30"/>
       <use xlink:href="#DejaVuSans-2e" transform="translate(63.623047 0)"/>
       <use xlink:href="#DejaVuSans-30" transform="translate(95.410156 0)"/>
       <use xlink:href="#DejaVuSans-30" transform="translate(159.033203 0)"/>
      </g>
     </g>
    </g>
    <g id="xtick_2">
     <g id="line2d_3">
      <path d="M 95.569674 258.52 
L 95.569674 62.16 
" clip-path="url(#p6da0c02824)" style="fill: none; stroke: #b0b0b0; stroke-opacity: 0.3; stroke-width: 0.8; stroke-linecap: square"/>
     </g>
     <g id="line2d_4">
      <g>
       <use xlink:href="#m3cb69ab761" x="95.569674" y="258.52" style="stroke: #000000; stroke-width: 0.8"/>
      </g>
     </g>
     <g id="text_2">
      <!-- 0.02 -->
      <g transform="translate(84.436862 273.118437) scale(0.1 -0.1)">
       <defs>
        <path id="DejaVuSans-32" d="M 1228 531 
L 3431 531 
L 3431 0 
L 469 0 
L 469 531 
Q 828 903 1448 1529 
Q 2069 2156 2228 2338 
Q 2531 2678 2651 2914 
Q 2772 3150 2772 3378 
Q 2772 3750 2511 3984 
Q 2250 4219 1831 4219 
Q 1534 4219 1204 4116 
Q 875 4013 500 3803 
L 500 4441 
Q 881 4594 1212 4672 
Q 1544 4750 1819 4750 
Q 2544 4750 2975 4387 
Q 3406 4025 3406 3419 
Q 3406 3131 3298 2873 
Q 3191 2616 2906 2266 
Q 2828 2175 2409 1742 
Q 1991 1309 1228 531 
z
" transform="scale(0.015625)"/>
       </defs>
       <use xlink:href="#DejaVuSans-30"/>
       <use xlink:href="#DejaVuSans-2e" transform="translate(63.623047 0)"/>
       <use xlink:href="#DejaVuSans-30" transform="translate(95.410156 0)"/>
       <use xlink:href="#DejaVuSans-32" transform="translate(159.033203 0)"/>
      </g>
     </g>
    </g>
    <g id="xtick_3">
     <g id="line2d_5">
      <path d="M 132.565164 258.52 
L 132.565164 62.16 
" clip-path="url(#p6da0c02824)" style="fill: none; stroke: #b0b0b0; stroke-opacity: 0.3; stroke-width: 0.8; stroke-linecap: square"/>
     </g>
     <g id="line2d_6">
      <g>
       <use xlink:href="#m3cb69ab761" x="132.565164" y="258.52" style="stroke: #000000; stroke-width: 0.8"/>
      </g>
     </g>
     <g id="text_3">
      <!-- 0.04 -->
      <g transform="translate(121.432352 273.118437) scale(0.1 -0.1)">
       <defs>
        <path id="DejaVuSans-34" d="M 2419 4116 
L 825 1625 
L 2419 1625 
L 2419 4116 
z
M 2253 4666 
L 3047 4666 
L 3047 1625 
L 3713 1625 
L 3713 1100 
L 3047 1100 
L 3047 0 
L 2419 0 
L 2419 1100 
L 313 1100 
L 313 1709 
L 2253 4666 
z
" transform="scale(0.015625)"/>
       </defs>
       <use xlink:href="#DejaVuSans-30"/>
       <use xlink:href="#DejaVuSans-2e" transform="translate(63.623047 0)"/>
       <use xlink:href="#DejaVuSans-30" transform="translate(95.410156 0)"/>
       <use xlink:href="#DejaVuSans-34" transform="translate(159.033203 0)"/>
      </g>
     </g>
    </g>
    <g id="xtick_4">
     <g id="line2d_7">
      <path d="M 169.560654 258.52 
L 169.560654 62.16 
" clip-path="url(#p6da0c02824)" style="fill: none; stroke: #b0b0b0; stroke-opacity: 0.3; stroke-width: 0.8; stroke-linecap: square"/>
     </g>
     <g id="line2d_8">
      <g>
       <use xlink:href="#m3cb69ab761" x="169.560654" y="258.52" style="stroke: #000000; stroke-width: 0.8"/>
      </g>
     </g>
     <g id="text_4">
      <!-- 0.06 -->
      <g transform="translate(158.427842 273.118437) scale(0.1 -0.1)">
       <defs>
        <path id="DejaVuSans-36" d="M 2113 2584 
Q 1688 2584 1439 2293 
Q 1191 2003 1191 1497 
Q 1191 994 1439 701 
Q 1688 409 2113 409 
Q 2538 409 2786 701 
Q 3034 994 3034 1497 
Q 3034 2003 2786 2293 
Q 2538 2584 2113 2584 
z
M 3366 4563 
L 3366 3988 
Q 3128 4100 2886 4159 
Q 2644 4219 2406 4219 
Q 1781 4219 1451 3797 
Q 1122 3375 1075 2522 
Q 1259 2794 1537 2939 
Q 1816 3084 2150 3084 
Q 2853 3084 3261 2657 
Q 3669 2231 3669 1497 
Q 3669 778 3244 343 
Q 2819 -91 2113 -91 
Q 1303 -91 875 529 
Q 447 1150 447 2328 
Q 447 3434 972 4092 
Q 1497 4750 2381 4750 
Q 2619 4750 2861 4703 
Q 3103 4656 3366 4563 
z
" transform="scale(0.015625)"/>
       </defs>
       <use xlink:href="#DejaVuSans-30"/>
       <use xlink:href="#DejaVuSans-2e" transform="translate(63.623047 0)"/>
       <use xlink:href="#DejaVuSans-30" transform="translate(95.410156 0)"/>
       <use xlink:href="#DejaVuSans-36" transform="translate(159.033203 0)"/>
      </g>
     </g>
    </g>
    <g id="xtick_5">
     <g id="line2d_9">
      <path d="M 206.556144 258.52 
L 206.556144 62.16 
" clip-path="url(#p6da0c02824)" style="fill: none; stroke: #b0b0b0; stroke-opacity: 0.3; stroke-width: 0.8; stroke-linecap: square"/>
     </g>
     <g id="line2d_10">
      <g>
       <use xlink:href="#m3cb69ab761" x="206.556144" y="258.52" style="stroke: #000000; stroke-width: 0.8"/>
      </g>
     </g>
     <g id="text_5">
      <!-- 0.08 -->
      <g transform="translate(195.423331 273.118437) scale(0.1 -0.1)">
       <defs>
        <path id="DejaVuSans-38" d="M 2034 2216 
Q 1584 2216 1326 1975 
Q 1069 1734 1069 1313 
Q 1069 891 1326 650 
Q 1584 409 2034 409 
Q 2484 409 2743 651 
Q 3003 894 3003 1313 
Q 3003 1734 2745 1975 
Q 2488 2216 2034 2216 
z
M 1403 2484 
Q 997 2584 770 2862 
Q 544 3141 544 3541 
Q 544 4100 942 4425 
Q 1341 4750 2034 4750 
Q 2731 4750 3128 4425 
Q 3525 4100 3525 3541 
Q 3525 3141 3298 2862 
Q 3072 2584 2669 2484 
Q 3125 2378 3379 2068 
Q 3634 1759 3634 1313 
Q 3634 634 3220 271 
Q 2806 -91 2034 -91 
Q 1263 -91 848 271 
Q 434 634 434 1313 
Q 434 1759 690 2068 
Q 947 2378 1403 2484 
z
M 1172 3481 
Q 1172 3119 1398 2916 
Q 1625 2713 2034 2713 
Q 2441 2713 2670 2916 
Q 2900 3119 2900 3481 
Q 2900 3844 2670 4047 
Q 2441 4250 2034 4250 
Q 1625 4250 1398 4047 
Q 1172 3844 1172 3481 
z
" transform="scale(0.015625)"/>
       </defs>
       <use xlink:href="#DejaVuSans-30"/>
       <use xlink:href="#DejaVuSans-2e" transform="translate(63.623047 0)"/>
       <use xlink:href="#DejaVuSans-30" transform="translate(95.410156 0)"/>
       <use xlink:href="#DejaVuSans-38" transform="translate(159.033203 0)"/>
      </g>
     </g>
    </g>
    <g id="xtick_6">
     <g id="line2d_11">
      <path d="M 243.551634 258.52 
L 243.551634 62.16 
" clip-path="url(#p6da0c02824)" style="fill: none; stroke: #b0b0b0; stroke-opacity: 0.3; stroke-width: 0.8; stroke-linecap: square"/>
     </g>
     <g id="line2d_12">
      <g>
       <use xlink:href="#m3cb69ab761" x="243.551634" y="258.52" style="stroke: #000000; stroke-width: 0.8"/>
      </g>
     </g>
     <g id="text_6">
      <!-- 0.10 -->
      <g transform="translate(232.418821 273.118437) scale(0.1 -0.1)">
       <defs>
        <path id="DejaVuSans-31" d="M 794 531 
L 1825 531 
L 1825 4091 
L 703 3866 
L 703 4441 
L 1819 4666 
L 2450 4666 
L 2450 531 
L 3481 531 
L 3481 0 
L 794 0 
L 794 531 
z
" transform="scale(0.015625)"/>
       </defs>
       <use xlink:href="#DejaVuSans-30"/>
       <use xlink:href="#DejaVuSans-2e" transform="translate(63.623047 0)"/>
       <use xlink:href="#DejaVuSans-31" transform="translate(95.410156 0)"/>
       <use xlink:href="#DejaVuSans-30" transform="translate(159.033203 0)"/>
      </g>
     </g>
    </g>
    <g id="xtick_7">
     <g id="line2d_13">
      <path d="M 280.547124 258.52 
L 280.547124 62.16 
" clip-path="url(#p6da0c02824)" style="fill: none; stroke: #b0b0b0; stroke-opacity: 0.3; stroke-width: 0.8; stroke-linecap: square"/>
     </g>
     <g id="line2d_14">
      <g>
       <use xlink:href="#m3cb69ab761" x="280.547124" y="258.52" style="stroke: #000000; stroke-width: 0.8"/>
      </g>
     </g>
     <g id="text_7">
      <!-- 0.12 -->
      <g transform="translate(269.414311 273.118437) scale(0.1 -0.1)">
       <use xlink:href="#DejaVuSans-30"/>
       <use xlink:href="#DejaVuSans-2e" transform="translate(63.623047 0)"/>
       <use xlink:href="#DejaVuSans-31" transform="translate(95.410156 0)"/>
       <use xlink:href="#DejaVuSans-32" transform="translate(159.033203 0)"/>
      </g>
     </g>
    </g>
    <g id="xtick_8">
     <g id="line2d_15">
      <path d="M 317.542613 258.52 
L 317.542613 62.16 
" clip-path="url(#p6da0c02824)" style="fill: none; stroke: #b0b0b0; stroke-opacity: 0.3; stroke-width: 0.8; stroke-linecap: square"/>
     </g>
     <g id="line2d_16">
      <g>
       <use xlink:href="#m3cb69ab761" x="317.542613" y="258.52" style="stroke: #000000; stroke-width: 0.8"/>
      </g>
     </g>
     <g id="text_8">
      <!-- 0.14 -->
      <g transform="translate(306.409801 273.118437) scale(0.1 -0.1)">
       <use xlink:href="#DejaVuSans-30"/>
       <use xlink:href="#DejaVuSans-2e" transform="translate(63.623047 0)"/>
       <use xlink:href="#DejaVuSans-31" transform="translate(95.410156 0)"/>
       <use xlink:href="#DejaVuSans-34" transform="translate(159.033203 0)"/>
      </g>
     </g>
    </g>
    <g id="text_9">
     <!-- Glucose availability (g_avail) -->
     <g transform="translate(117.940518 287.556406) scale(0.11 -0.11)">
      <defs>
       <path id="DejaVuSans-47" d="M 3809 666 
L 3809 1919 
L 2778 1919 
L 2778 2438 
L 4434 2438 
L 4434 434 
Q 4069 175 3628 42 
Q 3188 -91 2688 -91 
Q 1594 -91 976 548 
Q 359 1188 359 2328 
Q 359 3472 976 4111 
Q 1594 4750 2688 4750 
Q 3144 4750 3555 4637 
Q 3966 4525 4313 4306 
L 4313 3634 
Q 3963 3931 3569 4081 
Q 3175 4231 2741 4231 
Q 1884 4231 1454 3753 
Q 1025 3275 1025 2328 
Q 1025 1384 1454 906 
Q 1884 428 2741 428 
Q 3075 428 3337 486 
Q 3600 544 3809 666 
z
" transform="scale(0.015625)"/>
       <path id="DejaVuSans-6c" d="M 603 4863 
L 1178 4863 
L 1178 0 
L 603 0 
L 603 4863 
z
" transform="scale(0.015625)"/>
       <path id="DejaVuSans-75" d="M 544 1381 
L 544 3500 
L 1119 3500 
L 1119 1403 
Q 1119 906 1312 657 
Q 1506 409 1894 409 
Q 2359 409 2629 706 
Q 2900 1003 2900 1516 
L 2900 3500 
L 3475 3500 
L 3475 0 
L 2900 0 
L 2900 538 
Q 2691 219 2414 64 
Q 2138 -91 1772 -91 
Q 1169 -91 856 284 
Q 544 659 544 1381 
z
M 1991 3584 
L 1991 3584 
z
" transform="scale(0.015625)"/>
       <path id="DejaVuSans-63" d="M 3122 3366 
L 3122 2828 
Q 2878 2963 2633 3030 
Q 2388 3097 2138 3097 
Q 1578 3097 1268 2742 
Q 959 2388 959 1747 
Q 959 1106 1268 751 
Q 1578 397 2138 397 
Q 2388 397 2633 464 
Q 2878 531 3122 666 
L 3122 134 
Q 2881 22 2623 -34 
Q 2366 -91 2075 -91 
Q 1284 -91 818 406 
Q 353 903 353 1747 
Q 353 2603 823 3093 
Q 1294 3584 2113 3584 
Q 2378 3584 2631 3529 
Q 2884 3475 3122 3366 
z
" transform="scale(0.015625)"/>
       <path id="DejaVuSans-6f" d="M 1959 3097 
Q 1497 3097 1228 2736 
Q 959 2375 959 1747 
Q 959 1119 1226 758 
Q 1494 397 1959 397 
Q 2419 397 2687 759 
Q 2956 1122 2956 1747 
Q 2956 2369 2687 2733 
Q 2419 3097 1959 3097 
z
M 1959 3584 
Q 2709 3584 3137 3096 
Q 3566 2609 3566 1747 
Q 3566 888 3137 398 
Q 2709 -91 1959 -91 
Q 1206 -91 779 398 
Q 353 888 353 1747 
Q 353 2609 779 3096 
Q 1206 3584 1959 3584 
z
" transform="scale(0.015625)"/>
       <path id="DejaVuSans-73" d="M 2834 3397 
L 2834 2853 
Q 2591 2978 2328 3040 
Q 2066 3103 1784 3103 
Q 1356 3103 1142 2972 
Q 928 2841 928 2578 
Q 928 2378 1081 2264 
Q 1234 2150 1697 2047 
L 1894 2003 
Q 2506 1872 2764 1633 
Q 3022 1394 3022 966 
Q 3022 478 2636 193 
Q 2250 -91 1575 -91 
Q 1294 -91 989 -36 
Q 684 19 347 128 
L 347 722 
Q 666 556 975 473 
Q 1284 391 1588 391 
Q 1994 391 2212 530 
Q 2431 669 2431 922 
Q 2431 1156 2273 1281 
Q 2116 1406 1581 1522 
L 1381 1569 
Q 847 1681 609 1914 
Q 372 2147 372 2553 
Q 372 3047 722 3315 
Q 1072 3584 1716 3584 
Q 2034 3584 2315 3537 
Q 2597 3491 2834 3397 
z
" transform="scale(0.015625)"/>
       <path id="DejaVuSans-65" d="M 3597 1894 
L 3597 1613 
L 953 1613 
Q 991 1019 1311 708 
Q 1631 397 2203 397 
Q 2534 397 2845 478 
Q 3156 559 3463 722 
L 3463 178 
Q 3153 47 2828 -22 
Q 2503 -91 2169 -91 
Q 1331 -91 842 396 
Q 353 884 353 1716 
Q 353 2575 817 3079 
Q 1281 3584 2069 3584 
Q 2775 3584 3186 3129 
Q 3597 2675 3597 1894 
z
M 3022 2063 
Q 3016 2534 2758 2815 
Q 2500 3097 2075 3097 
Q 1594 3097 1305 2825 
Q 1016 2553 972 2059 
L 3022 2063 
z
" transform="scale(0.015625)"/>
       <path id="DejaVuSans-20" transform="scale(0.015625)"/>
       <path id="DejaVuSans-61" d="M 2194 1759 
Q 1497 1759 1228 1600 
Q 959 1441 959 1056 
Q 959 750 1161 570 
Q 1363 391 1709 391 
Q 2188 391 2477 730 
Q 2766 1069 2766 1631 
L 2766 1759 
L 2194 1759 
z
M 3341 1997 
L 3341 0 
L 2766 0 
L 2766 531 
Q 2569 213 2275 61 
Q 1981 -91 1556 -91 
Q 1019 -91 701 211 
Q 384 513 384 1019 
Q 384 1609 779 1909 
Q 1175 2209 1959 2209 
L 2766 2209 
L 2766 2266 
Q 2766 2663 2505 2880 
Q 2244 3097 1772 3097 
Q 1472 3097 1187 3025 
Q 903 2953 641 2809 
L 641 3341 
Q 956 3463 1253 3523 
Q 1550 3584 1831 3584 
Q 2591 3584 2966 3190 
Q 3341 2797 3341 1997 
z
" transform="scale(0.015625)"/>
       <path id="DejaVuSans-76" d="M 191 3500 
L 800 3500 
L 1894 563 
L 2988 3500 
L 3597 3500 
L 2284 0 
L 1503 0 
L 191 3500 
z
" transform="scale(0.015625)"/>
       <path id="DejaVuSans-69" d="M 603 3500 
L 1178 3500 
L 1178 0 
L 603 0 
L 603 3500 
z
M 603 4863 
L 1178 4863 
L 1178 4134 
L 603 4134 
L 603 4863 
z
" transform="scale(0.015625)"/>
       <path id="DejaVuSans-62" d="M 3116 1747 
Q 3116 2381 2855 2742 
Q 2594 3103 2138 3103 
Q 1681 3103 1420 2742 
Q 1159 2381 1159 1747 
Q 1159 1113 1420 752 
Q 1681 391 2138 391 
Q 2594 391 2855 752 
Q 3116 1113 3116 1747 
z
M 1159 2969 
Q 1341 3281 1617 3432 
Q 1894 3584 2278 3584 
Q 2916 3584 3314 3078 
Q 3713 2572 3713 1747 
Q 3713 922 3314 415 
Q 2916 -91 2278 -91 
Q 1894 -91 1617 61 
Q 1341 213 1159 525 
L 1159 0 
L 581 0 
L 581 4863 
L 1159 4863 
L 1159 2969 
z
" transform="scale(0.015625)"/>
       <path id="DejaVuSans-74" d="M 1172 4494 
L 1172 3500 
L 2356 3500 
L 2356 3053 
L 1172 3053 
L 1172 1153 
Q 1172 725 1289 603 
Q 1406 481 1766 481 
L 2356 481 
L 2356 0 
L 1766 0 
Q 1100 0 847 248 
Q 594 497 594 1153 
L 594 3053 
L 172 3053 
L 172 3500 
L 594 3500 
L 594 4494 
L 1172 4494 
z
" transform="scale(0.015625)"/>
       <path id="DejaVuSans-79" d="M 2059 -325 
Q 1816 -950 1584 -1140 
Q 1353 -1331 966 -1331 
L 506 -1331 
L 506 -850 
L 844 -850 
Q 1081 -850 1212 -737 
Q 1344 -625 1503 -206 
L 1606 56 
L 191 3500 
L 800 3500 
L 1894 763 
L 2988 3500 
L 3597 3500 
L 2059 -325 
z
" transform="scale(0.015625)"/>
       <path id="DejaVuSans-28" d="M 1984 4856 
Q 1566 4138 1362 3434 
Q 1159 2731 1159 2009 
Q 1159 1288 1364 580 
Q 1569 -128 1984 -844 
L 1484 -844 
Q 1016 -109 783 600 
Q 550 1309 550 2009 
Q 550 2706 781 3412 
Q 1013 4119 1484 4856 
L 1984 4856 
z
" transform="scale(0.015625)"/>
       <path id="DejaVuSans-67" d="M 2906 1791 
Q 2906 2416 2648 2759 
Q 2391 3103 1925 3103 
Q 1463 3103 1205 2759 
Q 947 2416 947 1791 
Q 947 1169 1205 825 
Q 1463 481 1925 481 
Q 2391 481 2648 825 
Q 2906 1169 2906 1791 
z
M 3481 434 
Q 3481 -459 3084 -895 
Q 2688 -1331 1869 -1331 
Q 1566 -1331 1297 -1286 
Q 1028 -1241 775 -1147 
L 775 -588 
Q 1028 -725 1275 -790 
Q 1522 -856 1778 -856 
Q 2344 -856 2625 -561 
Q 2906 -266 2906 331 
L 2906 616 
Q 2728 306 2450 153 
Q 2172 0 1784 0 
Q 1141 0 747 490 
Q 353 981 353 1791 
Q 353 2603 747 3093 
Q 1141 3584 1784 3584 
Q 2172 3584 2450 3431 
Q 2728 3278 2906 2969 
L 2906 3500 
L 3481 3500 
L 3481 434 
z
" transform="scale(0.015625)"/>
       <path id="DejaVuSans-5f" d="M 3263 -1063 
L 3263 -1509 
L -63 -1509 
L -63 -1063 
L 3263 -1063 
z
" transform="scale(0.015625)"/>
       <path id="DejaVuSans-29" d="M 513 4856 
L 1013 4856 
Q 1481 4119 1714 3412 
Q 1947 2706 1947 2009 
Q 1947 1309 1714 600 
Q 1481 -109 1013 -844 
L 513 -844 
Q 928 -128 1133 580 
Q 1338 1288 1338 2009 
Q 1338 2731 1133 3434 
Q 928 4138 513 4856 
z
" transform="scale(0.015625)"/>
      </defs>
      <use xlink:href="#DejaVuSans-47"/>
      <use xlink:href="#DejaVuSans-6c" transform="translate(77.490234 0)"/>
      <use xlink:href="#DejaVuSans-75" transform="translate(105.273438 0)"/>
      <use xlink:href="#DejaVuSans-63" transform="translate(168.652344 0)"/>
      <use xlink:href="#DejaVuSans-6f" transform="translate(223.632812 0)"/>
      <use xlink:href="#DejaVuSans-73" transform="translate(284.814453 0)"/>
      <use xlink:href="#DejaVuSans-65" transform="translate(336.914062 0)"/>
      <use xlink:href="#DejaVuSans-20" transform="translate(398.4375 0)"/>
      <use xlink:href="#DejaVuSans-61" transform="translate(430.224609 0)"/>
      <use xlink:href="#DejaVuSans-76" transform="translate(491.503906 0)"/>
      <use xlink:href="#DejaVuSans-61" transform="translate(550.683594 0)"/>
      <use xlink:href="#DejaVuSans-69" transform="translate(611.962891 0)"/>
      <use xlink:href="#DejaVuSans-6c" transform="translate(639.746094 0)"/>
      <use xlink:href="#DejaVuSans-61" transform="translate(667.529297 0)"/>
      <use xlink:href="#DejaVuSans-62" transform="translate(728.808594 0)"/>
      <use xlink:href="#DejaVuSans-69" transform="translate(792.285156 0)"/>
      <use xlink:href="#DejaVuSans-6c" transform="translate(820.068359 0)"/>
      <use xlink:href="#DejaVuSans-69" transform="translate(847.851562 0)"/>
      <use xlink:href="#DejaVuSans-74" transform="translate(875.634766 0)"/>
      <use xlink:href="#DejaVuSans-79" transform="translate(914.84375 0)"/>
      <use xlink:href="#DejaVuSans-20" transform="translate(974.023438 0)"/>
      <use xlink:href="#DejaVuSans-28" transform="translate(1005.810547 0)"/>
      <use xlink:href="#DejaVuSans-67" transform="translate(1044.824219 0)"/>
      <use xlink:href="#DejaVuSans-5f" transform="translate(1108.300781 0)"/>
      <use xlink:href="#DejaVuSans-61" transform="translate(1158.300781 0)"/>
      <use xlink:href="#DejaVuSans-76" transform="translate(1219.580078 0)"/>
      <use xlink:href="#DejaVuSans-61" transform="translate(1278.759766 0)"/>
      <use xlink:href="#DejaVuSans-69" transform="translate(1340.039062 0)"/>
      <use xlink:href="#DejaVuSans-6c" transform="translate(1367.822266 0)"/>
      <use xlink:href="#DejaVuSans-29" transform="translate(1395.605469 0)"/>
     </g>
    </g>
   </g>
   <g id="matplotlib.axis_2">
    <g id="ytick_1">
     <g id="line2d_17">
      <path d="M 44.749063 249.594545 
L 348.942443 249.594545 
" clip-path="url(#p6da0c02824)" style="fill: none; stroke: #b0b0b0; stroke-opacity: 0.3; stroke-width: 0.8; stroke-linecap: square"/>
     </g>
     <g id="line2d_18">
      <defs>
       <path id="m91f74bae37" d="M 0 0 
L -3.5 0 
" style="stroke: #000000; stroke-width: 0.8"/>
      </defs>
      <g>
       <use xlink:href="#m91f74bae37" x="44.749063" y="249.594545" style="stroke: #000000; stroke-width: 0.8"/>
      </g>
     </g>
     <g id="text_10">
      <!-- 0.0 -->
      <g transform="translate(21.845938 253.393764) scale(0.1 -0.1)">
       <use xlink:href="#DejaVuSans-30"/>
       <use xlink:href="#DejaVuSans-2e" transform="translate(63.623047 0)"/>
       <use xlink:href="#DejaVuSans-30" transform="translate(95.410156 0)"/>
      </g>
     </g>
    </g>
    <g id="ytick_2">
     <g id="line2d_19">
      <path d="M 44.749063 213.892727 
L 348.942443 213.892727 
" clip-path="url(#p6da0c02824)" style="fill: none; stroke: #b0b0b0; stroke-opacity: 0.3; stroke-width: 0.8; stroke-linecap: square"/>
     </g>
     <g id="line2d_20">
      <g>
       <use xlink:href="#m91f74bae37" x="44.749063" y="213.892727" style="stroke: #000000; stroke-width: 0.8"/>
      </g>
     </g>
     <g id="text_11">
      <!-- 0.2 -->
      <g transform="translate(21.845938 217.691946) scale(0.1 -0.1)">
       <use xlink:href="#DejaVuSans-30"/>
       <use xlink:href="#DejaVuSans-2e" transform="translate(63.623047 0)"/>
       <use xlink:href="#DejaVuSans-32" transform="translate(95.410156 0)"/>
      </g>
     </g>
    </g>
    <g id="ytick_3">
     <g id="line2d_21">
      <path d="M 44.749063 178.190909 
L 348.942443 178.190909 
" clip-path="url(#p6da0c02824)" style="fill: none; stroke: #b0b0b0; stroke-opacity: 0.3; stroke-width: 0.8; stroke-linecap: square"/>
     </g>
     <g id="line2d_22">
      <g>
       <use xlink:href="#m91f74bae37" x="44.749063" y="178.190909" style="stroke: #000000; stroke-width: 0.8"/>
      </g>
     </g>
     <g id="text_12">
      <!-- 0.4 -->
      <g transform="translate(21.845938 181.990128) scale(0.1 -0.1)">
       <use xlink:href="#DejaVuSans-30"/>
       <use xlink:href="#DejaVuSans-2e" transform="translate(63.623047 0)"/>
       <use xlink:href="#DejaVuSans-34" transform="translate(95.410156 0)"/>
      </g>
     </g>
    </g>
    <g id="ytick_4">
     <g id="line2d_23">
      <path d="M 44.749063 142.489091 
L 348.942443 142.489091 
" clip-path="url(#p6da0c02824)" style="fill: none; stroke: #b0b0b0; stroke-opacity: 0.3; stroke-width: 0.8; stroke-linecap: square"/>
     </g>
     <g id="line2d_24">
      <g>
       <use xlink:href="#m91f74bae37" x="44.749063" y="142.489091" style="stroke: #000000; stroke-width: 0.8"/>
      </g>
     </g>
     <g id="text_13">
      <!-- 0.6 -->
      <g transform="translate(21.845938 146.28831) scale(0.1 -0.1)">
       <use xlink:href="#DejaVuSans-30"/>
       <use xlink:href="#DejaVuSans-2e" transform="translate(63.623047 0)"/>
       <use xlink:href="#DejaVuSans-36" transform="translate(95.410156 0)"/>
      </g>
     </g>
    </g>
    <g id="ytick_5">
     <g id="line2d_25">
      <path d="M 44.749063 106.787273 
L 348.942443 106.787273 
" clip-path="url(#p6da0c02824)" style="fill: none; stroke: #b0b0b0; stroke-opacity: 0.3; stroke-width: 0.8; stroke-linecap: square"/>
     </g>
     <g id="line2d_26">
      <g>
       <use xlink:href="#m91f74bae37" x="44.749063" y="106.787273" style="stroke: #000000; stroke-width: 0.8"/>
      </g>
     </g>
     <g id="text_14">
      <!-- 0.8 -->
      <g transform="translate(21.845938 110.586491) scale(0.1 -0.1)">
       <use xlink:href="#DejaVuSans-30"/>
       <use xlink:href="#DejaVuSans-2e" transform="translate(63.623047 0)"/>
       <use xlink:href="#DejaVuSans-38" transform="translate(95.410156 0)"/>
      </g>
     </g>
    </g>
    <g id="ytick_6">
     <g id="line2d_27">
      <path d="M 44.749063 71.085455 
L 348.942443 71.085455 
" clip-path="url(#p6da0c02824)" style="fill: none; stroke: #b0b0b0; stroke-opacity: 0.3; stroke-width: 0.8; stroke-linecap: square"/>
     </g>
     <g id="line2d_28">
      <g>
       <use xlink:href="#m91f74bae37" x="44.749063" y="71.085455" style="stroke: #000000; stroke-width: 0.8"/>
      </g>
     </g>
     <g id="text_15">
      <!-- 1.0 -->
      <g transform="translate(21.845938 74.884673) scale(0.1 -0.1)">
       <use xlink:href="#DejaVuSans-31"/>
       <use xlink:href="#DejaVuSans-2e" transform="translate(63.623047 0)"/>
       <use xlink:href="#DejaVuSans-30" transform="translate(95.410156 0)"/>
      </g>
     </g>
    </g>
    <g id="text_16">
     <!-- Fermentative ATP fraction -->
     <g transform="translate(15.558281 231.461875) rotate(-90) scale(0.11 -0.11)">
      <defs>
       <path id="DejaVuSans-46" d="M 628 4666 
L 3309 4666 
L 3309 4134 
L 1259 4134 
L 1259 2759 
L 3109 2759 
L 3109 2228 
L 1259 2228 
L 1259 0 
L 628 0 
L 628 4666 
z
" transform="scale(0.015625)"/>
       <path id="DejaVuSans-72" d="M 2631 2963 
Q 2534 3019 2420 3045 
Q 2306 3072 2169 3072 
Q 1681 3072 1420 2755 
Q 1159 2438 1159 1844 
L 1159 0 
L 581 0 
L 581 3500 
L 1159 3500 
L 1159 2956 
Q 1341 3275 1631 3429 
Q 1922 3584 2338 3584 
Q 2397 3584 2469 3576 
Q 2541 3569 2628 3553 
L 2631 2963 
z
" transform="scale(0.015625)"/>
       <path id="DejaVuSans-6d" d="M 3328 2828 
Q 3544 3216 3844 3400 
Q 4144 3584 4550 3584 
Q 5097 3584 5394 3201 
Q 5691 2819 5691 2113 
L 5691 0 
L 5113 0 
L 5113 2094 
Q 5113 2597 4934 2840 
Q 4756 3084 4391 3084 
Q 3944 3084 3684 2787 
Q 3425 2491 3425 1978 
L 3425 0 
L 2847 0 
L 2847 2094 
Q 2847 2600 2669 2842 
Q 2491 3084 2119 3084 
Q 1678 3084 1418 2786 
Q 1159 2488 1159 1978 
L 1159 0 
L 581 0 
L 581 3500 
L 1159 3500 
L 1159 2956 
Q 1356 3278 1631 3431 
Q 1906 3584 2284 3584 
Q 2666 3584 2933 3390 
Q 3200 3197 3328 2828 
z
" transform="scale(0.015625)"/>
       <path id="DejaVuSans-6e" d="M 3513 2113 
L 3513 0 
L 2938 0 
L 2938 2094 
Q 2938 2591 2744 2837 
Q 2550 3084 2163 3084 
Q 1697 3084 1428 2787 
Q 1159 2491 1159 1978 
L 1159 0 
L 581 0 
L 581 3500 
L 1159 3500 
L 1159 2956 
Q 1366 3272 1645 3428 
Q 1925 3584 2291 3584 
Q 2894 3584 3203 3211 
Q 3513 2838 3513 2113 
z
" transform="scale(0.015625)"/>
       <path id="DejaVuSans-41" d="M 2188 4044 
L 1331 1722 
L 3047 1722 
L 2188 4044 
z
M 1831 4666 
L 2547 4666 
L 4325 0 
L 3669 0 
L 3244 1197 
L 1141 1197 
L 716 0 
L 50 0 
L 1831 4666 
z
" transform="scale(0.015625)"/>
       <path id="DejaVuSans-54" d="M -19 4666 
L 3928 4666 
L 3928 4134 
L 2272 4134 
L 2272 0 
L 1638 0 
L 1638 4134 
L -19 4134 
L -19 4666 
z
" transform="scale(0.015625)"/>
       <path id="DejaVuSans-50" d="M 1259 4147 
L 1259 2394 
L 2053 2394 
Q 2494 2394 2734 2622 
Q 2975 2850 2975 3272 
Q 2975 3691 2734 3919 
Q 2494 4147 2053 4147 
L 1259 4147 
z
M 628 4666 
L 2053 4666 
Q 2838 4666 3239 4311 
Q 3641 3956 3641 3272 
Q 3641 2581 3239 2228 
Q 2838 1875 2053 1875 
L 1259 1875 
L 1259 0 
L 628 0 
L 628 4666 
z
" transform="scale(0.015625)"/>
       <path id="DejaVuSans-66" d="M 2375 4863 
L 2375 4384 
L 1825 4384 
Q 1516 4384 1395 4259 
Q 1275 4134 1275 3809 
L 1275 3500 
L 2222 3500 
L 2222 3053 
L 1275 3053 
L 1275 0 
L 697 0 
L 697 3053 
L 147 3053 
L 147 3500 
L 697 3500 
L 697 3744 
Q 697 4328 969 4595 
Q 1241 4863 1831 4863 
L 2375 4863 
z
" transform="scale(0.015625)"/>
      </defs>
      <use xlink:href="#DejaVuSans-46"/>
      <use xlink:href="#DejaVuSans-65" transform="translate(52.019531 0)"/>
      <use xlink:href="#DejaVuSans-72" transform="translate(113.542969 0)"/>
      <use xlink:href="#DejaVuSans-6d" transform="translate(152.90625 0)"/>
      <use xlink:href="#DejaVuSans-65" transform="translate(250.318359 0)"/>
      <use xlink:href="#DejaVuSans-6e" transform="translate(311.841797 0)"/>
      <use xlink:href="#DejaVuSans-74" transform="translate(375.220703 0)"/>
      <use xlink:href="#DejaVuSans-61" transform="translate(414.429688 0)"/>
      <use xlink:href="#DejaVuSans-74" transform="translate(475.708984 0)"/>
      <use xlink:href="#DejaVuSans-69" transform="translate(514.917969 0)"/>
      <use xlink:href="#DejaVuSans-76" transform="translate(542.701172 0)"/>
      <use xlink:href="#DejaVuSans-65" transform="translate(601.880859 0)"/>
      <use xlink:href="#DejaVuSans-20" transform="translate(663.404297 0)"/>
      <use xlink:href="#DejaVuSans-41" transform="translate(695.191406 0)"/>
      <use xlink:href="#DejaVuSans-54" transform="translate(755.849609 0)"/>
      <use xlink:href="#DejaVuSans-50" transform="translate(816.933594 0)"/>
      <use xlink:href="#DejaVuSans-20" transform="translate(877.236328 0)"/>
      <use xlink:href="#DejaVuSans-66" transform="translate(909.023438 0)"/>
      <use xlink:href="#DejaVuSans-72" transform="translate(944.228516 0)"/>
      <use xlink:href="#DejaVuSans-61" transform="translate(985.341797 0)"/>
      <use xlink:href="#DejaVuSans-63" transform="translate(1046.621094 0)"/>
      <use xlink:href="#DejaVuSans-74" transform="translate(1101.601562 0)"/>
      <use xlink:href="#DejaVuSans-69" transform="translate(1140.810547 0)"/>
      <use xlink:href="#DejaVuSans-6f" transform="translate(1168.59375 0)"/>
      <use xlink:href="#DejaVuSans-6e" transform="translate(1229.775391 0)"/>
     </g>
    </g>
   </g>
   <g id="line2d_29">
    <path d="M 58.576034 249.594545 
L 60.425796 249.594545 
L 61.350678 247.119796 
L 63.20044 236.783152 
L 65.975083 222.819737 
L 68.749726 210.428477 
L 71.524369 199.358008 
L 74.299012 189.407839 
L 77.073656 180.416104 
L 79.848299 172.250686 
L 82.622942 164.802684 
L 85.397585 157.981529 
L 88.172228 151.71128 
L 90.946871 145.927787 
L 93.721515 140.576489 
L 96.496158 135.610683 
L 100.195682 129.520568 
L 103.895206 123.964146 
L 107.594731 118.874208 
L 111.294255 114.194376 
L 114.993779 109.877005 
L 118.693303 105.881555 
L 122.392827 102.173315 
L 127.017233 97.896752 
L 131.641638 93.972779 
L 136.266043 90.359516 
L 140.890449 87.021465 
L 145.514854 83.928337 
L 151.06414 80.503527 
L 156.613427 77.355861 
L 162.162713 74.453006 
L 168.63688 71.339307 
L 169.561761 71.085455 
L 335.115471 71.085455 
L 335.115471 71.085455 
" clip-path="url(#p6da0c02824)" style="fill: none; stroke: #2c3e50; stroke-width: 2; stroke-linecap: square"/>
   </g>
   <g id="line2d_30">
    <path d="M 58.576034 249.594545 
L 60.425796 249.594545 
L 61.350678 247.119796 
L 63.20044 236.783152 
L 65.975083 222.819737 
L 68.749726 210.428477 
L 71.524369 199.358008 
L 74.299012 189.407839 
L 77.073656 180.416104 
L 79.848299 172.250686 
L 82.622942 164.802684 
L 85.397585 157.981529 
L 88.172228 151.71128 
L 90.946871 145.927787 
L 93.721515 140.576489 
L 96.496158 135.610683 
L 100.195682 129.520568 
L 103.895206 123.964146 
L 107.594731 118.874208 
L 111.294255 114.194376 
L 114.993779 109.877005 
L 118.693303 105.881555 
L 122.392827 102.173315 
L 127.017233 97.896752 
L 131.641638 93.972779 
L 136.266043 90.359516 
L 140.890449 87.021465 
L 145.514854 83.928337 
L 151.06414 80.503527 
L 156.613427 77.355861 
L 162.162713 74.453006 
L 168.63688 71.339307 
L 169.561761 71.085455 
L 335.115471 71.085455 
L 335.115471 71.085455 
" clip-path="url(#p6da0c02824)" style="fill: none; stroke-dasharray: 7.4,3.2; stroke-dashoffset: 0; stroke: #c0392b; stroke-width: 2"/>
   </g>
   <g id="line2d_31">
    <path d="M 44.749063 160.34 
L 348.942443 160.34 
" clip-path="url(#p6da0c02824)" style="fill: none; stroke-dasharray: 0.8,1.32; stroke-dashoffset: 0; stroke: #808080; stroke-opacity: 0.5; stroke-width: 0.8"/>
   </g>
   <g id="patch_3">
    <path d="M 44.749063 258.52 
L 44.749063 62.16 
" style="fill: none; stroke: #000000; stroke-width: 0.8; stroke-linejoin: miter; stroke-linecap: square"/>
   </g>
   <g id="patch_4">
    <path d="M 348.942443 258.52 
L 348.942443 62.16 
" style="fill: none; stroke: #000000; stroke-width: 0.8; stroke-linejoin: miter; stroke-linecap: square"/>
   </g>
   <g id="patch_5">
    <path d="M 44.749063 258.52 
L 348.942443 258.52 
" style="fill: none; stroke: #000000; stroke-width: 0.8; stroke-linejoin: miter; stroke-linecap: square"/>
   </g>
   <g id="patch_6">
    <path d="M 44.749063 62.16 
L 348.942443 62.16 
" style="fill: none; stroke: #000000; stroke-width: 0.8; stroke-linejoin: miter; stroke-linecap: square"/>
   </g>
   <g id="text_17">
    <!-- E. coli -->
    <g transform="translate(178.93669 56.16) scale(0.12 -0.12)">
     <defs>
      <path id="DejaVuSans-45" d="M 628 4666 
L 3578 4666 
L 3578 4134 
L 1259 4134 
L 1259 2753 
L 3481 2753 
L 3481 2222 
L 1259 2222 
L 1259 531 
L 3634 531 
L 3634 0 
L 628 0 
L 628 4666 
z
" transform="scale(0.015625)"/>
     </defs>
     <use xlink:href="#DejaVuSans-45"/>
     <use xlink:href="#DejaVuSans-2e" transform="translate(63.183594 0)"/>
     <use xlink:href="#DejaVuSans-20" transform="translate(94.970703 0)"/>
     <use xlink:href="#DejaVuSans-63" transform="translate(126.757812 0)"/>
     <use xlink:href="#DejaVuSans-6f" transform="translate(181.738281 0)"/>
     <use xlink:href="#DejaVuSans-6c" transform="translate(242.919922 0)"/>
     <use xlink:href="#DejaVuSans-69" transform="translate(270.703125 0)"/>
    </g>
   </g>
   <g id="legend_1">
    <g id="patch_7">
     <path d="M 220.151037 254.02 
L 342.642443 254.02 
Q 344.442443 254.02 344.442443 252.22 
L 344.442443 226.699375 
Q 344.442443 224.899375 342.642443 224.899375 
L 220.151037 224.899375 
Q 218.351037 224.899375 218.351037 226.699375 
L 218.351037 252.22 
Q 218.351037 254.02 220.151037 254.02 
z
" style="fill: #ffffff; opacity: 0.8; stroke: #cccccc; stroke-linejoin: miter"/>
    </g>
    <g id="line2d_32">
     <path d="M 221.951037 232.187969 
L 230.951037 232.187969 
L 239.951037 232.187969 
" style="fill: none; stroke: #2c3e50; stroke-width: 2; stroke-linecap: square"/>
    </g>
    <g id="text_18">
     <!-- Model A (Shen LP) -->
     <g transform="translate(247.151037 235.337969) scale(0.09 -0.09)">
      <defs>
       <path id="DejaVuSans-4d" d="M 628 4666 
L 1569 4666 
L 2759 1491 
L 3956 4666 
L 4897 4666 
L 4897 0 
L 4281 0 
L 4281 4097 
L 3078 897 
L 2444 897 
L 1241 4097 
L 1241 0 
L 628 0 
L 628 4666 
z
" transform="scale(0.015625)"/>
       <path id="DejaVuSans-64" d="M 2906 2969 
L 2906 4863 
L 3481 4863 
L 3481 0 
L 2906 0 
L 2906 525 
Q 2725 213 2448 61 
Q 2172 -91 1784 -91 
Q 1150 -91 751 415 
Q 353 922 353 1747 
Q 353 2572 751 3078 
Q 1150 3584 1784 3584 
Q 2172 3584 2448 3432 
Q 2725 3281 2906 2969 
z
M 947 1747 
Q 947 1113 1208 752 
Q 1469 391 1925 391 
Q 2381 391 2643 752 
Q 2906 1113 2906 1747 
Q 2906 2381 2643 2742 
Q 2381 3103 1925 3103 
Q 1469 3103 1208 2742 
Q 947 2381 947 1747 
z
" transform="scale(0.015625)"/>
       <path id="DejaVuSans-53" d="M 3425 4513 
L 3425 3897 
Q 3066 4069 2747 4153 
Q 2428 4238 2131 4238 
Q 1616 4238 1336 4038 
Q 1056 3838 1056 3469 
Q 1056 3159 1242 3001 
Q 1428 2844 1947 2747 
L 2328 2669 
Q 3034 2534 3370 2195 
Q 3706 1856 3706 1288 
Q 3706 609 3251 259 
Q 2797 -91 1919 -91 
Q 1588 -91 1214 -16 
Q 841 59 441 206 
L 441 856 
Q 825 641 1194 531 
Q 1563 422 1919 422 
Q 2459 422 2753 634 
Q 3047 847 3047 1241 
Q 3047 1584 2836 1778 
Q 2625 1972 2144 2069 
L 1759 2144 
Q 1053 2284 737 2584 
Q 422 2884 422 3419 
Q 422 4038 858 4394 
Q 1294 4750 2059 4750 
Q 2388 4750 2728 4690 
Q 3069 4631 3425 4513 
z
" transform="scale(0.015625)"/>
       <path id="DejaVuSans-68" d="M 3513 2113 
L 3513 0 
L 2938 0 
L 2938 2094 
Q 2938 2591 2744 2837 
Q 2550 3084 2163 3084 
Q 1697 3084 1428 2787 
Q 1159 2491 1159 1978 
L 1159 0 
L 581 0 
L 581 4863 
L 1159 4863 
L 1159 2956 
Q 1366 3272 1645 3428 
Q 1925 3584 2291 3584 
Q 2894 3584 3203 3211 
Q 3513 2838 3513 2113 
z
" transform="scale(0.015625)"/>
       <path id="DejaVuSans-4c" d="M 628 4666 
L 1259 4666 
L 1259 531 
L 3531 531 
L 3531 0 
L 628 0 
L 628 4666 
z
" transform="scale(0.015625)"/>
      </defs>
      <use xlink:href="#DejaVuSans-4d"/>
      <use xlink:href="#DejaVuSans-6f" transform="translate(86.279297 0)"/>
      <use xlink:href="#DejaVuSans-64" transform="translate(147.460938 0)"/>
      <use xlink:href="#DejaVuSans-65" transform="translate(210.9375 0)"/>
      <use xlink:href="#DejaVuSans-6c" transform="translate(272.460938 0)"/>
      <use xlink:href="#DejaVuSans-20" transform="translate(300.244141 0)"/>
      <use xlink:href="#DejaVuSans-41" transform="translate(332.03125 0)"/>
      <use xlink:href="#DejaVuSans-20" transform="translate(400.439453 0)"/>
      <use xlink:href="#DejaVuSans-28" transform="translate(432.226562 0)"/>
      <use xlink:href="#DejaVuSans-53" transform="translate(471.240234 0)"/>
      <use xlink:href="#DejaVuSans-68" transform="translate(534.716797 0)"/>
      <use xlink:href="#DejaVuSans-65" transform="translate(598.095703 0)"/>
      <use xlink:href="#DejaVuSans-6e" transform="translate(659.619141 0)"/>
      <use xlink:href="#DejaVuSans-20" transform="translate(722.998047 0)"/>
      <use xlink:href="#DejaVuSans-4c" transform="translate(754.785156 0)"/>
      <use xlink:href="#DejaVuSans-50" transform="translate(810.498047 0)"/>
      <use xlink:href="#DejaVuSans-29" transform="translate(870.800781 0)"/>
     </g>
    </g>
    <g id="line2d_33">
     <path d="M 221.951037 245.398281 
L 230.951037 245.398281 
L 239.951037 245.398281 
" style="fill: none; stroke-dasharray: 7.4,3.2; stroke-dashoffset: 0; stroke: #c0392b; stroke-width: 2"/>
    </g>
    <g id="text_19">
     <!-- Model B (Kukurugya) -->
     <g transform="translate(247.151037 248.548281) scale(0.09 -0.09)">
      <defs>
       <path id="DejaVuSans-42" d="M 1259 2228 
L 1259 519 
L 2272 519 
Q 2781 519 3026 730 
Q 3272 941 3272 1375 
Q 3272 1813 3026 2020 
Q 2781 2228 2272 2228 
L 1259 2228 
z
M 1259 4147 
L 1259 2741 
L 2194 2741 
Q 2656 2741 2882 2914 
Q 3109 3088 3109 3444 
Q 3109 3797 2882 3972 
Q 2656 4147 2194 4147 
L 1259 4147 
z
M 628 4666 
L 2241 4666 
Q 2963 4666 3353 4366 
Q 3744 4066 3744 3513 
Q 3744 3084 3544 2831 
Q 3344 2578 2956 2516 
Q 3422 2416 3680 2098 
Q 3938 1781 3938 1306 
Q 3938 681 3513 340 
Q 3088 0 2303 0 
L 628 0 
L 628 4666 
z
" transform="scale(0.015625)"/>
       <path id="DejaVuSans-4b" d="M 628 4666 
L 1259 4666 
L 1259 2694 
L 3353 4666 
L 4166 4666 
L 1850 2491 
L 4331 0 
L 3500 0 
L 1259 2247 
L 1259 0 
L 628 0 
L 628 4666 
z
" transform="scale(0.015625)"/>
       <path id="DejaVuSans-6b" d="M 581 4863 
L 1159 4863 
L 1159 1991 
L 2875 3500 
L 3609 3500 
L 1753 1863 
L 3688 0 
L 2938 0 
L 1159 1709 
L 1159 0 
L 581 0 
L 581 4863 
z
" transform="scale(0.015625)"/>
      </defs>
      <use xlink:href="#DejaVuSans-4d"/>
      <use xlink:href="#DejaVuSans-6f" transform="translate(86.279297 0)"/>
      <use xlink:href="#DejaVuSans-64" transform="translate(147.460938 0)"/>
      <use xlink:href="#DejaVuSans-65" transform="translate(210.9375 0)"/>
      <use xlink:href="#DejaVuSans-6c" transform="translate(272.460938 0)"/>
      <use xlink:href="#DejaVuSans-20" transform="translate(300.244141 0)"/>
      <use xlink:href="#DejaVuSans-42" transform="translate(332.03125 0)"/>
      <use xlink:href="#DejaVuSans-20" transform="translate(400.634766 0)"/>
      <use xlink:href="#DejaVuSans-28" transform="translate(432.421875 0)"/>
      <use xlink:href="#DejaVuSans-4b" transform="translate(471.435547 0)"/>
      <use xlink:href="#DejaVuSans-75" transform="translate(532.011719 0)"/>
      <use xlink:href="#DejaVuSans-6b" transform="translate(595.390625 0)"/>
      <use xlink:href="#DejaVuSans-75" transform="translate(650.175781 0)"/>
      <use xlink:href="#DejaVuSans-72" transform="translate(713.554688 0)"/>
      <use xlink:href="#DejaVuSans-75" transform="translate(754.667969 0)"/>
      <use xlink:href="#DejaVuSans-67" transform="translate(818.046875 0)"/>
      <use xlink:href="#DejaVuSans-79" transform="translate(881.523438 0)"/>
      <use xlink:href="#DejaVuSans-61" transform="translate(940.703125 0)"/>
      <use xlink:href="#DejaVuSans-29" transform="translate(1001.982422 0)"/>
     </g>
    </g>
   </g>
  </g>
  <g id="axes_2">
   <g id="patch_8">
    <path d="M 401.611093 258.52 
L 705.804473 258.52 
L 705.804473 62.16 
L 401.611093 62.16 
z
" style="fill: #ffffff"/>
   </g>
   <g id="matplotlib.axis_3">
    <g id="xtick_9">
     <g id="line2d_34">
      <path d="M 415.436862 258.52 
L 415.436862 62.16 
" clip-path="url(#p33cf27bc3c)" style="fill: none; stroke: #b0b0b0; stroke-opacity: 0.3; stroke-width: 0.8; stroke-linecap: square"/>
     </g>
     <g id="line2d_35">
      <g>
       <use xlink:href="#m3cb69ab761" x="415.436862" y="258.52" style="stroke: #000000; stroke-width: 0.8"/>
      </g>
     </g>
     <g id="text_20">
      <!-- 0.00 -->
      <g transform="translate(404.30405 273.118437) scale(0.1 -0.1)">
       <use xlink:href="#DejaVuSans-30"/>
       <use xlink:href="#DejaVuSans-2e" transform="translate(63.623047 0)"/>
       <use xlink:href="#DejaVuSans-30" transform="translate(95.410156 0)"/>
       <use xlink:href="#DejaVuSans-30" transform="translate(159.033203 0)"/>
      </g>
     </g>
    </g>
    <g id="xtick_10">
     <g id="line2d_36">
      <path d="M 475.554392 258.52 
L 475.554392 62.16 
" clip-path="url(#p33cf27bc3c)" style="fill: none; stroke: #b0b0b0; stroke-opacity: 0.3; stroke-width: 0.8; stroke-linecap: square"/>
     </g>
     <g id="line2d_37">
      <g>
       <use xlink:href="#m3cb69ab761" x="475.554392" y="258.52" style="stroke: #000000; stroke-width: 0.8"/>
      </g>
     </g>
     <g id="text_21">
      <!-- 0.05 -->
      <g transform="translate(464.42158 273.118437) scale(0.1 -0.1)">
       <defs>
        <path id="DejaVuSans-35" d="M 691 4666 
L 3169 4666 
L 3169 4134 
L 1269 4134 
L 1269 2991 
Q 1406 3038 1543 3061 
Q 1681 3084 1819 3084 
Q 2600 3084 3056 2656 
Q 3513 2228 3513 1497 
Q 3513 744 3044 326 
Q 2575 -91 1722 -91 
Q 1428 -91 1123 -41 
Q 819 9 494 109 
L 494 744 
Q 775 591 1075 516 
Q 1375 441 1709 441 
Q 2250 441 2565 725 
Q 2881 1009 2881 1497 
Q 2881 1984 2565 2268 
Q 2250 2553 1709 2553 
Q 1456 2553 1204 2497 
Q 953 2441 691 2322 
L 691 4666 
z
" transform="scale(0.015625)"/>
       </defs>
       <use xlink:href="#DejaVuSans-30"/>
       <use xlink:href="#DejaVuSans-2e" transform="translate(63.623047 0)"/>
       <use xlink:href="#DejaVuSans-30" transform="translate(95.410156 0)"/>
       <use xlink:href="#DejaVuSans-35" transform="translate(159.033203 0)"/>
      </g>
     </g>
    </g>
    <g id="xtick_11">
     <g id="line2d_38">
      <path d="M 535.671923 258.52 
L 535.671923 62.16 
" clip-path="url(#p33cf27bc3c)" style="fill: none; stroke: #b0b0b0; stroke-opacity: 0.3; stroke-width: 0.8; stroke-linecap: square"/>
     </g>
     <g id="line2d_39">
      <g>
       <use xlink:href="#m3cb69ab761" x="535.671923" y="258.52" style="stroke: #000000; stroke-width: 0.8"/>
      </g>
     </g>
     <g id="text_22">
      <!-- 0.10 -->
      <g transform="translate(524.53911 273.118437) scale(0.1 -0.1)">
       <use xlink:href="#DejaVuSans-30"/>
       <use xlink:href="#DejaVuSans-2e" transform="translate(63.623047 0)"/>
       <use xlink:href="#DejaVuSans-31" transform="translate(95.410156 0)"/>
       <use xlink:href="#DejaVuSans-30" transform="translate(159.033203 0)"/>
      </g>
     </g>
    </g>
    <g id="xtick_12">
     <g id="line2d_40">
      <path d="M 595.789453 258.52 
L 595.789453 62.16 
" clip-path="url(#p33cf27bc3c)" style="fill: none; stroke: #b0b0b0; stroke-opacity: 0.3; stroke-width: 0.8; stroke-linecap: square"/>
     </g>
     <g id="line2d_41">
      <g>
       <use xlink:href="#m3cb69ab761" x="595.789453" y="258.52" style="stroke: #000000; stroke-width: 0.8"/>
      </g>
     </g>
     <g id="text_23">
      <!-- 0.15 -->
      <g transform="translate(584.65664 273.118437) scale(0.1 -0.1)">
       <use xlink:href="#DejaVuSans-30"/>
       <use xlink:href="#DejaVuSans-2e" transform="translate(63.623047 0)"/>
       <use xlink:href="#DejaVuSans-31" transform="translate(95.410156 0)"/>
       <use xlink:href="#DejaVuSans-35" transform="translate(159.033203 0)"/>
      </g>
     </g>
    </g>
    <g id="xtick_13">
     <g id="line2d_42">
      <path d="M 655.906983 258.52 
L 655.906983 62.16 
" clip-path="url(#p33cf27bc3c)" style="fill: none; stroke: #b0b0b0; stroke-opacity: 0.3; stroke-width: 0.8; stroke-linecap: square"/>
     </g>
     <g id="line2d_43">
      <g>
       <use xlink:href="#m3cb69ab761" x="655.906983" y="258.52" style="stroke: #000000; stroke-width: 0.8"/>
      </g>
     </g>
     <g id="text_24">
      <!-- 0.20 -->
      <g transform="translate(644.774171 273.118437) scale(0.1 -0.1)">
       <use xlink:href="#DejaVuSans-30"/>
       <use xlink:href="#DejaVuSans-2e" transform="translate(63.623047 0)"/>
       <use xlink:href="#DejaVuSans-32" transform="translate(95.410156 0)"/>
       <use xlink:href="#DejaVuSans-30" transform="translate(159.033203 0)"/>
      </g>
     </g>
    </g>
    <g id="text_25">
     <!-- Glucose availability (g_avail) -->
     <g transform="translate(474.802549 287.556406) scale(0.11 -0.11)">
      <use xlink:href="#DejaVuSans-47"/>
      <use xlink:href="#DejaVuSans-6c" transform="translate(77.490234 0)"/>
      <use xlink:href="#DejaVuSans-75" transform="translate(105.273438 0)"/>
      <use xlink:href="#DejaVuSans-63" transform="translate(168.652344 0)"/>
      <use xlink:href="#DejaVuSans-6f" transform="translate(223.632812 0)"/>
      <use xlink:href="#DejaVuSans-73" transform="translate(284.814453 0)"/>
      <use xlink:href="#DejaVuSans-65" transform="translate(336.914062 0)"/>
      <use xlink:href="#DejaVuSans-20" transform="translate(398.4375 0)"/>
      <use xlink:href="#DejaVuSans-61" transform="translate(430.224609 0)"/>
      <use xlink:href="#DejaVuSans-76" transform="translate(491.503906 0)"/>
      <use xlink:href="#DejaVuSans-61" transform="translate(550.683594 0)"/>
      <use xlink:href="#DejaVuSans-69" transform="translate(611.962891 0)"/>
      <use xlink:href="#DejaVuSans-6c" transform="translate(639.746094 0)"/>
      <use xlink:href="#DejaVuSans-61" transform="translate(667.529297 0)"/>
      <use xlink:href="#DejaVuSans-62" transform="translate(728.808594 0)"/>
      <use xlink:href="#DejaVuSans-69" transform="translate(792.285156 0)"/>
      <use xlink:href="#DejaVuSans-6c" transform="translate(820.068359 0)"/>
      <use xlink:href="#DejaVuSans-69" transform="translate(847.851562 0)"/>
      <use xlink:href="#DejaVuSans-74" transform="translate(875.634766 0)"/>
      <use xlink:href="#DejaVuSans-79" transform="translate(914.84375 0)"/>
      <use xlink:href="#DejaVuSans-20" transform="translate(974.023438 0)"/>
      <use xlink:href="#DejaVuSans-28" transform="translate(1005.810547 0)"/>
      <use xlink:href="#DejaVuSans-67" transform="translate(1044.824219 0)"/>
      <use xlink:href="#DejaVuSans-5f" transform="translate(1108.300781 0)"/>
      <use xlink:href="#DejaVuSans-61" transform="translate(1158.300781 0)"/>
      <use xlink:href="#DejaVuSans-76" transform="translate(1219.580078 0)"/>
      <use xlink:href="#DejaVuSans-61" transform="translate(1278.759766 0)"/>
      <use xlink:href="#DejaVuSans-69" transform="translate(1340.039062 0)"/>
      <use xlink:href="#DejaVuSans-6c" transform="translate(1367.822266 0)"/>
      <use xlink:href="#DejaVuSans-29" transform="translate(1395.605469 0)"/>
     </g>
    </g>
   </g>
   <g id="matplotlib.axis_4">
    <g id="ytick_7">
     <g id="line2d_44">
      <path d="M 401.611093 249.594545 
L 705.804473 249.594545 
" clip-path="url(#p33cf27bc3c)" style="fill: none; stroke: #b0b0b0; stroke-opacity: 0.3; stroke-width: 0.8; stroke-linecap: square"/>
     </g>
     <g id="line2d_45">
      <g>
       <use xlink:href="#m91f74bae37" x="401.611093" y="249.594545" style="stroke: #000000; stroke-width: 0.8"/>
      </g>
     </g>
     <g id="text_26">
      <!-- 0.0 -->
      <g transform="translate(378.707968 253.393764) scale(0.1 -0.1)">
       <use xlink:href="#DejaVuSans-30"/>
       <use xlink:href="#DejaVuSans-2e" transform="translate(63.623047 0)"/>
       <use xlink:href="#DejaVuSans-30" transform="translate(95.410156 0)"/>
      </g>
     </g>
    </g>
    <g id="ytick_8">
     <g id="line2d_46">
      <path d="M 401.611093 213.892727 
L 705.804473 213.892727 
" clip-path="url(#p33cf27bc3c)" style="fill: none; stroke: #b0b0b0; stroke-opacity: 0.3; stroke-width: 0.8; stroke-linecap: square"/>
     </g>
     <g id="line2d_47">
      <g>
       <use xlink:href="#m91f74bae37" x="401.611093" y="213.892727" style="stroke: #000000; stroke-width: 0.8"/>
      </g>
     </g>
     <g id="text_27">
      <!-- 0.2 -->
      <g transform="translate(378.707968 217.691946) scale(0.1 -0.1)">
       <use xlink:href="#DejaVuSans-30"/>
       <use xlink:href="#DejaVuSans-2e" transform="translate(63.623047 0)"/>
       <use xlink:href="#DejaVuSans-32" transform="translate(95.410156 0)"/>
      </g>
     </g>
    </g>
    <g id="ytick_9">
     <g id="line2d_48">
      <path d="M 401.611093 178.190909 
L 705.804473 178.190909 
" clip-path="url(#p33cf27bc3c)" style="fill: none; stroke: #b0b0b0; stroke-opacity: 0.3; stroke-width: 0.8; stroke-linecap: square"/>
     </g>
     <g id="line2d_49">
      <g>
       <use xlink:href="#m91f74bae37" x="401.611093" y="178.190909" style="stroke: #000000; stroke-width: 0.8"/>
      </g>
     </g>
     <g id="text_28">
      <!-- 0.4 -->
      <g transform="translate(378.707968 181.990128) scale(0.1 -0.1)">
       <use xlink:href="#DejaVuSans-30"/>
       <use xlink:href="#DejaVuSans-2e" transform="translate(63.623047 0)"/>
       <use xlink:href="#DejaVuSans-34" transform="translate(95.410156 0)"/>
      </g>
     </g>
    </g>
    <g id="ytick_10">
     <g id="line2d_50">
      <path d="M 401.611093 142.489091 
L 705.804473 142.489091 
" clip-path="url(#p33cf27bc3c)" style="fill: none; stroke: #b0b0b0; stroke-opacity: 0.3; stroke-width: 0.8; stroke-linecap: square"/>
     </g>
     <g id="line2d_51">
      <g>
       <use xlink:href="#m91f74bae37" x="401.611093" y="142.489091" style="stroke: #000000; stroke-width: 0.8"/>
      </g>
     </g>
     <g id="text_29">
      <!-- 0.6 -->
      <g transform="translate(378.707968 146.28831) scale(0.1 -0.1)">
       <use xlink:href="#DejaVuSans-30"/>
       <use xlink:href="#DejaVuSans-2e" transform="translate(63.623047 0)"/>
       <use xlink:href="#DejaVuSans-36" transform="translate(95.410156 0)"/>
      </g>
     </g>
    </g>
    <g id="ytick_11">
     <g id="line2d_52">
      <path d="M 401.611093 106.787273 
L 705.804473 106.787273 
" clip-path="url(#p33cf27bc3c)" style="fill: none; stroke: #b0b0b0; stroke-opacity: 0.3; stroke-width: 0.8; stroke-linecap: square"/>
     </g>
     <g id="line2d_53">
      <g>
       <use xlink:href="#m91f74bae37" x="401.611093" y="106.787273" style="stroke: #000000; stroke-width: 0.8"/>
      </g>
     </g>
     <g id="text_30">
      <!-- 0.8 -->
      <g transform="translate(378.707968 110.586491) scale(0.1 -0.1)">
       <use xlink:href="#DejaVuSans-30"/>
       <use xlink:href="#DejaVuSans-2e" transform="translate(63.623047 0)"/>
       <use xlink:href="#DejaVuSans-38" transform="translate(95.410156 0)"/>
      </g>
     </g>
    </g>
    <g id="ytick_12">
     <g id="line2d_54">
      <path d="M 401.611093 71.085455 
L 705.804473 71.085455 
" clip-path="url(#p33cf27bc3c)" style="fill: none; stroke: #b0b0b0; stroke-opacity: 0.3; stroke-width: 0.8; stroke-linecap: square"/>
     </g>
     <g id="line2d_55">
      <g>
       <use xlink:href="#m91f74bae37" x="401.611093" y="71.085455" style="stroke: #000000; stroke-width: 0.8"/>
      </g>
     </g>
     <g id="text_31">
      <!-- 1.0 -->
      <g transform="translate(378.707968 74.884673) scale(0.1 -0.1)">
       <use xlink:href="#DejaVuSans-31"/>
       <use xlink:href="#DejaVuSans-2e" transform="translate(63.623047 0)"/>
       <use xlink:href="#DejaVuSans-30" transform="translate(95.410156 0)"/>
      </g>
     </g>
    </g>
    <g id="text_32">
     <!-- Fermentative ATP fraction -->
     <g transform="translate(372.420311 231.461875) rotate(-90) scale(0.11 -0.11)">
      <use xlink:href="#DejaVuSans-46"/>
      <use xlink:href="#DejaVuSans-65" transform="translate(52.019531 0)"/>
      <use xlink:href="#DejaVuSans-72" transform="translate(113.542969 0)"/>
      <use xlink:href="#DejaVuSans-6d" transform="translate(152.90625 0)"/>
      <use xlink:href="#DejaVuSans-65" transform="translate(250.318359 0)"/>
      <use xlink:href="#DejaVuSans-6e" transform="translate(311.841797 0)"/>
      <use xlink:href="#DejaVuSans-74" transform="translate(375.220703 0)"/>
      <use xlink:href="#DejaVuSans-61" transform="translate(414.429688 0)"/>
      <use xlink:href="#DejaVuSans-74" transform="translate(475.708984 0)"/>
      <use xlink:href="#DejaVuSans-69" transform="translate(514.917969 0)"/>
      <use xlink:href="#DejaVuSans-76" transform="translate(542.701172 0)"/>
      <use xlink:href="#DejaVuSans-65" transform="translate(601.880859 0)"/>
      <use xlink:href="#DejaVuSans-20" transform="translate(663.404297 0)"/>
      <use xlink:href="#DejaVuSans-41" transform="translate(695.191406 0)"/>
      <use xlink:href="#DejaVuSans-54" transform="translate(755.849609 0)"/>
      <use xlink:href="#DejaVuSans-50" transform="translate(816.933594 0)"/>
      <use xlink:href="#DejaVuSans-20" transform="translate(877.236328 0)"/>
      <use xlink:href="#DejaVuSans-66" transform="translate(909.023438 0)"/>
      <use xlink:href="#DejaVuSans-72" transform="translate(944.228516 0)"/>
      <use xlink:href="#DejaVuSans-61" transform="translate(985.341797 0)"/>
      <use xlink:href="#DejaVuSans-63" transform="translate(1046.621094 0)"/>
      <use xlink:href="#DejaVuSans-74" transform="translate(1101.601562 0)"/>
      <use xlink:href="#DejaVuSans-69" transform="translate(1140.810547 0)"/>
      <use xlink:href="#DejaVuSans-6f" transform="translate(1168.59375 0)"/>
      <use xlink:href="#DejaVuSans-6e" transform="translate(1229.775391 0)"/>
     </g>
    </g>
   </g>
   <g id="line2d_56">
    <path d="M 415.438065 249.594545 
L 417.287827 249.594545 
L 418.212708 244.690021 
L 420.06247 233.160824 
L 421.912232 222.732104 
L 423.761994 213.253476 
L 425.611756 204.60076 
L 428.386399 192.948624 
L 431.161043 182.643395 
L 433.935686 173.464294 
L 436.710329 165.236293 
L 439.484972 157.818851 
L 442.259615 151.097816 
L 445.034258 144.979508 
L 447.808902 139.38633 
L 450.583545 134.253457 
L 453.358188 129.526312 
L 456.132831 125.158617 
L 458.907474 121.110876 
L 462.606999 116.153658 
L 466.306523 111.637541 
L 470.006047 107.506158 
L 473.705571 103.712354 
L 477.405096 100.216378 
L 481.10462 96.984482 
L 485.729025 93.272447 
L 490.35343 89.880674 
L 494.977836 86.76943 
L 499.602241 83.905294 
L 505.151527 80.754949 
L 510.700814 77.878733 
L 516.2501 75.242358 
L 522.724267 72.431553 
L 525.498911 71.305193 
L 526.423792 71.085455 
L 691.977501 71.085455 
L 691.977501 71.085455 
" clip-path="url(#p33cf27bc3c)" style="fill: none; stroke: #2c3e50; stroke-width: 2; stroke-linecap: square"/>
   </g>
   <g id="line2d_57">
    <path d="M 415.438065 249.594545 
L 417.287827 249.594545 
L 418.212708 244.690021 
L 420.06247 233.160824 
L 421.912232 222.732104 
L 423.761994 213.253476 
L 425.611756 204.60076 
L 428.386399 192.948624 
L 431.161043 182.643395 
L 433.935686 173.464294 
L 436.710329 165.236293 
L 439.484972 157.818851 
L 442.259615 151.097816 
L 445.034258 144.979508 
L 447.808902 139.38633 
L 450.583545 134.253457 
L 453.358188 129.526312 
L 456.132831 125.158617 
L 458.907474 121.110876 
L 462.606999 116.153658 
L 466.306523 111.637541 
L 470.006047 107.506158 
L 473.705571 103.712354 
L 477.405096 100.216378 
L 481.10462 96.984482 
L 485.729025 93.272447 
L 490.35343 89.880674 
L 494.977836 86.76943 
L 499.602241 83.905294 
L 505.151527 80.754949 
L 510.700814 77.878733 
L 516.2501 75.242358 
L 522.724267 72.431553 
L 525.498911 71.305193 
L 526.423792 71.085455 
L 691.977501 71.085455 
L 691.977501 71.085455 
" clip-path="url(#p33cf27bc3c)" style="fill: none; stroke-dasharray: 7.4,3.2; stroke-dashoffset: 0; stroke: #c0392b; stroke-width: 2"/>
   </g>
   <g id="line2d_58">
    <path d="M 401.611093 160.34 
L 705.804473 160.34 
" clip-path="url(#p33cf27bc3c)" style="fill: none; stroke-dasharray: 0.8,1.32; stroke-dashoffset: 0; stroke: #808080; stroke-opacity: 0.5; stroke-width: 0.8"/>
   </g>
   <g id="patch_9">
    <path d="M 401.611093 258.52 
L 401.611093 62.16 
" style="fill: none; stroke: #000000; stroke-width: 0.8; stroke-linejoin: miter; stroke-linecap: square"/>
   </g>
   <g id="patch_10">
    <path d="M 705.804473 258.52 
L 705.804473 62.16 
" style="fill: none; stroke: #000000; stroke-width: 0.8; stroke-linejoin: miter; stroke-linecap: square"/>
   </g>
   <g id="patch_11">
    <path d="M 401.611093 258.52 
L 705.804473 258.52 
" style="fill: none; stroke: #000000; stroke-width: 0.8; stroke-linejoin: miter; stroke-linecap: square"/>
   </g>
   <g id="patch_12">
    <path d="M 401.611093 62.16 
L 705.804473 62.16 
" style="fill: none; stroke: #000000; stroke-width: 0.8; stroke-linejoin: miter; stroke-linecap: square"/>
   </g>
   <g id="text_33">
    <!-- S. cerevisiae -->
    <g transform="translate(515.69122 56.16) scale(0.12 -0.12)">
     <use xlink:href="#DejaVuSans-53"/>
     <use xlink:href="#DejaVuSans-2e" transform="translate(63.476562 0)"/>
     <use xlink:href="#DejaVuSans-20" transform="translate(95.263672 0)"/>
     <use xlink:href="#DejaVuSans-63" transform="translate(127.050781 0)"/>
     <use xlink:href="#DejaVuSans-65" transform="translate(182.03125 0)"/>
     <use xlink:href="#DejaVuSans-72" transform="translate(243.554688 0)"/>
     <use xlink:href="#DejaVuSans-65" transform="translate(282.417969 0)"/>
     <use xlink:href="#DejaVuSans-76" transform="translate(343.941406 0)"/>
     <use xlink:href="#DejaVuSans-69" transform="translate(403.121094 0)"/>
     <use xlink:href="#DejaVuSans-73" transform="translate(430.904297 0)"/>
     <use xlink:href="#DejaVuSans-69" transform="translate(483.003906 0)"/>
     <use xlink:href="#DejaVuSans-61" transform="translate(510.787109 0)"/>
     <use xlink:href="#DejaVuSans-65" transform="translate(572.066406 0)"/>
    </g>
   </g>
   <g id="legend_2">
    <g id="patch_13">
     <path d="M 577.013067 254.02 
L 699.504473 254.02 
Q 701.304473 254.02 701.304473 252.22 
L 701.304473 226.699375 
Q 701.304473 224.899375 699.504473 224.899375 
L 577.013067 224.899375 
Q 575.213067 224.899375 575.213067 226.699375 
L 575.213067 252.22 
Q 575.213067 254.02 577.013067 254.02 
z
" style="fill: #ffffff; opacity: 0.8; stroke: #cccccc; stroke-linejoin: miter"/>
    </g>
    <g id="line2d_59">
     <path d="M 578.813067 232.187969 
L 587.813067 232.187969 
L 596.813067 232.187969 
" style="fill: none; stroke: #2c3e50; stroke-width: 2; stroke-linecap: square"/>
    </g>
    <g id="text_34">
     <!-- Model A (Shen LP) -->
     <g transform="translate(604.013067 235.337969) scale(0.09 -0.09)">
      <use xlink:href="#DejaVuSans-4d"/>
      <use xlink:href="#DejaVuSans-6f" transform="translate(86.279297 0)"/>
      <use xlink:href="#DejaVuSans-64" transform="translate(147.460938 0)"/>
      <use xlink:href="#DejaVuSans-65" transform="translate(210.9375 0)"/>
      <use xlink:href="#DejaVuSans-6c" transform="translate(272.460938 0)"/>
      <use xlink:href="#DejaVuSans-20" transform="translate(300.244141 0)"/>
      <use xlink:href="#DejaVuSans-41" transform="translate(332.03125 0)"/>
      <use xlink:href="#DejaVuSans-20" transform="translate(400.439453 0)"/>
      <use xlink:href="#DejaVuSans-28" transform="translate(432.226562 0)"/>
      <use xlink:href="#DejaVuSans-53" transform="translate(471.240234 0)"/>
      <use xlink:href="#DejaVuSans-68" transform="translate(534.716797 0)"/>
      <use xlink:href="#DejaVuSans-65" transform="translate(598.095703 0)"/>
      <use xlink:href="#DejaVuSans-6e" transform="translate(659.619141 0)"/>
      <use xlink:href="#DejaVuSans-20" transform="translate(722.998047 0)"/>
      <use xlink:href="#DejaVuSans-4c" transform="translate(754.785156 0)"/>
      <use xlink:href="#DejaVuSans-50" transform="translate(810.498047 0)"/>
      <use xlink:href="#DejaVuSans-29" transform="translate(870.800781 0)"/>
     </g>
    </g>
    <g id="line2d_60">
     <path d="M 578.813067 245.398281 
L 587.813067 245.398281 
L 596.813067 245.398281 
" style="fill: none; stroke-dasharray: 7.4,3.2; stroke-dashoffset: 0; stroke: #c0392b; stroke-width: 2"/>
    </g>
    <g id="text_35">
     <!-- Model B (Kukurugya) -->
     <g transform="translate(604.013067 248.548281) scale(0.09 -0.09)">
      <use xlink:href="#DejaVuSans-4d"/>
      <use xlink:href="#DejaVuSans-6f" transform="translate(86.279297 0)"/>
      <use xlink:href="#DejaVuSans-64" transform="translate(147.460938 0)"/>
      <use xlink:href="#DejaVuSans-65" transform="translate(210.9375 0)"/>
      <use xlink:href="#DejaVuSans-6c" transform="translate(272.460938 0)"/>
      <use xlink:href="#DejaVuSans-20" transform="translate(300.244141 0)"/>
      <use xlink:href="#DejaVuSans-42" transform="translate(332.03125 0)"/>
      <use xlink:href="#DejaVuSans-20" transform="translate(400.634766 0)"/>
      <use xlink:href="#DejaVuSans-28" transform="translate(432.421875 0)"/>
      <use xlink:href="#DejaVuSans-4b" transform="translate(471.435547 0)"/>
      <use xlink:href="#DejaVuSans-75" transform="translate(532.011719 0)"/>
      <use xlink:href="#DejaVuSans-6b" transform="translate(595.390625 0)"/>
      <use xlink:href="#DejaVuSans-75" transform="translate(650.175781 0)"/>
      <use xlink:href="#DejaVuSans-72" transform="translate(713.554688 0)"/>
      <use xlink:href="#DejaVuSans-75" transform="translate(754.667969 0)"/>
      <use xlink:href="#DejaVuSans-67" transform="translate(818.046875 0)"/>
      <use xlink:href="#DejaVuSans-79" transform="translate(881.523438 0)"/>
      <use xlink:href="#DejaVuSans-61" transform="translate(940.703125 0)"/>
      <use xlink:href="#DejaVuSans-29" transform="translate(1001.982422 0)"/>
     </g>
    </g>
   </g>
  </g>
  <g id="axes_3">
   <g id="patch_14">
    <path d="M 758.473123 258.52 
L 1062.666503 258.52 
L 1062.666503 62.16 
L 758.473123 62.16 
z
" style="fill: #ffffff"/>
   </g>
   <g id="matplotlib.axis_5">
    <g id="xtick_14">
     <g id="line2d_61">
      <path d="M 772.298519 258.52 
L 772.298519 62.16 
" clip-path="url(#p1c70c04c21)" style="fill: none; stroke: #b0b0b0; stroke-opacity: 0.3; stroke-width: 0.8; stroke-linecap: square"/>
     </g>
     <g id="line2d_62">
      <g>
       <use xlink:href="#m3cb69ab761" x="772.298519" y="258.52" style="stroke: #000000; stroke-width: 0.8"/>
      </g>
     </g>
     <g id="text_36">
      <!-- 0.000 -->
      <g transform="translate(757.984457 273.118437) scale(0.1 -0.1)">
       <use xlink:href="#DejaVuSans-30"/>
       <use xlink:href="#DejaVuSans-2e" transform="translate(63.623047 0)"/>
       <use xlink:href="#DejaVuSans-30" transform="translate(95.410156 0)"/>
       <use xlink:href="#DejaVuSans-30" transform="translate(159.033203 0)"/>
       <use xlink:href="#DejaVuSans-30" transform="translate(222.65625 0)"/>
      </g>
     </g>
    </g>
    <g id="xtick_15">
     <g id="line2d_63">
      <path d="M 811.691826 258.52 
L 811.691826 62.16 
" clip-path="url(#p1c70c04c21)" style="fill: none; stroke: #b0b0b0; stroke-opacity: 0.3; stroke-width: 0.8; stroke-linecap: square"/>
     </g>
     <g id="line2d_64">
      <g>
       <use xlink:href="#m3cb69ab761" x="811.691826" y="258.52" style="stroke: #000000; stroke-width: 0.8"/>
      </g>
     </g>
     <g id="text_37">
      <!-- 0.025 -->
      <g transform="translate(797.377763 273.118437) scale(0.1 -0.1)">
       <use xlink:href="#DejaVuSans-30"/>
       <use xlink:href="#DejaVuSans-2e" transform="translate(63.623047 0)"/>
       <use xlink:href="#DejaVuSans-30" transform="translate(95.410156 0)"/>
       <use xlink:href="#DejaVuSans-32" transform="translate(159.033203 0)"/>
       <use xlink:href="#DejaVuSans-35" transform="translate(222.65625 0)"/>
      </g>
     </g>
    </g>
    <g id="xtick_16">
     <g id="line2d_65">
      <path d="M 851.085132 258.52 
L 851.085132 62.16 
" clip-path="url(#p1c70c04c21)" style="fill: none; stroke: #b0b0b0; stroke-opacity: 0.3; stroke-width: 0.8; stroke-linecap: square"/>
     </g>
     <g id="line2d_66">
      <g>
       <use xlink:href="#m3cb69ab761" x="851.085132" y="258.52" style="stroke: #000000; stroke-width: 0.8"/>
      </g>
     </g>
     <g id="text_38">
      <!-- 0.050 -->
      <g transform="translate(836.77107 273.118437) scale(0.1 -0.1)">
       <use xlink:href="#DejaVuSans-30"/>
       <use xlink:href="#DejaVuSans-2e" transform="translate(63.623047 0)"/>
       <use xlink:href="#DejaVuSans-30" transform="translate(95.410156 0)"/>
       <use xlink:href="#DejaVuSans-35" transform="translate(159.033203 0)"/>
       <use xlink:href="#DejaVuSans-30" transform="translate(222.65625 0)"/>
      </g>
     </g>
    </g>
    <g id="xtick_17">
     <g id="line2d_67">
      <path d="M 890.478439 258.52 
L 890.478439 62.16 
" clip-path="url(#p1c70c04c21)" style="fill: none; stroke: #b0b0b0; stroke-opacity: 0.3; stroke-width: 0.8; stroke-linecap: square"/>
     </g>
     <g id="line2d_68">
      <g>
       <use xlink:href="#m3cb69ab761" x="890.478439" y="258.52" style="stroke: #000000; stroke-width: 0.8"/>
      </g>
     </g>
     <g id="text_39">
      <!-- 0.075 -->
      <g transform="translate(876.164376 273.118437) scale(0.1 -0.1)">
       <defs>
        <path id="DejaVuSans-37" d="M 525 4666 
L 3525 4666 
L 3525 4397 
L 1831 0 
L 1172 0 
L 2766 4134 
L 525 4134 
L 525 4666 
z
" transform="scale(0.015625)"/>
       </defs>
       <use xlink:href="#DejaVuSans-30"/>
       <use xlink:href="#DejaVuSans-2e" transform="translate(63.623047 0)"/>
       <use xlink:href="#DejaVuSans-30" transform="translate(95.410156 0)"/>
       <use xlink:href="#DejaVuSans-37" transform="translate(159.033203 0)"/>
       <use xlink:href="#DejaVuSans-35" transform="translate(222.65625 0)"/>
      </g>
     </g>
    </g>
    <g id="xtick_18">
     <g id="line2d_69">
      <path d="M 929.871746 258.52 
L 929.871746 62.16 
" clip-path="url(#p1c70c04c21)" style="fill: none; stroke: #b0b0b0; stroke-opacity: 0.3; stroke-width: 0.8; stroke-linecap: square"/>
     </g>
     <g id="line2d_70">
      <g>
       <use xlink:href="#m3cb69ab761" x="929.871746" y="258.52" style="stroke: #000000; stroke-width: 0.8"/>
      </g>
     </g>
     <g id="text_40">
      <!-- 0.100 -->
      <g transform="translate(915.557683 273.118437) scale(0.1 -0.1)">
       <use xlink:href="#DejaVuSans-30"/>
       <use xlink:href="#DejaVuSans-2e" transform="translate(63.623047 0)"/>
       <use xlink:href="#DejaVuSans-31" transform="translate(95.410156 0)"/>
       <use xlink:href="#DejaVuSans-30" transform="translate(159.033203 0)"/>
       <use xlink:href="#DejaVuSans-30" transform="translate(222.65625 0)"/>
      </g>
     </g>
    </g>
    <g id="xtick_19">
     <g id="line2d_71">
      <path d="M 969.265052 258.52 
L 969.265052 62.16 
" clip-path="url(#p1c70c04c21)" style="fill: none; stroke: #b0b0b0; stroke-opacity: 0.3; stroke-width: 0.8; stroke-linecap: square"/>
     </g>
     <g id="line2d_72">
      <g>
       <use xlink:href="#m3cb69ab761" x="969.265052" y="258.52" style="stroke: #000000; stroke-width: 0.8"/>
      </g>
     </g>
     <g id="text_41">
      <!-- 0.125 -->
      <g transform="translate(954.95099 273.118437) scale(0.1 -0.1)">
       <use xlink:href="#DejaVuSans-30"/>
       <use xlink:href="#DejaVuSans-2e" transform="translate(63.623047 0)"/>
       <use xlink:href="#DejaVuSans-31" transform="translate(95.410156 0)"/>
       <use xlink:href="#DejaVuSans-32" transform="translate(159.033203 0)"/>
       <use xlink:href="#DejaVuSans-35" transform="translate(222.65625 0)"/>
      </g>
     </g>
    </g>
    <g id="xtick_20">
     <g id="line2d_73">
      <path d="M 1008.658359 258.52 
L 1008.658359 62.16 
" clip-path="url(#p1c70c04c21)" style="fill: none; stroke: #b0b0b0; stroke-opacity: 0.3; stroke-width: 0.8; stroke-linecap: square"/>
     </g>
     <g id="line2d_74">
      <g>
       <use xlink:href="#m3cb69ab761" x="1008.658359" y="258.52" style="stroke: #000000; stroke-width: 0.8"/>
      </g>
     </g>
     <g id="text_42">
      <!-- 0.150 -->
      <g transform="translate(994.344296 273.118437) scale(0.1 -0.1)">
       <use xlink:href="#DejaVuSans-30"/>
       <use xlink:href="#DejaVuSans-2e" transform="translate(63.623047 0)"/>
       <use xlink:href="#DejaVuSans-31" transform="translate(95.410156 0)"/>
       <use xlink:href="#DejaVuSans-35" transform="translate(159.033203 0)"/>
       <use xlink:href="#DejaVuSans-30" transform="translate(222.65625 0)"/>
      </g>
     </g>
    </g>
    <g id="xtick_21">
     <g id="line2d_75">
      <path d="M 1048.051665 258.52 
L 1048.051665 62.16 
" clip-path="url(#p1c70c04c21)" style="fill: none; stroke: #b0b0b0; stroke-opacity: 0.3; stroke-width: 0.8; stroke-linecap: square"/>
     </g>
     <g id="line2d_76">
      <g>
       <use xlink:href="#m3cb69ab761" x="1048.051665" y="258.52" style="stroke: #000000; stroke-width: 0.8"/>
      </g>
     </g>
     <g id="text_43">
      <!-- 0.175 -->
      <g transform="translate(1033.737603 273.118437) scale(0.1 -0.1)">
       <use xlink:href="#DejaVuSans-30"/>
       <use xlink:href="#DejaVuSans-2e" transform="translate(63.623047 0)"/>
       <use xlink:href="#DejaVuSans-31" transform="translate(95.410156 0)"/>
       <use xlink:href="#DejaVuSans-37" transform="translate(159.033203 0)"/>
       <use xlink:href="#DejaVuSans-35" transform="translate(222.65625 0)"/>
      </g>
     </g>
    </g>
    <g id="text_44">
     <!-- Glucose availability (g_avail) -->
     <g transform="translate(831.664579 287.556406) scale(0.11 -0.11)">
      <use xlink:href="#DejaVuSans-47"/>
      <use xlink:href="#DejaVuSans-6c" transform="translate(77.490234 0)"/>
      <use xlink:href="#DejaVuSans-75" transform="translate(105.273438 0)"/>
      <use xlink:href="#DejaVuSans-63" transform="translate(168.652344 0)"/>
      <use xlink:href="#DejaVuSans-6f" transform="translate(223.632812 0)"/>
      <use xlink:href="#DejaVuSans-73" transform="translate(284.814453 0)"/>
      <use xlink:href="#DejaVuSans-65" transform="translate(336.914062 0)"/>
      <use xlink:href="#DejaVuSans-20" transform="translate(398.4375 0)"/>
      <use xlink:href="#DejaVuSans-61" transform="translate(430.224609 0)"/>
      <use xlink:href="#DejaVuSans-76" transform="translate(491.503906 0)"/>
      <use xlink:href="#DejaVuSans-61" transform="translate(550.683594 0)"/>
      <use xlink:href="#DejaVuSans-69" transform="translate(611.962891 0)"/>
      <use xlink:href="#DejaVuSans-6c" transform="translate(639.746094 0)"/>
      <use xlink:href="#DejaVuSans-61" transform="translate(667.529297 0)"/>
      <use xlink:href="#DejaVuSans-62" transform="translate(728.808594 0)"/>
      <use xlink:href="#DejaVuSans-69" transform="translate(792.285156 0)"/>
      <use xlink:href="#DejaVuSans-6c" transform="translate(820.068359 0)"/>
      <use xlink:href="#DejaVuSans-69" transform="translate(847.851562 0)"/>
      <use xlink:href="#DejaVuSans-74" transform="translate(875.634766 0)"/>
      <use xlink:href="#DejaVuSans-79" transform="translate(914.84375 0)"/>
      <use xlink:href="#DejaVuSans-20" transform="translate(974.023438 0)"/>
      <use xlink:href="#DejaVuSans-28" transform="translate(1005.810547 0)"/>
      <use xlink:href="#DejaVuSans-67" transform="translate(1044.824219 0)"/>
      <use xlink:href="#DejaVuSans-5f" transform="translate(1108.300781 0)"/>
      <use xlink:href="#DejaVuSans-61" transform="translate(1158.300781 0)"/>
      <use xlink:href="#DejaVuSans-76" transform="translate(1219.580078 0)"/>
      <use xlink:href="#DejaVuSans-61" transform="translate(1278.759766 0)"/>
      <use xlink:href="#DejaVuSans-69" transform="translate(1340.039062 0)"/>
      <use xlink:href="#DejaVuSans-6c" transform="translate(1367.822266 0)"/>
      <use xlink:href="#DejaVuSans-29" transform="translate(1395.605469 0)"/>
     </g>
    </g>
   </g>
   <g id="matplotlib.axis_6">
    <g id="ytick_13">
     <g id="line2d_77">
      <path d="M 758.473123 249.594545 
L 1062.666503 249.594545 
" clip-path="url(#p1c70c04c21)" style="fill: none; stroke: #b0b0b0; stroke-opacity: 0.3; stroke-width: 0.8; stroke-linecap: square"/>
     </g>
     <g id="line2d_78">
      <g>
       <use xlink:href="#m91f74bae37" x="758.473123" y="249.594545" style="stroke: #000000; stroke-width: 0.8"/>
      </g>
     </g>
     <g id="text_45">
      <!-- 0.0 -->
      <g transform="translate(735.569998 253.393764) scale(0.1 -0.1)">
       <use xlink:href="#DejaVuSans-30"/>
       <use xlink:href="#DejaVuSans-2e" transform="translate(63.623047 0)"/>
       <use xlink:href="#DejaVuSans-30" transform="translate(95.410156 0)"/>
      </g>
     </g>
    </g>
    <g id="ytick_14">
     <g id="line2d_79">
      <path d="M 758.473123 213.892727 
L 1062.666503 213.892727 
" clip-path="url(#p1c70c04c21)" style="fill: none; stroke: #b0b0b0; stroke-opacity: 0.3; stroke-width: 0.8; stroke-linecap: square"/>
     </g>
     <g id="line2d_80">
      <g>
       <use xlink:href="#m91f74bae37" x="758.473123" y="213.892727" style="stroke: #000000; stroke-width: 0.8"/>
      </g>
     </g>
     <g id="text_46">
      <!-- 0.2 -->
      <g transform="translate(735.569998 217.691946) scale(0.1 -0.1)">
       <use xlink:href="#DejaVuSans-30"/>
       <use xlink:href="#DejaVuSans-2e" transform="translate(63.623047 0)"/>
       <use xlink:href="#DejaVuSans-32" transform="translate(95.410156 0)"/>
      </g>
     </g>
    </g>
    <g id="ytick_15">
     <g id="line2d_81">
      <path d="M 758.473123 178.190909 
L 1062.666503 178.190909 
" clip-path="url(#p1c70c04c21)" style="fill: none; stroke: #b0b0b0; stroke-opacity: 0.3; stroke-width: 0.8; stroke-linecap: square"/>
     </g>
     <g id="line2d_82">
      <g>
       <use xlink:href="#m91f74bae37" x="758.473123" y="178.190909" style="stroke: #000000; stroke-width: 0.8"/>
      </g>
     </g>
     <g id="text_47">
      <!-- 0.4 -->
      <g transform="translate(735.569998 181.990128) scale(0.1 -0.1)">
       <use xlink:href="#DejaVuSans-30"/>
       <use xlink:href="#DejaVuSans-2e" transform="translate(63.623047 0)"/>
       <use xlink:href="#DejaVuSans-34" transform="translate(95.410156 0)"/>
      </g>
     </g>
    </g>
    <g id="ytick_16">
     <g id="line2d_83">
      <path d="M 758.473123 142.489091 
L 1062.666503 142.489091 
" clip-path="url(#p1c70c04c21)" style="fill: none; stroke: #b0b0b0; stroke-opacity: 0.3; stroke-width: 0.8; stroke-linecap: square"/>
     </g>
     <g id="line2d_84">
      <g>
       <use xlink:href="#m91f74bae37" x="758.473123" y="142.489091" style="stroke: #000000; stroke-width: 0.8"/>
      </g>
     </g>
     <g id="text_48">
      <!-- 0.6 -->
      <g transform="translate(735.569998 146.28831) scale(0.1 -0.1)">
       <use xlink:href="#DejaVuSans-30"/>
       <use xlink:href="#DejaVuSans-2e" transform="translate(63.623047 0)"/>
       <use xlink:href="#DejaVuSans-36" transform="translate(95.410156 0)"/>
      </g>
     </g>
    </g>
    <g id="ytick_17">
     <g id="line2d_85">
      <path d="M 758.473123 106.787273 
L 1062.666503 106.787273 
" clip-path="url(#p1c70c04c21)" style="fill: none; stroke: #b0b0b0; stroke-opacity: 0.3; stroke-width: 0.8; stroke-linecap: square"/>
     </g>
     <g id="line2d_86">
      <g>
       <use xlink:href="#m91f74bae37" x="758.473123" y="106.787273" style="stroke: #000000; stroke-width: 0.8"/>
      </g>
     </g>
     <g id="text_49">
      <!-- 0.8 -->
      <g transform="translate(735.569998 110.586491) scale(0.1 -0.1)">
       <use xlink:href="#DejaVuSans-30"/>
       <use xlink:href="#DejaVuSans-2e" transform="translate(63.623047 0)"/>
       <use xlink:href="#DejaVuSans-38" transform="translate(95.410156 0)"/>
      </g>
     </g>
    </g>
    <g id="ytick_18">
     <g id="line2d_87">
      <path d="M 758.473123 71.085455 
L 1062.666503 71.085455 
" clip-path="url(#p1c70c04c21)" style="fill: none; stroke: #b0b0b0; stroke-opacity: 0.3; stroke-width: 0.8; stroke-linecap: square"/>
     </g>
     <g id="line2d_88">
      <g>
       <use xlink:href="#m91f74bae37" x="758.473123" y="71.085455" style="stroke: #000000; stroke-width: 0.8"/>
      </g>
     </g>
     <g id="text_50">
      <!-- 1.0 -->
      <g transform="translate(735.569998 74.884673) scale(0.1 -0.1)">
       <use xlink:href="#DejaVuSans-31"/>
       <use xlink:href="#DejaVuSans-2e" transform="translate(63.623047 0)"/>
       <use xlink:href="#DejaVuSans-30" transform="translate(95.410156 0)"/>
      </g>
     </g>
    </g>
    <g id="text_51">
     <!-- Fermentative ATP fraction -->
     <g transform="translate(729.282342 231.461875) rotate(-90) scale(0.11 -0.11)">
      <use xlink:href="#DejaVuSans-46"/>
      <use xlink:href="#DejaVuSans-65" transform="translate(52.019531 0)"/>
      <use xlink:href="#DejaVuSans-72" transform="translate(113.542969 0)"/>
      <use xlink:href="#DejaVuSans-6d" transform="translate(152.90625 0)"/>
      <use xlink:href="#DejaVuSans-65" transform="translate(250.318359 0)"/>
      <use xlink:href="#DejaVuSans-6e" transform="translate(311.841797 0)"/>
      <use xlink:href="#DejaVuSans-74" transform="translate(375.220703 0)"/>
      <use xlink:href="#DejaVuSans-61" transform="translate(414.429688 0)"/>
      <use xlink:href="#DejaVuSans-74" transform="translate(475.708984 0)"/>
      <use xlink:href="#DejaVuSans-69" transform="translate(514.917969 0)"/>
      <use xlink:href="#DejaVuSans-76" transform="translate(542.701172 0)"/>
      <use xlink:href="#DejaVuSans-65" transform="translate(601.880859 0)"/>
      <use xlink:href="#DejaVuSans-20" transform="translate(663.404297 0)"/>
      <use xlink:href="#DejaVuSans-41" transform="translate(695.191406 0)"/>
      <use xlink:href="#DejaVuSans-54" transform="translate(755.849609 0)"/>
      <use xlink:href="#DejaVuSans-50" transform="translate(816.933594 0)"/>
      <use xlink:href="#DejaVuSans-20" transform="translate(877.236328 0)"/>
      <use xlink:href="#DejaVuSans-66" transform="translate(909.023438 0)"/>
      <use xlink:href="#DejaVuSans-72" transform="translate(944.228516 0)"/>
      <use xlink:href="#DejaVuSans-61" transform="translate(985.341797 0)"/>
      <use xlink:href="#DejaVuSans-63" transform="translate(1046.621094 0)"/>
      <use xlink:href="#DejaVuSans-74" transform="translate(1101.601562 0)"/>
      <use xlink:href="#DejaVuSans-69" transform="translate(1140.810547 0)"/>
      <use xlink:href="#DejaVuSans-6f" transform="translate(1168.59375 0)"/>
      <use xlink:href="#DejaVuSans-6e" transform="translate(1229.775391 0)"/>
     </g>
    </g>
   </g>
   <g id="line2d_89">
    <path d="M 772.300095 249.594545 
L 773.224976 249.594545 
L 774.149857 242.702318 
L 775.999619 226.813888 
L 777.849381 213.194092 
L 779.699143 201.389415 
L 781.548905 191.059673 
L 783.398667 181.944692 
L 785.24843 173.842089 
L 787.098192 166.592076 
L 788.947954 160.066808 
L 790.797716 154.162786 
L 792.647478 148.795321 
L 795.422121 141.600378 
L 798.196764 135.268584 
L 800.971408 129.653407 
L 803.746051 124.639704 
L 806.520694 120.135747 
L 809.295337 116.067558 
L 812.06998 112.374813 
L 814.844623 109.007831 
L 817.619267 105.925326 
L 821.318791 102.198848 
L 825.018315 98.849667 
L 828.717839 95.823244 
L 832.417364 93.075068 
L 836.116888 90.568452 
L 840.741293 87.728884 
L 845.365698 85.170421 
L 849.990104 82.853291 
L 855.53939 80.34579 
L 861.088676 78.09326 
L 867.562844 75.738583 
L 874.037011 73.633619 
L 881.43606 71.48567 
L 883.285822 71.085455 
L 1048.839532 71.085455 
L 1048.839532 71.085455 
" clip-path="url(#p1c70c04c21)" style="fill: none; stroke: #2c3e50; stroke-width: 2; stroke-linecap: square"/>
   </g>
   <g id="line2d_90">
    <path d="M 772.300095 249.594545 
L 773.224976 249.594545 
L 774.149857 242.702318 
L 775.999619 226.813888 
L 777.849381 213.194092 
L 779.699143 201.389415 
L 781.548905 191.059673 
L 783.398667 181.944692 
L 785.24843 173.842089 
L 787.098192 166.592076 
L 788.947954 160.066808 
L 790.797716 154.162786 
L 792.647478 148.795321 
L 795.422121 141.600378 
L 798.196764 135.268584 
L 800.971408 129.653407 
L 803.746051 124.639704 
L 806.520694 120.135747 
L 809.295337 116.067558 
L 812.06998 112.374813 
L 814.844623 109.007831 
L 817.619267 105.925326 
L 821.318791 102.198848 
L 825.018315 98.849667 
L 828.717839 95.823244 
L 832.417364 93.075068 
L 836.116888 90.568452 
L 840.741293 87.728884 
L 845.365698 85.170421 
L 849.990104 82.853291 
L 855.53939 80.34579 
L 861.088676 78.09326 
L 867.562844 75.738583 
L 874.037011 73.633619 
L 881.43606 71.48567 
L 883.285822 71.085455 
L 1048.839532 71.085455 
L 1048.839532 71.085455 
" clip-path="url(#p1c70c04c21)" style="fill: none; stroke-dasharray: 7.4,3.2; stroke-dashoffset: 0; stroke: #c0392b; stroke-width: 2"/>
   </g>
   <g id="line2d_91">
    <path d="M 758.473123 160.34 
L 1062.666503 160.34 
" clip-path="url(#p1c70c04c21)" style="fill: none; stroke-dasharray: 0.8,1.32; stroke-dashoffset: 0; stroke: #808080; stroke-opacity: 0.5; stroke-width: 0.8"/>
   </g>
   <g id="patch_15">
    <path d="M 758.473123 258.52 
L 758.473123 62.16 
" style="fill: none; stroke: #000000; stroke-width: 0.8; stroke-linejoin: miter; stroke-linecap: square"/>
   </g>
   <g id="patch_16">
    <path d="M 1062.666503 258.52 
L 1062.666503 62.16 
" style="fill: none; stroke: #000000; stroke-width: 0.8; stroke-linejoin: miter; stroke-linecap: square"/>
   </g>
   <g id="patch_17">
    <path d="M 758.473123 258.52 
L 1062.666503 258.52 
" style="fill: none; stroke: #000000; stroke-width: 0.8; stroke-linejoin: miter; stroke-linecap: square"/>
   </g>
   <g id="patch_18">
    <path d="M 758.473123 62.16 
L 1062.666503 62.16 
" style="fill: none; stroke: #000000; stroke-width: 0.8; stroke-linejoin: miter; stroke-linecap: square"/>
   </g>
   <g id="text_52">
    <!-- Mammalian -->
    <g transform="translate(875.537313 56.16) scale(0.12 -0.12)">
     <use xlink:href="#DejaVuSans-4d"/>
     <use xlink:href="#DejaVuSans-61" transform="translate(86.279297 0)"/>
     <use xlink:href="#DejaVuSans-6d" transform="translate(147.558594 0)"/>
     <use xlink:href="#DejaVuSans-6d" transform="translate(244.970703 0)"/>
     <use xlink:href="#DejaVuSans-61" transform="translate(342.382812 0)"/>
     <use xlink:href="#DejaVuSans-6c" transform="translate(403.662109 0)"/>
     <use xlink:href="#DejaVuSans-69" transform="translate(431.445312 0)"/>
     <use xlink:href="#DejaVuSans-61" transform="translate(459.228516 0)"/>
     <use xlink:href="#DejaVuSans-6e" transform="translate(520.507812 0)"/>
    </g>
   </g>
   <g id="legend_3">
    <g id="patch_19">
     <path d="M 933.875097 254.02 
L 1056.366503 254.02 
Q 1058.166503 254.02 1058.166503 252.22 
L 1058.166503 226.699375 
Q 1058.166503 224.899375 1056.366503 224.899375 
L 933.875097 224.899375 
Q 932.075097 224.899375 932.075097 226.699375 
L 932.075097 252.22 
Q 932.075097 254.02 933.875097 254.02 
z
" style="fill: #ffffff; opacity: 0.8; stroke: #cccccc; stroke-linejoin: miter"/>
    </g>
    <g id="line2d_92">
     <path d="M 935.675097 232.187969 
L 944.675097 232.187969 
L 953.675097 232.187969 
" style="fill: none; stroke: #2c3e50; stroke-width: 2; stroke-linecap: square"/>
    </g>
    <g id="text_53">
     <!-- Model A (Shen LP) -->
     <g transform="translate(960.875097 235.337969) scale(0.09 -0.09)">
      <use xlink:href="#DejaVuSans-4d"/>
      <use xlink:href="#DejaVuSans-6f" transform="translate(86.279297 0)"/>
      <use xlink:href="#DejaVuSans-64" transform="translate(147.460938 0)"/>
      <use xlink:href="#DejaVuSans-65" transform="translate(210.9375 0)"/>
      <use xlink:href="#DejaVuSans-6c" transform="translate(272.460938 0)"/>
      <use xlink:href="#DejaVuSans-20" transform="translate(300.244141 0)"/>
      <use xlink:href="#DejaVuSans-41" transform="translate(332.03125 0)"/>
      <use xlink:href="#DejaVuSans-20" transform="translate(400.439453 0)"/>
      <use xlink:href="#DejaVuSans-28" transform="translate(432.226562 0)"/>
      <use xlink:href="#DejaVuSans-53" transform="translate(471.240234 0)"/>
      <use xlink:href="#DejaVuSans-68" transform="translate(534.716797 0)"/>
      <use xlink:href="#DejaVuSans-65" transform="translate(598.095703 0)"/>
      <use xlink:href="#DejaVuSans-6e" transform="translate(659.619141 0)"/>
      <use xlink:href="#DejaVuSans-20" transform="translate(722.998047 0)"/>
      <use xlink:href="#DejaVuSans-4c" transform="translate(754.785156 0)"/>
      <use xlink:href="#DejaVuSans-50" transform="translate(810.498047 0)"/>
      <use xlink:href="#DejaVuSans-29" transform="translate(870.800781 0)"/>
     </g>
    </g>
    <g id="line2d_93">
     <path d="M 935.675097 245.398281 
L 944.675097 245.398281 
L 953.675097 245.398281 
" style="fill: none; stroke-dasharray: 7.4,3.2; stroke-dashoffset: 0; stroke: #c0392b; stroke-width: 2"/>
    </g>
    <g id="text_54">
     <!-- Model B (Kukurugya) -->
     <g transform="translate(960.875097 248.548281) scale(0.09 -0.09)">
      <use xlink:href="#DejaVuSans-4d"/>
      <use xlink:href="#DejaVuSans-6f" transform="translate(86.279297 0)"/>
      <use xlink:href="#DejaVuSans-64" transform="translate(147.460938 0)"/>
      <use xlink:href="#DejaVuSans-65" transform="translate(210.9375 0)"/>
      <use xlink:href="#DejaVuSans-6c" transform="translate(272.460938 0)"/>
      <use xlink:href="#DejaVuSans-20" transform="translate(300.244141 0)"/>
      <use xlink:href="#DejaVuSans-42" transform="translate(332.03125 0)"/>
      <use xlink:href="#DejaVuSans-20" transform="translate(400.634766 0)"/>
      <use xlink:href="#DejaVuSans-28" transform="translate(432.421875 0)"/>
      <use xlink:href="#DejaVuSans-4b" transform="translate(471.435547 0)"/>
      <use xlink:href="#DejaVuSans-75" transform="translate(532.011719 0)"/>
      <use xlink:href="#DejaVuSans-6b" transform="translate(595.390625 0)"/>
      <use xlink:href="#DejaVuSans-75" transform="translate(650.175781 0)"/>
      <use xlink:href="#DejaVuSans-72" transform="translate(713.554688 0)"/>
      <use xlink:href="#DejaVuSans-75" transform="translate(754.667969 0)"/>
      <use xlink:href="#DejaVuSans-67" transform="translate(818.046875 0)"/>
      <use xlink:href="#DejaVuSans-79" transform="translate(881.523438 0)"/>
      <use xlink:href="#DejaVuSans-61" transform="translate(940.703125 0)"/>
      <use xlink:href="#DejaVuSans-29" transform="translate(1001.982422 0)"/>
     </g>
    </g>
   </g>
  </g>
  <g id="text_55">
   <!-- E1: Model Overlay — Fermentative Fraction vs. Glucose Availability -->
   <g transform="translate(318.006094 17.077969) scale(0.13 -0.13)">
    <defs>
     <path id="DejaVuSans-3a" d="M 750 794 
L 1409 794 
L 1409 0 
L 750 0 
L 750 794 
z
M 750 3309 
L 1409 3309 
L 1409 2516 
L 750 2516 
L 750 3309 
z
" transform="scale(0.015625)"/>
     <path id="DejaVuSans-4f" d="M 2522 4238 
Q 1834 4238 1429 3725 
Q 1025 3213 1025 2328 
Q 1025 1447 1429 934 
Q 1834 422 2522 422 
Q 3209 422 3611 934 
Q 4013 1447 4013 2328 
Q 4013 3213 3611 3725 
Q 3209 4238 2522 4238 
z
M 2522 4750 
Q 3503 4750 4090 4092 
Q 4678 3434 4678 2328 
Q 4678 1225 4090 567 
Q 3503 -91 2522 -91 
Q 1538 -91 948 565 
Q 359 1222 359 2328 
Q 359 3434 948 4092 
Q 1538 4750 2522 4750 
z
" transform="scale(0.015625)"/>
     <path id="DejaVuSans-2014" d="M 313 1978 
L 6088 1978 
L 6088 1528 
L 313 1528 
L 313 1978 
z
" transform="scale(0.015625)"/>
    </defs>
    <use xlink:href="#DejaVuSans-45"/>
    <use xlink:href="#DejaVuSans-31" transform="translate(63.183594 0)"/>
    <use xlink:href="#DejaVuSans-3a" transform="translate(126.806641 0)"/>
    <use xlink:href="#DejaVuSans-20" transform="translate(160.498047 0)"/>
    <use xlink:href="#DejaVuSans-4d" transform="translate(192.285156 0)"/>
    <use xlink:href="#DejaVuSans-6f" transform="translate(278.564453 0)"/>
    <use xlink:href="#DejaVuSans-64" transform="translate(339.746094 0)"/>
    <use xlink:href="#DejaVuSans-65" transform="translate(403.222656 0)"/>
    <use xlink:href="#DejaVuSans-6c" transform="translate(464.746094 0)"/>
    <use xlink:href="#DejaVuSans-20" transform="translate(492.529297 0)"/>
    <use xlink:href="#DejaVuSans-4f" transform="translate(524.316406 0)"/>
    <use xlink:href="#DejaVuSans-76" transform="translate(603.027344 0)"/>
    <use xlink:href="#DejaVuSans-65" transform="translate(662.207031 0)"/>
    <use xlink:href="#DejaVuSans-72" transform="translate(723.730469 0)"/>
    <use xlink:href="#DejaVuSans-6c" transform="translate(764.84375 0)"/>
    <use xlink:href="#DejaVuSans-61" transform="translate(792.626953 0)"/>
    <use xlink:href="#DejaVuSans-79" transform="translate(853.90625 0)"/>
    <use xlink:href="#DejaVuSans-20" transform="translate(913.085938 0)"/>
    <use xlink:href="#DejaVuSans-2014" transform="translate(944.873047 0)"/>
    <use xlink:href="#DejaVuSans-20" transform="translate(1044.873047 0)"/>
    <use xlink:href="#DejaVuSans-46" transform="translate(1076.660156 0)"/>
    <use xlink:href="#DejaVuSans-65" transform="translate(1128.679688 0)"/>
    <use xlink:href="#DejaVuSans-72" transform="translate(1190.203125 0)"/>
    <use xlink:href="#DejaVuSans-6d" transform="translate(1229.566406 0)"/>
    <use xlink:href="#DejaVuSans-65" transform="translate(1326.978516 0)"/>
    <use xlink:href="#DejaVuSans-6e" transform="translate(1388.501953 0)"/>
    <use xlink:href="#DejaVuSans-74" transform="translate(1451.880859 0)"/>
    <use xlink:href="#DejaVuSans-61" transform="translate(1491.089844 0)"/>
    <use xlink:href="#DejaVuSans-74" transform="translate(1552.369141 0)"/>
    <use xlink:href="#DejaVuSans-69" transform="translate(1591.578125 0)"/>
    <use xlink:href="#DejaVuSans-76" transform="translate(1619.361328 0)"/>
    <use xlink:href="#DejaVuSans-65" transform="translate(1678.541016 0)"/>
    <use xlink:href="#DejaVuSans-20" transform="translate(1740.064453 0)"/>
    <use xlink:href="#DejaVuSans-46" transform="translate(1771.851562 0)"/>
    <use xlink:href="#DejaVuSans-72" transform="translate(1822.121094 0)"/>
    <use xlink:href="#DejaVuSans-61" transform="translate(1863.234375 0)"/>
    <use xlink:href="#DejaVuSans-63" transform="translate(1924.513672 0)"/>
    <use xlink:href="#DejaVuSans-74" transform="translate(1979.494141 0)"/>
    <use xlink:href="#DejaVuSans-69" transform="translate(2018.703125 0)"/>
    <use xlink:href="#DejaVuSans-6f" transform="translate(2046.486328 0)"/>
    <use xlink:href="#DejaVuSans-6e" transform="translate(2107.667969 0)"/>
    <use xlink:href="#DejaVuSans-20" transform="translate(2171.046875 0)"/>
    <use xlink:href="#DejaVuSans-76" transform="translate(2202.833984 0)"/>
    <use xlink:href="#DejaVuSans-73" transform="translate(2262.013672 0)"/>
    <use xlink:href="#DejaVuSans-2e" transform="translate(2314.113281 0)"/>
    <use xlink:href="#DejaVuSans-20" transform="translate(2345.900391 0)"/>
    <use xlink:href="#DejaVuSans-47" transform="translate(2377.6875 0)"/>
    <use xlink:href="#DejaVuSans-6c" transform="translate(2455.177734 0)"/>
    <use xlink:href="#DejaVuSans-75" transform="translate(2482.960938 0)"/>
    <use xlink:href="#DejaVuSans-63" transform="translate(2546.339844 0)"/>
    <use xlink:href="#DejaVuSans-6f" transform="translate(2601.320312 0)"/>
    <use xlink:href="#DejaVuSans-73" transform="translate(2662.501953 0)"/>
    <use xlink:href="#DejaVuSans-65" transform="translate(2714.601562 0)"/>
    <use xlink:href="#DejaVuSans-20" transform="translate(2776.125 0)"/>
    <use xlink:href="#DejaVuSans-41" transform="translate(2807.912109 0)"/>
    <use xlink:href="#DejaVuSans-76" transform="translate(2870.445312 0)"/>
    <use xlink:href="#DejaVuSans-61" transform="translate(2929.625 0)"/>
    <use xlink:href="#DejaVuSans-69" transform="translate(2990.904297 0)"/>
    <use xlink:href="#DejaVuSans-6c" transform="translate(3018.6875 0)"/>
    <use xlink:href="#DejaVuSans-61" transform="translate(3046.470703 0)"/>
    <use xlink:href="#DejaVuSans-62" transform="translate(3107.75 0)"/>
    <use xlink:href="#DejaVuSans-69" transform="translate(3171.226562 0)"/>
    <use xlink:href="#DejaVuSans-6c" transform="translate(3199.009766 0)"/>
    <use xlink:href="#DejaVuSans-69" transform="translate(3226.792969 0)"/>
    <use xlink:href="#DejaVuSans-74" transform="translate(3254.576172 0)"/>
    <use xlink:href="#DejaVuSans-79" transform="translate(3293.785156 0)"/>
   </g>
  </g>
 </g>
 <defs>
  <clipPath id="p6da0c02824">
   <rect x="44.749063" y="62.16" width="304.193381" height="196.36"/>
  </clipPath>
  <clipPath id="p33cf27bc3c">
   <rect x="401.611093" y="62.16" width="304.193381" height="196.36"/>
  </clipPath>
  <clipPath id="p1c70c04c21">
   <rect x="758.473123" y="62.16" width="304.193381" height="196.36"/>
  </clipPath>
 </defs>
</svg>
