<?xml version="1.0" encoding="utf-8" standalone="no"?>
<!DOCTYPE svg PUBLIC "-//W3C//DTD SVG 1.1//EN"
  "http://www.w3.org/Graphics/SVG/1.1/DTD/svg11.dtd">
<svg xmlns:xlink="http://www.w3.org/1999/xlink" width="783.963125pt" height="333.764062pt" viewBox="0 0 783.963125 333.764062" xmlns="http://www.w3.org/2000/svg" version="1.1">
 <metadata>
  <rdf:RDF xmlns:dc="http://purl.org/dc/elements/1.1/" xmlns:cc="http://creativecommons.org/ns#" xmlns:rdf="http://www.w3.org/1999/02/22-rdf-syntax-ns#">
   <cc:Work>
    <dc:type rdf:resource="http://purl.org/dc/dcmitype/StillImage"/>
    <dc:date>2026-05-25T22:36:28.187319</dc:date>
    <dc:format>image/svg+xml</dc:format>
    <dc:creator>
     <cc:Agent>
      <dc:title>Matplotlib v3.10.9, https://matplotlib.org/</dc:title>
     </cc:Agent>
    </dc:creator>
   </cc:Work>
  </rdf:RDF>
 </metadata>
 <defs>
  <style type="text/css">*{stroke-linejoin: round; stroke-linecap: butt}</style>
 </defs>
 <g id="figure_1">
  <g id="patch_1">
   <path d="M 0 333.764062 
L 783.963125 333.764062 
L 783.963125 -0 
L 0 -0 
z
" style="fill: #ffffff"/>
  </g>
  <g id="axes_1">
   <g id="patch_2">
    <path d="M 44.749063 295.24 
L 346.989063 295.24 
L 346.989063 61.92 
L 44.749063 61.92 
z
" style="fill: #ffffff"/>
   </g>
   <g id="matplotlib.axis_1">
    <g id="xtick_1">
     <g id="line2d_1">
      <path d="M 45.799746 295.24 
L 45.799746 61.92 
" clip-path="url(#p6c3c0d9091)" style="fill: none; stroke: #b0b0b0; stroke-opacity: 0.3; stroke-width: 0.8; stroke-linecap: square"/>
     </g>
     <g id="line2d_2">
      <defs>
       <path id="m53484a7da6" d="M 0 0 
L 0 3.5 
" style="stroke: #000000; stroke-width: 0.8"/>
      </defs>
      <g>
       <use xlink:href="#m53484a7da6" x="45.799746" y="295.24" style="stroke: #000000; stroke-width: 0.8"/>
      </g>
     </g>
     <g id="text_1">
      <!-- 0 -->
      <g transform="translate(42.618496 309.838437) scale(0.1 -0.1)">
       <defs>
        <path id="DejaVuSans-30" d="M 2034 4250 
Q 1547 4250 1301 3770 
Q 1056 3291 1056 2328 
Q 1056 1369 1301 889 
Q 1547 409 2034 409 
Q 2525 409 2770 889 
Q 3016 1369 3016 2328 
Q 3016 3291 2770 3770 
Q 2525 4250 2034 4250 
z
M 2034 4750 
Q 2819 4750 3233 4129 
Q 3647 3509 3647 2328 
Q 3647 1150 3233 529 
Q 2819 -91 2034 -91 
Q 1250 -91 836 529 
Q 422 1150 422 2328 
Q 422 3509 836 4129 
Q 1250 4750 2034 4750 
z
" transform="scale(0.015625)"/>
       </defs>
       <use xlink:href="#DejaVuSans-30"/>
      </g>
     </g>
    </g>
    <g id="xtick_2">
     <g id="line2d_3">
      <path d="M 103.289973 295.24 
L 103.289973 61.92 
" clip-path="url(#p6c3c0d9091)" style="fill: none; stroke: #b0b0b0; stroke-opacity: 0.3; stroke-width: 0.8; stroke-linecap: square"/>
     </g>
     <g id="line2d_4">
      <g>
       <use xlink:href="#m53484a7da6" x="103.289973" y="295.24" style="stroke: #000000; stroke-width: 0.8"/>
      </g>
     </g>
     <g id="text_2">
      <!-- 10000 -->
      <g transform="translate(87.383723 309.838437) scale(0.1 -0.1)">
       <defs>
        <path id="DejaVuSans-31" d="M 794 531 
L 1825 531 
L 1825 4091 
L 703 3866 
L 703 4441 
L 1819 4666 
L 2450 4666 
L 2450 531 
L 3481 531 
L 3481 0 
L 794 0 
L 794 531 
z
" transform="scale(0.015625)"/>
       </defs>
       <use xlink:href="#DejaVuSans-31"/>
       <use xlink:href="#DejaVuSans-30" transform="translate(63.623047 0)"/>
       <use xlink:href="#DejaVuSans-30" transform="translate(127.246094 0)"/>
       <use xlink:href="#DejaVuSans-30" transform="translate(190.869141 0)"/>
       <use xlink:href="#DejaVuSans-30" transform="translate(254.492188 0)"/>
      </g>
     </g>
    </g>
    <g id="xtick_3">
     <g id="line2d_5">
      <path d="M 160.7802 295.24 
L 160.7802 61.92 
" clip-path="url(#p6c3c0d9091)" style="fill: none; stroke: #b0b0b0; stroke-opacity: 0.3; stroke-width: 0.8; stroke-linecap: square"/>
     </g>
     <g id="line2d_6">
      <g>
       <use xlink:href="#m53484a7da6" x="160.7802" y="295.24" style="stroke: #000000; stroke-width: 0.8"/>
      </g>
     </g>
     <g id="text_3">
      <!-- 20000 -->
      <g transform="translate(144.87395 309.838437) scale(0.1 -0.1)">
       <defs>
        <path id="DejaVuSans-32" d="M 1228 531 
L 3431 531 
L 3431 0 
L 469 0 
L 469 531 
Q 828 903 1448 1529 
Q 2069 2156 2228 2338 
Q 2531 2678 2651 2914 
Q 2772 3150 2772 3378 
Q 2772 3750 2511 3984 
Q 2250 4219 1831 4219 
Q 1534 4219 1204 4116 
Q 875 4013 500 3803 
L 500 4441 
Q 881 4594 1212 4672 
Q 1544 4750 1819 4750 
Q 2544 4750 2975 4387 
Q 3406 4025 3406 3419 
Q 3406 3131 3298 2873 
Q 3191 2616 2906 2266 
Q 2828 2175 2409 1742 
Q 1991 1309 1228 531 
z
" transform="scale(0.015625)"/>
       </defs>
       <use xlink:href="#DejaVuSans-32"/>
       <use xlink:href="#DejaVuSans-30" transform="translate(63.623047 0)"/>
       <use xlink:href="#DejaVuSans-30" transform="translate(127.246094 0)"/>
       <use xlink:href="#DejaVuSans-30" transform="translate(190.869141 0)"/>
       <use xlink:href="#DejaVuSans-30" transform="translate(254.492188 0)"/>
      </g>
     </g>
    </g>
    <g id="xtick_4">
     <g id="line2d_7">
      <path d="M 218.270427 295.24 
L 218.270427 61.92 
" clip-path="url(#p6c3c0d9091)" style="fill: none; stroke: #b0b0b0; stroke-opacity: 0.3; stroke-width: 0.8; stroke-linecap: square"/>
     </g>
     <g id="line2d_8">
      <g>
       <use xlink:href="#m53484a7da6" x="218.270427" y="295.24" style="stroke: #000000; stroke-width: 0.8"/>
      </g>
     </g>
     <g id="text_4">
      <!-- 30000 -->
      <g transform="translate(202.364177 309.838437) scale(0.1 -0.1)">
       <defs>
        <path id="DejaVuSans-33" d="M 2597 2516 
Q 3050 2419 3304 2112 
Q 3559 1806 3559 1356 
Q 3559 666 3084 287 
Q 2609 -91 1734 -91 
Q 1441 -91 1130 -33 
Q 819 25 488 141 
L 488 750 
Q 750 597 1062 519 
Q 1375 441 1716 441 
Q 2309 441 2620 675 
Q 2931 909 2931 1356 
Q 2931 1769 2642 2001 
Q 2353 2234 1838 2234 
L 1294 2234 
L 1294 2753 
L 1863 2753 
Q 2328 2753 2575 2939 
Q 2822 3125 2822 3475 
Q 2822 3834 2567 4026 
Q 2313 4219 1838 4219 
Q 1578 4219 1281 4162 
Q 984 4106 628 3988 
L 628 4550 
Q 988 4650 1302 4700 
Q 1616 4750 1894 4750 
Q 2613 4750 3031 4423 
Q 3450 4097 3450 3541 
Q 3450 3153 3228 2886 
Q 3006 2619 2597 2516 
z
" transform="scale(0.015625)"/>
       </defs>
       <use xlink:href="#DejaVuSans-33"/>
       <use xlink:href="#DejaVuSans-30" transform="translate(63.623047 0)"/>
       <use xlink:href="#DejaVuSans-30" transform="translate(127.246094 0)"/>
       <use xlink:href="#DejaVuSans-30" transform="translate(190.869141 0)"/>
       <use xlink:href="#DejaVuSans-30" transform="translate(254.492188 0)"/>
      </g>
     </g>
    </g>
    <g id="xtick_5">
     <g id="line2d_9">
      <path d="M 275.760654 295.24 
L 275.760654 61.92 
" clip-path="url(#p6c3c0d9091)" style="fill: none; stroke: #b0b0b0; stroke-opacity: 0.3; stroke-width: 0.8; stroke-linecap: square"/>
     </g>
     <g id="line2d_10">
      <g>
       <use xlink:href="#m53484a7da6" x="275.760654" y="295.24" style="stroke: #000000; stroke-width: 0.8"/>
      </g>
     </g>
     <g id="text_5">
      <!-- 40000 -->
      <g transform="translate(259.854404 309.838437) scale(0.1 -0.1)">
       <defs>
        <path id="DejaVuSans-34" d="M 2419 4116 
L 825 1625 
L 2419 1625 
L 2419 4116 
z
M 2253 4666 
L 3047 4666 
L 3047 1625 
L 3713 1625 
L 3713 1100 
L 3047 1100 
L 3047 0 
L 2419 0 
L 2419 1100 
L 313 1100 
L 313 1709 
L 2253 4666 
z
" transform="scale(0.015625)"/>
       </defs>
       <use xlink:href="#DejaVuSans-34"/>
       <use xlink:href="#DejaVuSans-30" transform="translate(63.623047 0)"/>
       <use xlink:href="#DejaVuSans-30" transform="translate(127.246094 0)"/>
       <use xlink:href="#DejaVuSans-30" transform="translate(190.869141 0)"/>
       <use xlink:href="#DejaVuSans-30" transform="translate(254.492188 0)"/>
      </g>
     </g>
    </g>
    <g id="xtick_6">
     <g id="line2d_11">
      <path d="M 333.250881 295.24 
L 333.250881 61.92 
" clip-path="url(#p6c3c0d9091)" style="fill: none; stroke: #b0b0b0; stroke-opacity: 0.3; stroke-width: 0.8; stroke-linecap: square"/>
     </g>
     <g id="line2d_12">
      <g>
       <use xlink:href="#m53484a7da6" x="333.250881" y="295.24" style="stroke: #000000; stroke-width: 0.8"/>
      </g>
     </g>
     <g id="text_6">
      <!-- 50000 -->
      <g transform="translate(317.344631 309.838437) scale(0.1 -0.1)">
       <defs>
        <path id="DejaVuSans-35" d="M 691 4666 
L 3169 4666 
L 3169 4134 
L 1269 4134 
L 1269 2991 
Q 1406 3038 1543 3061 
Q 1681 3084 1819 3084 
Q 2600 3084 3056 2656 
Q 3513 2228 3513 1497 
Q 3513 744 3044 326 
Q 2575 -91 1722 -91 
Q 1428 -91 1123 -41 
Q 819 9 494 109 
L 494 744 
Q 775 591 1075 516 
Q 1375 441 1709 441 
Q 2250 441 2565 725 
Q 2881 1009 2881 1497 
Q 2881 1984 2565 2268 
Q 2250 2553 1709 2553 
Q 1456 2553 1204 2497 
Q 953 2441 691 2322 
L 691 4666 
z
" transform="scale(0.015625)"/>
       </defs>
       <use xlink:href="#DejaVuSans-35"/>
       <use xlink:href="#DejaVuSans-30" transform="translate(63.623047 0)"/>
       <use xlink:href="#DejaVuSans-30" transform="translate(127.246094 0)"/>
       <use xlink:href="#DejaVuSans-30" transform="translate(190.869141 0)"/>
       <use xlink:href="#DejaVuSans-30" transform="translate(254.492188 0)"/>
      </g>
     </g>
    </g>
    <g id="text_7">
     <!-- Proteome budget Φ (kDa·mmol/gDW/h) -->
     <g transform="translate(87.630781 324.276406) scale(0.11 -0.11)">
      <defs>
       <path id="DejaVuSans-50" d="M 1259 4147 
L 1259 2394 
L 2053 2394 
Q 2494 2394 2734 2622 
Q 2975 2850 2975 3272 
Q 2975 3691 2734 3919 
Q 2494 4147 2053 4147 
L 1259 4147 
z
M 628 4666 
L 2053 4666 
Q 2838 4666 3239 4311 
Q 3641 3956 3641 3272 
Q 3641 2581 3239 2228 
Q 2838 1875 2053 1875 
L 1259 1875 
L 1259 0 
L 628 0 
L 628 4666 
z
" transform="scale(0.015625)"/>
       <path id="DejaVuSans-72" d="M 2631 2963 
Q 2534 3019 2420 3045 
Q 2306 3072 2169 3072 
Q 1681 3072 1420 2755 
Q 1159 2438 1159 1844 
L 1159 0 
L 581 0 
L 581 3500 
L 1159 3500 
L 1159 2956 
Q 1341 3275 1631 3429 
Q 1922 3584 2338 3584 
Q 2397 3584 2469 3576 
Q 2541 3569 2628 3553 
L 2631 2963 
z
" transform="scale(0.015625)"/>
       <path id="DejaVuSans-6f" d="M 1959 3097 
Q 1497 3097 1228 2736 
Q 959 2375 959 1747 
Q 959 1119 1226 758 
Q 1494 397 1959 397 
Q 2419 397 2687 759 
Q 2956 1122 2956 1747 
Q 2956 2369 2687 2733 
Q 2419 3097 1959 3097 
z
M 1959 3584 
Q 2709 3584 3137 3096 
Q 3566 2609 3566 1747 
Q 3566 888 3137 398 
Q 2709 -91 1959 -91 
Q 1206 -91 779 398 
Q 353 888 353 1747 
Q 353 2609 779 3096 
Q 1206 3584 1959 3584 
z
" transform="scale(0.015625)"/>
       <path id="DejaVuSans-74" d="M 1172 4494 
L 1172 3500 
L 2356 3500 
L 2356 3053 
L 1172 3053 
L 1172 1153 
Q 1172 725 1289 603 
Q 1406 481 1766 481 
L 2356 481 
L 2356 0 
L 1766 0 
Q 1100 0 847 248 
Q 594 497 594 1153 
L 594 3053 
L 172 3053 
L 172 3500 
L 594 3500 
L 594 4494 
L 1172 4494 
z
" transform="scale(0.015625)"/>
       <path id="DejaVuSans-65" d="M 3597 1894 
L 3597 1613 
L 953 1613 
Q 991 1019 1311 708 
Q 1631 397 2203 397 
Q 2534 397 2845 478 
Q 3156 559 3463 722 
L 3463 178 
Q 3153 47 2828 -22 
Q 2503 -91 2169 -91 
Q 1331 -91 842 396 
Q 353 884 353 1716 
Q 353 2575 817 3079 
Q 1281 3584 2069 3584 
Q 2775 3584 3186 3129 
Q 3597 2675 3597 1894 
z
M 3022 2063 
Q 3016 2534 2758 2815 
Q 2500 3097 2075 3097 
Q 1594 3097 1305 2825 
Q 1016 2553 972 2059 
L 3022 2063 
z
" transform="scale(0.015625)"/>
       <path id="DejaVuSans-6d" d="M 3328 2828 
Q 3544 3216 3844 3400 
Q 4144 3584 4550 3584 
Q 5097 3584 5394 3201 
Q 5691 2819 5691 2113 
L 5691 0 
L 5113 0 
L 5113 2094 
Q 5113 2597 4934 2840 
Q 4756 3084 4391 3084 
Q 3944 3084 3684 2787 
Q 3425 2491 3425 1978 
L 3425 0 
L 2847 0 
L 2847 2094 
Q 2847 2600 2669 2842 
Q 2491 3084 2119 3084 
Q 1678 3084 1418 2786 
Q 1159 2488 1159 1978 
L 1159 0 
L 581 0 
L 581 3500 
L 1159 3500 
L 1159 2956 
Q 1356 3278 1631 3431 
Q 1906 3584 2284 3584 
Q 2666 3584 2933 3390 
Q 3200 3197 3328 2828 
z
" transform="scale(0.015625)"/>
       <path id="DejaVuSans-20" transform="scale(0.015625)"/>
       <path id="DejaVuSans-62" d="M 3116 1747 
Q 3116 2381 2855 2742 
Q 2594 3103 2138 3103 
Q 1681 3103 1420 2742 
Q 1159 2381 1159 1747 
Q 1159 1113 1420 752 
Q 1681 391 2138 391 
Q 2594 391 2855 752 
Q 3116 1113 3116 1747 
z
M 1159 2969 
Q 1341 3281 1617 3432 
Q 1894 3584 2278 3584 
Q 2916 3584 3314 3078 
Q 3713 2572 3713 1747 
Q 3713 922 3314 415 
Q 2916 -91 2278 -91 
Q 1894 -91 1617 61 
Q 1341 213 1159 525 
L 1159 0 
L 581 0 
L 581 4863 
L 1159 4863 
L 1159 2969 
z
" transform="scale(0.015625)"/>
       <path id="DejaVuSans-75" d="M 544 1381 
L 544 3500 
L 1119 3500 
L 1119 1403 
Q 1119 906 1312 657 
Q 1506 409 1894 409 
Q 2359 409 2629 706 
Q 2900 1003 2900 1516 
L 2900 3500 
L 3475 3500 
L 3475 0 
L 2900 0 
L 2900 538 
Q 2691 219 2414 64 
Q 2138 -91 1772 -91 
Q 1169 -91 856 284 
Q 544 659 544 1381 
z
M 1991 3584 
L 1991 3584 
z
" transform="scale(0.015625)"/>
       <path id="DejaVuSans-64" d="M 2906 2969 
L 2906 4863 
L 3481 4863 
L 3481 0 
L 2906 0 
L 2906 525 
Q 2725 213 2448 61 
Q 2172 -91 1784 -91 
Q 1150 -91 751 415 
Q 353 922 353 1747 
Q 353 2572 751 3078 
Q 1150 3584 1784 3584 
Q 2172 3584 2448 3432 
Q 2725 3281 2906 2969 
z
M 947 1747 
Q 947 1113 1208 752 
Q 1469 391 1925 391 
Q 2381 391 2643 752 
Q 2906 1113 2906 1747 
Q 2906 2381 2643 2742 
Q 2381 3103 1925 3103 
Q 1469 3103 1208 2742 
Q 947 2381 947 1747 
z
" transform="scale(0.015625)"/>
       <path id="DejaVuSans-67" d="M 2906 1791 
Q 2906 2416 2648 2759 
Q 2391 3103 1925 3103 
Q 1463 3103 1205 2759 
Q 947 2416 947 1791 
Q 947 1169 1205 825 
Q 1463 481 1925 481 
Q 2391 481 2648 825 
Q 2906 1169 2906 1791 
z
M 3481 434 
Q 3481 -459 3084 -895 
Q 2688 -1331 1869 -1331 
Q 1566 -1331 1297 -1286 
Q 1028 -1241 775 -1147 
L 775 -588 
Q 1028 -725 1275 -790 
Q 1522 -856 1778 -856 
Q 2344 -856 2625 -561 
Q 2906 -266 2906 331 
L 2906 616 
Q 2728 306 2450 153 
Q 2172 0 1784 0 
Q 1141 0 747 490 
Q 353 981 353 1791 
Q 353 2603 747 3093 
Q 1141 3584 1784 3584 
Q 2172 3584 2450 3431 
Q 2728 3278 2906 2969 
L 2906 3500 
L 3481 3500 
L 3481 434 
z
" transform="scale(0.015625)"/>
       <path id="DejaVuSans-3a6" d="M 2206 3644 
Q 1738 3578 1431 3306 
Q 1025 2947 1025 2328 
Q 1025 1713 1431 1353 
Q 1738 1081 2206 1016 
L 2206 3644 
z
M 2838 1016 
Q 3306 1081 3613 1353 
Q 4013 1713 4013 2328 
Q 4013 2947 3613 3306 
Q 3306 3578 2838 3644 
L 2838 1016 
z
M 2206 494 
Q 1444 563 950 981 
Q 359 1481 359 2328 
Q 359 3175 950 3678 
Q 1441 4100 2206 4169 
L 2206 4666 
L 2838 4666 
L 2838 4169 
Q 3600 4097 4091 3678 
Q 4678 3175 4678 2328 
Q 4678 1484 4091 981 
Q 3600 563 2838 491 
L 2838 0 
L 2206 0 
L 2206 494 
z
" transform="scale(0.015625)"/>
       <path id="DejaVuSans-28" d="M 1984 4856 
Q 1566 4138 1362 3434 
Q 1159 2731 1159 2009 
Q 1159 1288 1364 580 
Q 1569 -128 1984 -844 
L 1484 -844 
Q 1016 -109 783 600 
Q 550 1309 550 2009 
Q 550 2706 781 3412 
Q 1013 4119 1484 4856 
L 1984 4856 
z
" transform="scale(0.015625)"/>
       <path id="DejaVuSans-6b" d="M 581 4863 
L 1159 4863 
L 1159 1991 
L 2875 3500 
L 3609 3500 
L 1753 1863 
L 3688 0 
L 2938 0 
L 1159 1709 
L 1159 0 
L 581 0 
L 581 4863 
z
" transform="scale(0.015625)"/>
       <path id="DejaVuSans-44" d="M 1259 4147 
L 1259 519 
L 2022 519 
Q 2988 519 3436 956 
Q 3884 1394 3884 2338 
Q 3884 3275 3436 3711 
Q 2988 4147 2022 4147 
L 1259 4147 
z
M 628 4666 
L 1925 4666 
Q 3281 4666 3915 4102 
Q 4550 3538 4550 2338 
Q 4550 1131 3912 565 
Q 3275 0 1925 0 
L 628 0 
L 628 4666 
z
" transform="scale(0.015625)"/>
       <path id="DejaVuSans-61" d="M 2194 1759 
Q 1497 1759 1228 1600 
Q 959 1441 959 1056 
Q 959 750 1161 570 
Q 1363 391 1709 391 
Q 2188 391 2477 730 
Q 2766 1069 2766 1631 
L 2766 1759 
L 2194 1759 
z
M 3341 1997 
L 3341 0 
L 2766 0 
L 2766 531 
Q 2569 213 2275 61 
Q 1981 -91 1556 -91 
Q 1019 -91 701 211 
Q 384 513 384 1019 
Q 384 1609 779 1909 
Q 1175 2209 1959 2209 
L 2766 2209 
L 2766 2266 
Q 2766 2663 2505 2880 
Q 2244 3097 1772 3097 
Q 1472 3097 1187 3025 
Q 903 2953 641 2809 
L 641 3341 
Q 956 3463 1253 3523 
Q 1550 3584 1831 3584 
Q 2591 3584 2966 3190 
Q 3341 2797 3341 1997 
z
" transform="scale(0.015625)"/>
       <path id="DejaVuSans-b7" d="M 684 2619 
L 1344 2619 
L 1344 1825 
L 684 1825 
L 684 2619 
z
" transform="scale(0.015625)"/>
       <path id="DejaVuSans-6c" d="M 603 4863 
L 1178 4863 
L 1178 0 
L 603 0 
L 603 4863 
z
" transform="scale(0.015625)"/>
       <path id="DejaVuSans-2f" d="M 1625 4666 
L 2156 4666 
L 531 -594 
L 0 -594 
L 1625 4666 
z
" transform="scale(0.015625)"/>
       <path id="DejaVuSans-57" d="M 213 4666 
L 850 4666 
L 1831 722 
L 2809 4666 
L 3519 4666 
L 4500 722 
L 5478 4666 
L 6119 4666 
L 4947 0 
L 4153 0 
L 3169 4050 
L 2175 0 
L 1381 0 
L 213 4666 
z
" transform="scale(0.015625)"/>
       <path id="DejaVuSans-68" d="M 3513 2113 
L 3513 0 
L 2938 0 
L 2938 2094 
Q 2938 2591 2744 2837 
Q 2550 3084 2163 3084 
Q 1697 3084 1428 2787 
Q 1159 2491 1159 1978 
L 1159 0 
L 581 0 
L 581 4863 
L 1159 4863 
L 1159 2956 
Q 1366 3272 1645 3428 
Q 1925 3584 2291 3584 
Q 2894 3584 3203 3211 
Q 3513 2838 3513 2113 
z
" transform="scale(0.015625)"/>
       <path id="DejaVuSans-29" d="M 513 4856 
L 1013 4856 
Q 1481 4119 1714 3412 
Q 1947 2706 1947 2009 
Q 1947 1309 1714 600 
Q 1481 -109 1013 -844 
L 513 -844 
Q 928 -128 1133 580 
Q 1338 1288 1338 2009 
Q 1338 2731 1133 3434 
Q 928 4138 513 4856 
z
" transform="scale(0.015625)"/>
      </defs>
      <use xlink:href="#DejaVuSans-50"/>
      <use xlink:href="#DejaVuSans-72" transform="translate(58.552734 0)"/>
      <use xlink:href="#DejaVuSans-6f" transform="translate(97.416016 0)"/>
      <use xlink:href="#DejaVuSans-74" transform="translate(158.597656 0)"/>
      <use xlink:href="#DejaVuSans-65" transform="translate(197.806641 0)"/>
      <use xlink:href="#DejaVuSans-6f" transform="translate(259.330078 0)"/>
      <use xlink:href="#DejaVuSans-6d" transform="translate(320.511719 0)"/>
      <use xlink:href="#DejaVuSans-65" transform="translate(417.923828 0)"/>
      <use xlink:href="#DejaVuSans-20" transform="translate(479.447266 0)"/>
      <use xlink:href="#DejaVuSans-62" transform="translate(511.234375 0)"/>
      <use xlink:href="#DejaVuSans-75" transform="translate(574.710938 0)"/>
      <use xlink:href="#DejaVuSans-64" transform="translate(638.089844 0)"/>
      <use xlink:href="#DejaVuSans-67" transform="translate(701.566406 0)"/>
      <use xlink:href="#DejaVuSans-65" transform="translate(765.042969 0)"/>
      <use xlink:href="#DejaVuSans-74" transform="translate(826.566406 0)"/>
      <use xlink:href="#DejaVuSans-20" transform="translate(865.775391 0)"/>
      <use xlink:href="#DejaVuSans-3a6" transform="translate(897.5625 0)"/>
      <use xlink:href="#DejaVuSans-20" transform="translate(976.273438 0)"/>
      <use xlink:href="#DejaVuSans-28" transform="translate(1008.060547 0)"/>
      <use xlink:href="#DejaVuSans-6b" transform="translate(1047.074219 0)"/>
      <use xlink:href="#DejaVuSans-44" transform="translate(1104.984375 0)"/>
      <use xlink:href="#DejaVuSans-61" transform="translate(1181.986328 0)"/>
      <use xlink:href="#DejaVuSans-b7" transform="translate(1243.265625 0)"/>
      <use xlink:href="#DejaVuSans-6d" transform="translate(1275.052734 0)"/>
      <use xlink:href="#DejaVuSans-6d" transform="translate(1372.464844 0)"/>
      <use xlink:href="#DejaVuSans-6f" transform="translate(1469.876953 0)"/>
      <use xlink:href="#DejaVuSans-6c" transform="translate(1531.058594 0)"/>
      <use xlink:href="#DejaVuSans-2f" transform="translate(1558.841797 0)"/>
      <use xlink:href="#DejaVuSans-67" transform="translate(1592.533203 0)"/>
      <use xlink:href="#DejaVuSans-44" transform="translate(1656.009766 0)"/>
      <use xlink:href="#DejaVuSans-57" transform="translate(1733.011719 0)"/>
      <use xlink:href="#DejaVuSans-2f" transform="translate(1831.888672 0)"/>
      <use xlink:href="#DejaVuSans-68" transform="translate(1865.580078 0)"/>
      <use xlink:href="#DejaVuSans-29" transform="translate(1928.958984 0)"/>
     </g>
    </g>
   </g>
   <g id="matplotlib.axis_2">
    <g id="ytick_1">
     <g id="line2d_13">
      <path d="M 44.749063 273.987125 
L 346.989063 273.987125 
" clip-path="url(#p6c3c0d9091)" style="fill: none; stroke: #b0b0b0; stroke-opacity: 0.3; stroke-width: 0.8; stroke-linecap: square"/>
     </g>
     <g id="line2d_14">
      <defs>
       <path id="mc74d4c85a9" d="M 0 0 
L -3.5 0 
" style="stroke: #000000; stroke-width: 0.8"/>
      </defs>
      <g>
       <use xlink:href="#mc74d4c85a9" x="44.749063" y="273.987125" style="stroke: #000000; stroke-width: 0.8"/>
      </g>
     </g>
     <g id="text_8">
      <!-- 0.1 -->
      <g transform="translate(21.845938 277.786344) scale(0.1 -0.1)">
       <defs>
        <path id="DejaVuSans-2e" d="M 684 794 
L 1344 794 
L 1344 0 
L 684 0 
L 684 794 
z
" transform="scale(0.015625)"/>
       </defs>
       <use xlink:href="#DejaVuSans-30"/>
       <use xlink:href="#DejaVuSans-2e" transform="translate(63.623047 0)"/>
       <use xlink:href="#DejaVuSans-31" transform="translate(95.410156 0)"/>
      </g>
     </g>
    </g>
    <g id="ytick_2">
     <g id="line2d_15">
      <path d="M 44.749063 247.955846 
L 346.989063 247.955846 
" clip-path="url(#p6c3c0d9091)" style="fill: none; stroke: #b0b0b0; stroke-opacity: 0.3; stroke-width: 0.8; stroke-linecap: square"/>
     </g>
     <g id="line2d_16">
      <g>
       <use xlink:href="#mc74d4c85a9" x="44.749063" y="247.955846" style="stroke: #000000; stroke-width: 0.8"/>
      </g>
     </g>
     <g id="text_9">
      <!-- 0.2 -->
      <g transform="translate(21.845938 251.755064) scale(0.1 -0.1)">
       <use xlink:href="#DejaVuSans-30"/>
       <use xlink:href="#DejaVuSans-2e" transform="translate(63.623047 0)"/>
       <use xlink:href="#DejaVuSans-32" transform="translate(95.410156 0)"/>
      </g>
     </g>
    </g>
    <g id="ytick_3">
     <g id="line2d_17">
      <path d="M 44.749063 221.924566 
L 346.989063 221.924566 
" clip-path="url(#p6c3c0d9091)" style="fill: none; stroke: #b0b0b0; stroke-opacity: 0.3; stroke-width: 0.8; stroke-linecap: square"/>
     </g>
     <g id="line2d_18">
      <g>
       <use xlink:href="#mc74d4c85a9" x="44.749063" y="221.924566" style="stroke: #000000; stroke-width: 0.8"/>
      </g>
     </g>
     <g id="text_10">
      <!-- 0.3 -->
      <g transform="translate(21.845938 225.723785) scale(0.1 -0.1)">
       <use xlink:href="#DejaVuSans-30"/>
       <use xlink:href="#DejaVuSans-2e" transform="translate(63.623047 0)"/>
       <use xlink:href="#DejaVuSans-33" transform="translate(95.410156 0)"/>
      </g>
     </g>
    </g>
    <g id="ytick_4">
     <g id="line2d_19">
      <path d="M 44.749063 195.893287 
L 346.989063 195.893287 
" clip-path="url(#p6c3c0d9091)" style="fill: none; stroke: #b0b0b0; stroke-opacity: 0.3; stroke-width: 0.8; stroke-linecap: square"/>
     </g>
     <g id="line2d_20">
      <g>
       <use xlink:href="#mc74d4c85a9" x="44.749063" y="195.893287" style="stroke: #000000; stroke-width: 0.8"/>
      </g>
     </g>
     <g id="text_11">
      <!-- 0.4 -->
      <g transform="translate(21.845938 199.692505) scale(0.1 -0.1)">
       <use xlink:href="#DejaVuSans-30"/>
       <use xlink:href="#DejaVuSans-2e" transform="translate(63.623047 0)"/>
       <use xlink:href="#DejaVuSans-34" transform="translate(95.410156 0)"/>
      </g>
     </g>
    </g>
    <g id="ytick_5">
     <g id="line2d_21">
      <path d="M 44.749063 169.862007 
L 346.989063 169.862007 
" clip-path="url(#p6c3c0d9091)" style="fill: none; stroke: #b0b0b0; stroke-opacity: 0.3; stroke-width: 0.8; stroke-linecap: square"/>
     </g>
     <g id="line2d_22">
      <g>
       <use xlink:href="#mc74d4c85a9" x="44.749063" y="169.862007" style="stroke: #000000; stroke-width: 0.8"/>
      </g>
     </g>
     <g id="text_12">
      <!-- 0.5 -->
      <g transform="translate(21.845938 173.661226) scale(0.1 -0.1)">
       <use xlink:href="#DejaVuSans-30"/>
       <use xlink:href="#DejaVuSans-2e" transform="translate(63.623047 0)"/>
       <use xlink:href="#DejaVuSans-35" transform="translate(95.410156 0)"/>
      </g>
     </g>
    </g>
    <g id="ytick_6">
     <g id="line2d_23">
      <path d="M 44.749063 143.830728 
L 346.989063 143.830728 
" clip-path="url(#p6c3c0d9091)" style="fill: none; stroke: #b0b0b0; stroke-opacity: 0.3; stroke-width: 0.8; stroke-linecap: square"/>
     </g>
     <g id="line2d_24">
      <g>
       <use xlink:href="#mc74d4c85a9" x="44.749063" y="143.830728" style="stroke: #000000; stroke-width: 0.8"/>
      </g>
     </g>
     <g id="text_13">
      <!-- 0.6 -->
      <g transform="translate(21.845938 147.629946) scale(0.1 -0.1)">
       <defs>
        <path id="DejaVuSans-36" d="M 2113 2584 
Q 1688 2584 1439 2293 
Q 1191 2003 1191 1497 
Q 1191 994 1439 701 
Q 1688 409 2113 409 
Q 2538 409 2786 701 
Q 3034 994 3034 1497 
Q 3034 2003 2786 2293 
Q 2538 2584 2113 2584 
z
M 3366 4563 
L 3366 3988 
Q 3128 4100 2886 4159 
Q 2644 4219 2406 4219 
Q 1781 4219 1451 3797 
Q 1122 3375 1075 2522 
Q 1259 2794 1537 2939 
Q 1816 3084 2150 3084 
Q 2853 3084 3261 2657 
Q 3669 2231 3669 1497 
Q 3669 778 3244 343 
Q 2819 -91 2113 -91 
Q 1303 -91 875 529 
Q 447 1150 447 2328 
Q 447 3434 972 4092 
Q 1497 4750 2381 4750 
Q 2619 4750 2861 4703 
Q 3103 4656 3366 4563 
z
" transform="scale(0.015625)"/>
       </defs>
       <use xlink:href="#DejaVuSans-30"/>
       <use xlink:href="#DejaVuSans-2e" transform="translate(63.623047 0)"/>
       <use xlink:href="#DejaVuSans-36" transform="translate(95.410156 0)"/>
      </g>
     </g>
    </g>
    <g id="ytick_7">
     <g id="line2d_25">
      <path d="M 44.749063 117.799448 
L 346.989063 117.799448 
" clip-path="url(#p6c3c0d9091)" style="fill: none; stroke: #b0b0b0; stroke-opacity: 0.3; stroke-width: 0.8; stroke-linecap: square"/>
     </g>
     <g id="line2d_26">
      <g>
       <use xlink:href="#mc74d4c85a9" x="44.749063" y="117.799448" style="stroke: #000000; stroke-width: 0.8"/>
      </g>
     </g>
     <g id="text_14">
      <!-- 0.7 -->
      <g transform="translate(21.845938 121.598667) scale(0.1 -0.1)">
       <defs>
        <path id="DejaVuSans-37" d="M 525 4666 
L 3525 4666 
L 3525 4397 
L 1831 0 
L 1172 0 
L 2766 4134 
L 525 4134 
L 525 4666 
z
" transform="scale(0.015625)"/>
       </defs>
       <use xlink:href="#DejaVuSans-30"/>
       <use xlink:href="#DejaVuSans-2e" transform="translate(63.623047 0)"/>
       <use xlink:href="#DejaVuSans-37" transform="translate(95.410156 0)"/>
      </g>
     </g>
    </g>
    <g id="ytick_8">
     <g id="line2d_27">
      <path d="M 44.749063 91.768169 
L 346.989063 91.768169 
" clip-path="url(#p6c3c0d9091)" style="fill: none; stroke: #b0b0b0; stroke-opacity: 0.3; stroke-width: 0.8; stroke-linecap: square"/>
     </g>
     <g id="line2d_28">
      <g>
       <use xlink:href="#mc74d4c85a9" x="44.749063" y="91.768169" style="stroke: #000000; stroke-width: 0.8"/>
      </g>
     </g>
     <g id="text_15">
      <!-- 0.8 -->
      <g transform="translate(21.845938 95.567387) scale(0.1 -0.1)">
       <defs>
        <path id="DejaVuSans-38" d="M 2034 2216 
Q 1584 2216 1326 1975 
Q 1069 1734 1069 1313 
Q 1069 891 1326 650 
Q 1584 409 2034 409 
Q 2484 409 2743 651 
Q 3003 894 3003 1313 
Q 3003 1734 2745 1975 
Q 2488 2216 2034 2216 
z
M 1403 2484 
Q 997 2584 770 2862 
Q 544 3141 544 3541 
Q 544 4100 942 4425 
Q 1341 4750 2034 4750 
Q 2731 4750 3128 4425 
Q 3525 4100 3525 3541 
Q 3525 3141 3298 2862 
Q 3072 2584 2669 2484 
Q 3125 2378 3379 2068 
Q 3634 1759 3634 1313 
Q 3634 634 3220 271 
Q 2806 -91 2034 -91 
Q 1263 -91 848 271 
Q 434 634 434 1313 
Q 434 1759 690 2068 
Q 947 2378 1403 2484 
z
M 1172 3481 
Q 1172 3119 1398 2916 
Q 1625 2713 2034 2713 
Q 2441 2713 2670 2916 
Q 2900 3119 2900 3481 
Q 2900 3844 2670 4047 
Q 2441 4250 2034 4250 
Q 1625 4250 1398 4047 
Q 1172 3844 1172 3481 
z
" transform="scale(0.015625)"/>
       </defs>
       <use xlink:href="#DejaVuSans-30"/>
       <use xlink:href="#DejaVuSans-2e" transform="translate(63.623047 0)"/>
       <use xlink:href="#DejaVuSans-38" transform="translate(95.410156 0)"/>
      </g>
     </g>
    </g>
    <g id="ytick_9">
     <g id="line2d_29">
      <path d="M 44.749063 65.736889 
L 346.989063 65.736889 
" clip-path="url(#p6c3c0d9091)" style="fill: none; stroke: #b0b0b0; stroke-opacity: 0.3; stroke-width: 0.8; stroke-linecap: square"/>
     </g>
     <g id="line2d_30">
      <g>
       <use xlink:href="#mc74d4c85a9" x="44.749063" y="65.736889" style="stroke: #000000; stroke-width: 0.8"/>
      </g>
     </g>
     <g id="text_16">
      <!-- 0.9 -->
      <g transform="translate(21.845938 69.536108) scale(0.1 -0.1)">
       <defs>
        <path id="DejaVuSans-39" d="M 703 97 
L 703 672 
Q 941 559 1184 500 
Q 1428 441 1663 441 
Q 2288 441 2617 861 
Q 2947 1281 2994 2138 
Q 2813 1869 2534 1725 
Q 2256 1581 1919 1581 
Q 1219 1581 811 2004 
Q 403 2428 403 3163 
Q 403 3881 828 4315 
Q 1253 4750 1959 4750 
Q 2769 4750 3195 4129 
Q 3622 3509 3622 2328 
Q 3622 1225 3098 567 
Q 2575 -91 1691 -91 
Q 1453 -91 1209 -44 
Q 966 3 703 97 
z
M 1959 2075 
Q 2384 2075 2632 2365 
Q 2881 2656 2881 3163 
Q 2881 3666 2632 3958 
Q 2384 4250 1959 4250 
Q 1534 4250 1286 3958 
Q 1038 3666 1038 3163 
Q 1038 2656 1286 2365 
Q 1534 2075 1959 2075 
z
" transform="scale(0.015625)"/>
       </defs>
       <use xlink:href="#DejaVuSans-30"/>
       <use xlink:href="#DejaVuSans-2e" transform="translate(63.623047 0)"/>
       <use xlink:href="#DejaVuSans-39" transform="translate(95.410156 0)"/>
      </g>
     </g>
    </g>
    <g id="text_17">
     <!-- Growth rate (1/h) -->
     <g style="fill: #2c3e50" transform="translate(15.558281 226.281328) rotate(-90) scale(0.11 -0.11)">
      <defs>
       <path id="DejaVuSans-47" d="M 3809 666 
L 3809 1919 
L 2778 1919 
L 2778 2438 
L 4434 2438 
L 4434 434 
Q 4069 175 3628 42 
Q 3188 -91 2688 -91 
Q 1594 -91 976 548 
Q 359 1188 359 2328 
Q 359 3472 976 4111 
Q 1594 4750 2688 4750 
Q 3144 4750 3555 4637 
Q 3966 4525 4313 4306 
L 4313 3634 
Q 3963 3931 3569 4081 
Q 3175 4231 2741 4231 
Q 1884 4231 1454 3753 
Q 1025 3275 1025 2328 
Q 1025 1384 1454 906 
Q 1884 428 2741 428 
Q 3075 428 3337 486 
Q 3600 544 3809 666 
z
" transform="scale(0.015625)"/>
       <path id="DejaVuSans-77" d="M 269 3500 
L 844 3500 
L 1563 769 
L 2278 3500 
L 2956 3500 
L 3675 769 
L 4391 3500 
L 4966 3500 
L 4050 0 
L 3372 0 
L 2619 2869 
L 1863 0 
L 1184 0 
L 269 3500 
z
" transform="scale(0.015625)"/>
      </defs>
      <use xlink:href="#DejaVuSans-47"/>
      <use xlink:href="#DejaVuSans-72" transform="translate(77.490234 0)"/>
      <use xlink:href="#DejaVuSans-6f" transform="translate(116.353516 0)"/>
      <use xlink:href="#DejaVuSans-77" transform="translate(177.535156 0)"/>
      <use xlink:href="#DejaVuSans-74" transform="translate(259.322266 0)"/>
      <use xlink:href="#DejaVuSans-68" transform="translate(298.53125 0)"/>
      <use xlink:href="#DejaVuSans-20" transform="translate(361.910156 0)"/>
      <use xlink:href="#DejaVuSans-72" transform="translate(393.697266 0)"/>
      <use xlink:href="#DejaVuSans-61" transform="translate(434.810547 0)"/>
      <use xlink:href="#DejaVuSans-74" transform="translate(496.089844 0)"/>
      <use xlink:href="#DejaVuSans-65" transform="translate(535.298828 0)"/>
      <use xlink:href="#DejaVuSans-20" transform="translate(596.822266 0)"/>
      <use xlink:href="#DejaVuSans-28" transform="translate(628.609375 0)"/>
      <use xlink:href="#DejaVuSans-31" transform="translate(667.623047 0)"/>
      <use xlink:href="#DejaVuSans-2f" transform="translate(731.246094 0)"/>
      <use xlink:href="#DejaVuSans-68" transform="translate(764.9375 0)"/>
      <use xlink:href="#DejaVuSans-29" transform="translate(828.316406 0)"/>
     </g>
    </g>
   </g>
   <g id="line2d_31">
    <path d="M 58.487244 284.634545 
L 68.300231 253.928928 
L 78.113218 223.22331 
L 87.926205 192.517693 
L 97.739192 161.812075 
L 107.552179 131.106458 
L 117.365166 105.73598 
L 127.178153 85.900558 
L 136.99114 72.525455 
L 146.804127 72.525455 
L 156.617114 72.525455 
L 166.430101 72.525455 
L 176.243088 72.525455 
L 186.056075 72.525455 
L 195.869063 72.525455 
L 205.68205 72.525455 
L 215.495037 72.525455 
L 225.308024 72.525455 
L 235.121011 72.525455 
L 244.933998 72.525455 
L 254.746985 72.525455 
L 264.559972 72.525455 
L 274.372959 72.525455 
L 284.185946 72.525455 
L 293.998933 72.525455 
L 303.81192 72.525455 
L 313.624907 72.525455 
L 323.437894 72.525455 
L 333.250881 72.525455 
" clip-path="url(#p6c3c0d9091)" style="fill: none; stroke: #2c3e50; stroke-width: 2; stroke-linecap: square"/>
   </g>
   <g id="patch_3">
    <path d="M 44.749063 295.24 
L 44.749063 61.92 
" style="fill: none; stroke: #000000; stroke-width: 0.8; stroke-linejoin: miter; stroke-linecap: square"/>
   </g>
   <g id="patch_4">
    <path d="M 346.989063 295.24 
L 346.989063 61.92 
" style="fill: none; stroke: #000000; stroke-width: 0.8; stroke-linejoin: miter; stroke-linecap: square"/>
   </g>
   <g id="patch_5">
    <path d="M 44.749063 295.24 
L 346.989063 295.24 
" style="fill: none; stroke: #000000; stroke-width: 0.8; stroke-linejoin: miter; stroke-linecap: square"/>
   </g>
   <g id="patch_6">
    <path d="M 44.749063 61.92 
L 346.989063 61.92 
" style="fill: none; stroke: #000000; stroke-width: 0.8; stroke-linejoin: miter; stroke-linecap: square"/>
   </g>
   <g id="text_18">
    <!-- Φ-Sweep: Overflow Onset Under Proteome Constraint -->
    <g transform="translate(34.996875 55.92) scale(0.12 -0.12)">
     <defs>
      <path id="DejaVuSans-2d" d="M 313 2009 
L 1997 2009 
L 1997 1497 
L 313 1497 
L 313 2009 
z
" transform="scale(0.015625)"/>
      <path id="DejaVuSans-53" d="M 3425 4513 
L 3425 3897 
Q 3066 4069 2747 4153 
Q 2428 4238 2131 4238 
Q 1616 4238 1336 4038 
Q 1056 3838 1056 3469 
Q 1056 3159 1242 3001 
Q 1428 2844 1947 2747 
L 2328 2669 
Q 3034 2534 3370 2195 
Q 3706 1856 3706 1288 
Q 3706 609 3251 259 
Q 2797 -91 1919 -91 
Q 1588 -91 1214 -16 
Q 841 59 441 206 
L 441 856 
Q 825 641 1194 531 
Q 1563 422 1919 422 
Q 2459 422 2753 634 
Q 3047 847 3047 1241 
Q 3047 1584 2836 1778 
Q 2625 1972 2144 2069 
L 1759 2144 
Q 1053 2284 737 2584 
Q 422 2884 422 3419 
Q 422 4038 858 4394 
Q 1294 4750 2059 4750 
Q 2388 4750 2728 4690 
Q 3069 4631 3425 4513 
z
" transform="scale(0.015625)"/>
      <path id="DejaVuSans-70" d="M 1159 525 
L 1159 -1331 
L 581 -1331 
L 581 3500 
L 1159 3500 
L 1159 2969 
Q 1341 3281 1617 3432 
Q 1894 3584 2278 3584 
Q 2916 3584 3314 3078 
Q 3713 2572 3713 1747 
Q 3713 922 3314 415 
Q 2916 -91 2278 -91 
Q 1894 -91 1617 61 
Q 1341 213 1159 525 
z
M 3116 1747 
Q 3116 2381 2855 2742 
Q 2594 3103 2138 3103 
Q 1681 3103 1420 2742 
Q 1159 2381 1159 1747 
Q 1159 1113 1420 752 
Q 1681 391 2138 391 
Q 2594 391 2855 752 
Q 3116 1113 3116 1747 
z
" transform="scale(0.015625)"/>
      <path id="DejaVuSans-3a" d="M 750 794 
L 1409 794 
L 1409 0 
L 750 0 
L 750 794 
z
M 750 3309 
L 1409 3309 
L 1409 2516 
L 750 2516 
L 750 3309 
z
" transform="scale(0.015625)"/>
      <path id="DejaVuSans-4f" d="M 2522 4238 
Q 1834 4238 1429 3725 
Q 1025 3213 1025 2328 
Q 1025 1447 1429 934 
Q 1834 422 2522 422 
Q 3209 422 3611 934 
Q 4013 1447 4013 2328 
Q 4013 3213 3611 3725 
Q 3209 4238 2522 4238 
z
M 2522 4750 
Q 3503 4750 4090 4092 
Q 4678 3434 4678 2328 
Q 4678 1225 4090 567 
Q 3503 -91 2522 -91 
Q 1538 -91 948 565 
Q 359 1222 359 2328 
Q 359 3434 948 4092 
Q 1538 4750 2522 4750 
z
" transform="scale(0.015625)"/>
      <path id="DejaVuSans-76" d="M 191 3500 
L 800 3500 
L 1894 563 
L 2988 3500 
L 3597 3500 
L 2284 0 
L 1503 0 
L 191 3500 
z
" transform="scale(0.015625)"/>
      <path id="DejaVuSans-66" d="M 2375 4863 
L 2375 4384 
L 1825 4384 
Q 1516 4384 1395 4259 
Q 1275 4134 1275 3809 
L 1275 3500 
L 2222 3500 
L 2222 3053 
L 1275 3053 
L 1275 0 
L 697 0 
L 697 3053 
L 147 3053 
L 147 3500 
L 697 3500 
L 697 3744 
Q 697 4328 969 4595 
Q 1241 4863 1831 4863 
L 2375 4863 
z
" transform="scale(0.015625)"/>
      <path id="DejaVuSans-6e" d="M 3513 2113 
L 3513 0 
L 2938 0 
L 2938 2094 
Q 2938 2591 2744 2837 
Q 2550 3084 2163 3084 
Q 1697 3084 1428 2787 
Q 1159 2491 1159 1978 
L 1159 0 
L 581 0 
L 581 3500 
L 1159 3500 
L 1159 2956 
Q 1366 3272 1645 3428 
Q 1925 3584 2291 3584 
Q 2894 3584 3203 3211 
Q 3513 2838 3513 2113 
z
" transform="scale(0.015625)"/>
      <path id="DejaVuSans-73" d="M 2834 3397 
L 2834 2853 
Q 2591 2978 2328 3040 
Q 2066 3103 1784 3103 
Q 1356 3103 1142 2972 
Q 928 2841 928 2578 
Q 928 2378 1081 2264 
Q 1234 2150 1697 2047 
L 1894 2003 
Q 2506 1872 2764 1633 
Q 3022 1394 3022 966 
Q 3022 478 2636 193 
Q 2250 -91 1575 -91 
Q 1294 -91 989 -36 
Q 684 19 347 128 
L 347 722 
Q 666 556 975 473 
Q 1284 391 1588 391 
Q 1994 391 2212 530 
Q 2431 669 2431 922 
Q 2431 1156 2273 1281 
Q 2116 1406 1581 1522 
L 1381 1569 
Q 847 1681 609 1914 
Q 372 2147 372 2553 
Q 372 3047 722 3315 
Q 1072 3584 1716 3584 
Q 2034 3584 2315 3537 
Q 2597 3491 2834 3397 
z
" transform="scale(0.015625)"/>
      <path id="DejaVuSans-55" d="M 556 4666 
L 1191 4666 
L 1191 1831 
Q 1191 1081 1462 751 
Q 1734 422 2344 422 
Q 2950 422 3222 751 
Q 3494 1081 3494 1831 
L 3494 4666 
L 4128 4666 
L 4128 1753 
Q 4128 841 3676 375 
Q 3225 -91 2344 -91 
Q 1459 -91 1007 375 
Q 556 841 556 1753 
L 556 4666 
z
" transform="scale(0.015625)"/>
      <path id="DejaVuSans-43" d="M 4122 4306 
L 4122 3641 
Q 3803 3938 3442 4084 
Q 3081 4231 2675 4231 
Q 1875 4231 1450 3742 
Q 1025 3253 1025 2328 
Q 1025 1406 1450 917 
Q 1875 428 2675 428 
Q 3081 428 3442 575 
Q 3803 722 4122 1019 
L 4122 359 
Q 3791 134 3420 21 
Q 3050 -91 2638 -91 
Q 1578 -91 968 557 
Q 359 1206 359 2328 
Q 359 3453 968 4101 
Q 1578 4750 2638 4750 
Q 3056 4750 3426 4639 
Q 3797 4528 4122 4306 
z
" transform="scale(0.015625)"/>
      <path id="DejaVuSans-69" d="M 603 3500 
L 1178 3500 
L 1178 0 
L 603 0 
L 603 3500 
z
M 603 4863 
L 1178 4863 
L 1178 4134 
L 603 4134 
L 603 4863 
z
" transform="scale(0.015625)"/>
     </defs>
     <use xlink:href="#DejaVuSans-3a6"/>
     <use xlink:href="#DejaVuSans-2d" transform="translate(78.710938 0)"/>
     <use xlink:href="#DejaVuSans-53" transform="translate(114.794922 0)"/>
     <use xlink:href="#DejaVuSans-77" transform="translate(178.271484 0)"/>
     <use xlink:href="#DejaVuSans-65" transform="translate(260.058594 0)"/>
     <use xlink:href="#DejaVuSans-65" transform="translate(321.582031 0)"/>
     <use xlink:href="#DejaVuSans-70" transform="translate(383.105469 0)"/>
     <use xlink:href="#DejaVuSans-3a" transform="translate(446.582031 0)"/>
     <use xlink:href="#DejaVuSans-20" transform="translate(480.273438 0)"/>
     <use xlink:href="#DejaVuSans-4f" transform="translate(512.060547 0)"/>
     <use xlink:href="#DejaVuSans-76" transform="translate(590.771484 0)"/>
     <use xlink:href="#DejaVuSans-65" transform="translate(649.951172 0)"/>
     <use xlink:href="#DejaVuSans-72" transform="translate(711.474609 0)"/>
     <use xlink:href="#DejaVuSans-66" transform="translate(752.587891 0)"/>
     <use xlink:href="#DejaVuSans-6c" transform="translate(787.792969 0)"/>
     <use xlink:href="#DejaVuSans-6f" transform="translate(815.576172 0)"/>
     <use xlink:href="#DejaVuSans-77" transform="translate(876.757812 0)"/>
     <use xlink:href="#DejaVuSans-20" transform="translate(958.544922 0)"/>
     <use xlink:href="#DejaVuSans-4f" transform="translate(990.332031 0)"/>
     <use xlink:href="#DejaVuSans-6e" transform="translate(1069.042969 0)"/>
     <use xlink:href="#DejaVuSans-73" transform="translate(1132.421875 0)"/>
     <use xlink:href="#DejaVuSans-65" transform="translate(1184.521484 0)"/>
     <use xlink:href="#DejaVuSans-74" transform="translate(1246.044922 0)"/>
     <use xlink:href="#DejaVuSans-20" transform="translate(1285.253906 0)"/>
     <use xlink:href="#DejaVuSans-55" transform="translate(1317.041016 0)"/>
     <use xlink:href="#DejaVuSans-6e" transform="translate(1390.234375 0)"/>
     <use xlink:href="#DejaVuSans-64" transform="translate(1453.613281 0)"/>
     <use xlink:href="#DejaVuSans-65" transform="translate(1517.089844 0)"/>
     <use xlink:href="#DejaVuSans-72" transform="translate(1578.613281 0)"/>
     <use xlink:href="#DejaVuSans-20" transform="translate(1619.726562 0)"/>
     <use xlink:href="#DejaVuSans-50" transform="translate(1651.513672 0)"/>
     <use xlink:href="#DejaVuSans-72" transform="translate(1710.066406 0)"/>
     <use xlink:href="#DejaVuSans-6f" transform="translate(1748.929688 0)"/>
     <use xlink:href="#DejaVuSans-74" transform="translate(1810.111328 0)"/>
     <use xlink:href="#DejaVuSans-65" transform="translate(1849.320312 0)"/>
     <use xlink:href="#DejaVuSans-6f" transform="translate(1910.84375 0)"/>
     <use xlink:href="#DejaVuSans-6d" transform="translate(1972.025391 0)"/>
     <use xlink:href="#DejaVuSans-65" transform="translate(2069.4375 0)"/>
     <use xlink:href="#DejaVuSans-20" transform="translate(2130.960938 0)"/>
     <use xlink:href="#DejaVuSans-43" transform="translate(2162.748047 0)"/>
     <use xlink:href="#DejaVuSans-6f" transform="translate(2232.572266 0)"/>
     <use xlink:href="#DejaVuSans-6e" transform="translate(2293.753906 0)"/>
     <use xlink:href="#DejaVuSans-73" transform="translate(2357.132812 0)"/>
     <use xlink:href="#DejaVuSans-74" transform="translate(2409.232422 0)"/>
     <use xlink:href="#DejaVuSans-72" transform="translate(2448.441406 0)"/>
     <use xlink:href="#DejaVuSans-61" transform="translate(2489.554688 0)"/>
     <use xlink:href="#DejaVuSans-69" transform="translate(2550.833984 0)"/>
     <use xlink:href="#DejaVuSans-6e" transform="translate(2578.617188 0)"/>
     <use xlink:href="#DejaVuSans-74" transform="translate(2641.996094 0)"/>
    </g>
   </g>
   <g id="legend_1">
    <g id="patch_7">
     <path d="M 245.651563 191.5225 
L 341.389062 191.5225 
Q 342.989062 191.5225 342.989062 189.9225 
L 342.989062 167.2375 
Q 342.989062 165.6375 341.389062 165.6375 
L 245.651563 165.6375 
Q 244.051563 165.6375 244.051563 167.2375 
L 244.051563 189.9225 
Q 244.051563 191.5225 245.651563 191.5225 
z
" style="fill: #ffffff; opacity: 0.8; stroke: #cccccc; stroke-linejoin: miter"/>
    </g>
    <g id="line2d_32">
     <path d="M 247.251563 172.11625 
L 255.251563 172.11625 
L 263.251562 172.11625 
" style="fill: none; stroke: #2c3e50; stroke-width: 2; stroke-linecap: square"/>
    </g>
    <g id="text_19">
     <!-- Growth rate -->
     <g transform="translate(269.651563 174.91625) scale(0.08 -0.08)">
      <use xlink:href="#DejaVuSans-47"/>
      <use xlink:href="#DejaVuSans-72" transform="translate(77.490234 0)"/>
      <use xlink:href="#DejaVuSans-6f" transform="translate(116.353516 0)"/>
      <use xlink:href="#DejaVuSans-77" transform="translate(177.535156 0)"/>
      <use xlink:href="#DejaVuSans-74" transform="translate(259.322266 0)"/>
      <use xlink:href="#DejaVuSans-68" transform="translate(298.53125 0)"/>
      <use xlink:href="#DejaVuSans-20" transform="translate(361.910156 0)"/>
      <use xlink:href="#DejaVuSans-72" transform="translate(393.697266 0)"/>
      <use xlink:href="#DejaVuSans-61" transform="translate(434.810547 0)"/>
      <use xlink:href="#DejaVuSans-74" transform="translate(496.089844 0)"/>
      <use xlink:href="#DejaVuSans-65" transform="translate(535.298828 0)"/>
     </g>
    </g>
    <g id="line2d_33">
     <path d="M 247.251563 183.85875 
L 255.251563 183.85875 
L 263.251562 183.85875 
" style="fill: none; stroke-dasharray: 7.4,3.2; stroke-dashoffset: 0; stroke: #e6a817; stroke-width: 2"/>
    </g>
    <g id="text_20">
     <!-- Acetate secretion -->
     <g transform="translate(269.651563 186.65875) scale(0.08 -0.08)">
      <defs>
       <path id="DejaVuSans-41" d="M 2188 4044 
L 1331 1722 
L 3047 1722 
L 2188 4044 
z
M 1831 4666 
L 2547 4666 
L 4325 0 
L 3669 0 
L 3244 1197 
L 1141 1197 
L 716 0 
L 50 0 
L 1831 4666 
z
" transform="scale(0.015625)"/>
       <path id="DejaVuSans-63" d="M 3122 3366 
L 3122 2828 
Q 2878 2963 2633 3030 
Q 2388 3097 2138 3097 
Q 1578 3097 1268 2742 
Q 959 2388 959 1747 
Q 959 1106 1268 751 
Q 1578 397 2138 397 
Q 2388 397 2633 464 
Q 2878 531 3122 666 
L 3122 134 
Q 2881 22 2623 -34 
Q 2366 -91 2075 -91 
Q 1284 -91 818 406 
Q 353 903 353 1747 
Q 353 2603 823 3093 
Q 1294 3584 2113 3584 
Q 2378 3584 2631 3529 
Q 2884 3475 3122 3366 
z
" transform="scale(0.015625)"/>
      </defs>
      <use xlink:href="#DejaVuSans-41"/>
      <use xlink:href="#DejaVuSans-63" transform="translate(66.658203 0)"/>
      <use xlink:href="#DejaVuSans-65" transform="translate(121.638672 0)"/>
      <use xlink:href="#DejaVuSans-74" transform="translate(183.162109 0)"/>
      <use xlink:href="#DejaVuSans-61" transform="translate(222.371094 0)"/>
      <use xlink:href="#DejaVuSans-74" transform="translate(283.650391 0)"/>
      <use xlink:href="#DejaVuSans-65" transform="translate(322.859375 0)"/>
      <use xlink:href="#DejaVuSans-20" transform="translate(384.382812 0)"/>
      <use xlink:href="#DejaVuSans-73" transform="translate(416.169922 0)"/>
      <use xlink:href="#DejaVuSans-65" transform="translate(468.269531 0)"/>
      <use xlink:href="#DejaVuSans-63" transform="translate(529.792969 0)"/>
      <use xlink:href="#DejaVuSans-72" transform="translate(584.773438 0)"/>
      <use xlink:href="#DejaVuSans-65" transform="translate(623.636719 0)"/>
      <use xlink:href="#DejaVuSans-74" transform="translate(685.160156 0)"/>
      <use xlink:href="#DejaVuSans-69" transform="translate(724.369141 0)"/>
      <use xlink:href="#DejaVuSans-6f" transform="translate(752.152344 0)"/>
      <use xlink:href="#DejaVuSans-6e" transform="translate(813.333984 0)"/>
     </g>
    </g>
   </g>
  </g>
  <g id="axes_2">
   <g id="patch_8">
    <path d="M 424.249063 295.24 
L 726.489063 295.24 
L 726.489063 61.92 
L 424.249063 61.92 
z
" style="fill: #ffffff"/>
   </g>
   <g id="FillBetweenPolyCollection_1">
    <defs>
     <path id="m10e03dd32f" d="M 437.987244 -49.129517 
L 437.987244 -49.129517 
L 447.461852 -49.129517 
L 456.936461 -49.129517 
L 466.411069 -49.129517 
L 475.885677 -49.129517 
L 485.360285 -49.129517 
L 494.834893 -49.129517 
L 504.309501 -49.129517 
L 513.78411 -49.129517 
L 523.258718 -49.129517 
L 532.733326 -49.129517 
L 542.207934 -49.129517 
L 551.682542 -49.129517 
L 561.15715 -49.129517 
L 570.631758 -49.129517 
L 580.106367 -49.129517 
L 589.580975 -49.129517 
L 599.055583 -49.129517 
L 608.530191 -49.129517 
L 618.004799 -49.129517 
L 627.479407 -49.129517 
L 636.954015 -49.129517 
L 646.428624 -49.129517 
L 655.903232 -49.129517 
L 665.37784 -49.129517 
L 674.852448 -49.129517 
L 684.327056 -49.129517 
L 693.801664 -49.129517 
L 703.276273 -49.129517 
L 712.750881 -49.129517 
L 712.750881 -125.473012 
L 712.750881 -125.473012 
L 703.276273 -125.473012 
L 693.801664 -125.473012 
L 684.327056 -125.473012 
L 674.852448 -125.473012 
L 665.37784 -125.473012 
L 655.903232 -125.473012 
L 646.428624 -125.473012 
L 636.954015 -125.473012 
L 627.479407 -125.473012 
L 618.004799 -125.473012 
L 608.530191 -125.473012 
L 599.055583 -125.473012 
L 589.580975 -125.473012 
L 580.106367 -125.473012 
L 570.631758 -125.473012 
L 561.15715 -125.473012 
L 551.682542 -125.473012 
L 542.207934 -125.473012 
L 532.733326 -125.473012 
L 523.258718 -125.473012 
L 513.78411 -125.473012 
L 504.309501 -125.473012 
L 494.834893 -125.473012 
L 485.360285 -125.473012 
L 475.885677 -100.426911 
L 466.411069 -60.613153 
L 456.936461 -49.129517 
L 447.461852 -49.129517 
L 437.987244 -49.129517 
z
" style="stroke: #e6a817; stroke-opacity: 0.15"/>
    </defs>
    <g clip-path="url(#pf09665fb31)">
     <use xlink:href="#m10e03dd32f" x="0" y="333.764062" style="fill: #e6a817; fill-opacity: 0.15; stroke: #e6a817; stroke-opacity: 0.15"/>
    </g>
   </g>
   <g id="matplotlib.axis_3">
    <g id="xtick_7">
     <g id="line2d_34">
      <path d="M 459.67911 295.24 
L 459.67911 61.92 
" clip-path="url(#pf09665fb31)" style="fill: none; stroke: #b0b0b0; stroke-opacity: 0.3; stroke-width: 0.8; stroke-linecap: square"/>
     </g>
     <g id="line2d_35">
      <g>
       <use xlink:href="#m53484a7da6" x="459.67911" y="295.24" style="stroke: #000000; stroke-width: 0.8"/>
      </g>
     </g>
     <g id="text_21">
      <!-- 2.5 -->
      <g transform="translate(451.727548 309.838437) scale(0.1 -0.1)">
       <use xlink:href="#DejaVuSans-32"/>
       <use xlink:href="#DejaVuSans-2e" transform="translate(63.623047 0)"/>
       <use xlink:href="#DejaVuSans-35" transform="translate(95.410156 0)"/>
      </g>
     </g>
    </g>
    <g id="xtick_8">
     <g id="line2d_36">
      <path d="M 495.83222 295.24 
L 495.83222 61.92 
" clip-path="url(#pf09665fb31)" style="fill: none; stroke: #b0b0b0; stroke-opacity: 0.3; stroke-width: 0.8; stroke-linecap: square"/>
     </g>
     <g id="line2d_37">
      <g>
       <use xlink:href="#m53484a7da6" x="495.83222" y="295.24" style="stroke: #000000; stroke-width: 0.8"/>
      </g>
     </g>
     <g id="text_22">
      <!-- 5.0 -->
      <g transform="translate(487.880658 309.838437) scale(0.1 -0.1)">
       <use xlink:href="#DejaVuSans-35"/>
       <use xlink:href="#DejaVuSans-2e" transform="translate(63.623047 0)"/>
       <use xlink:href="#DejaVuSans-30" transform="translate(95.410156 0)"/>
      </g>
     </g>
    </g>
    <g id="xtick_9">
     <g id="line2d_38">
      <path d="M 531.98533 295.24 
L 531.98533 61.92 
" clip-path="url(#pf09665fb31)" style="fill: none; stroke: #b0b0b0; stroke-opacity: 0.3; stroke-width: 0.8; stroke-linecap: square"/>
     </g>
     <g id="line2d_39">
      <g>
       <use xlink:href="#m53484a7da6" x="531.98533" y="295.24" style="stroke: #000000; stroke-width: 0.8"/>
      </g>
     </g>
     <g id="text_23">
      <!-- 7.5 -->
      <g transform="translate(524.033768 309.838437) scale(0.1 -0.1)">
       <use xlink:href="#DejaVuSans-37"/>
       <use xlink:href="#DejaVuSans-2e" transform="translate(63.623047 0)"/>
       <use xlink:href="#DejaVuSans-35" transform="translate(95.410156 0)"/>
      </g>
     </g>
    </g>
    <g id="xtick_10">
     <g id="line2d_40">
      <path d="M 568.13844 295.24 
L 568.13844 61.92 
" clip-path="url(#pf09665fb31)" style="fill: none; stroke: #b0b0b0; stroke-opacity: 0.3; stroke-width: 0.8; stroke-linecap: square"/>
     </g>
     <g id="line2d_41">
      <g>
       <use xlink:href="#m53484a7da6" x="568.13844" y="295.24" style="stroke: #000000; stroke-width: 0.8"/>
      </g>
     </g>
     <g id="text_24">
      <!-- 10.0 -->
      <g transform="translate(557.005628 309.838437) scale(0.1 -0.1)">
       <use xlink:href="#DejaVuSans-31"/>
       <use xlink:href="#DejaVuSans-30" transform="translate(63.623047 0)"/>
       <use xlink:href="#DejaVuSans-2e" transform="translate(127.246094 0)"/>
       <use xlink:href="#DejaVuSans-30" transform="translate(159.033203 0)"/>
      </g>
     </g>
    </g>
    <g id="xtick_11">
     <g id="line2d_42">
      <path d="M 604.291551 295.24 
L 604.291551 61.92 
" clip-path="url(#pf09665fb31)" style="fill: none; stroke: #b0b0b0; stroke-opacity: 0.3; stroke-width: 0.8; stroke-linecap: square"/>
     </g>
     <g id="line2d_43">
      <g>
       <use xlink:href="#m53484a7da6" x="604.291551" y="295.24" style="stroke: #000000; stroke-width: 0.8"/>
      </g>
     </g>
     <g id="text_25">
      <!-- 12.5 -->
      <g transform="translate(593.158738 309.838437) scale(0.1 -0.1)">
       <use xlink:href="#DejaVuSans-31"/>
       <use xlink:href="#DejaVuSans-32" transform="translate(63.623047 0)"/>
       <use xlink:href="#DejaVuSans-2e" transform="translate(127.246094 0)"/>
       <use xlink:href="#DejaVuSans-35" transform="translate(159.033203 0)"/>
      </g>
     </g>
    </g>
    <g id="xtick_12">
     <g id="line2d_44">
      <path d="M 640.444661 295.24 
L 640.444661 61.92 
" clip-path="url(#pf09665fb31)" style="fill: none; stroke: #b0b0b0; stroke-opacity: 0.3; stroke-width: 0.8; stroke-linecap: square"/>
     </g>
     <g id="line2d_45">
      <g>
       <use xlink:href="#m53484a7da6" x="640.444661" y="295.24" style="stroke: #000000; stroke-width: 0.8"/>
      </g>
     </g>
     <g id="text_26">
      <!-- 15.0 -->
      <g transform="translate(629.311848 309.838437) scale(0.1 -0.1)">
       <use xlink:href="#DejaVuSans-31"/>
       <use xlink:href="#DejaVuSans-35" transform="translate(63.623047 0)"/>
       <use xlink:href="#DejaVuSans-2e" transform="translate(127.246094 0)"/>
       <use xlink:href="#DejaVuSans-30" transform="translate(159.033203 0)"/>
      </g>
     </g>
    </g>
    <g id="xtick_13">
     <g id="line2d_46">
      <path d="M 676.597771 295.24 
L 676.597771 61.92 
" clip-path="url(#pf09665fb31)" style="fill: none; stroke: #b0b0b0; stroke-opacity: 0.3; stroke-width: 0.8; stroke-linecap: square"/>
     </g>
     <g id="line2d_47">
      <g>
       <use xlink:href="#m53484a7da6" x="676.597771" y="295.24" style="stroke: #000000; stroke-width: 0.8"/>
      </g>
     </g>
     <g id="text_27">
      <!-- 17.5 -->
      <g transform="translate(665.464958 309.838437) scale(0.1 -0.1)">
       <use xlink:href="#DejaVuSans-31"/>
       <use xlink:href="#DejaVuSans-37" transform="translate(63.623047 0)"/>
       <use xlink:href="#DejaVuSans-2e" transform="translate(127.246094 0)"/>
       <use xlink:href="#DejaVuSans-35" transform="translate(159.033203 0)"/>
      </g>
     </g>
    </g>
    <g id="xtick_14">
     <g id="line2d_48">
      <path d="M 712.750881 295.24 
L 712.750881 61.92 
" clip-path="url(#pf09665fb31)" style="fill: none; stroke: #b0b0b0; stroke-opacity: 0.3; stroke-width: 0.8; stroke-linecap: square"/>
     </g>
     <g id="line2d_49">
      <g>
       <use xlink:href="#m53484a7da6" x="712.750881" y="295.24" style="stroke: #000000; stroke-width: 0.8"/>
      </g>
     </g>
     <g id="text_28">
      <!-- 20.0 -->
      <g transform="translate(701.618068 309.838437) scale(0.1 -0.1)">
       <use xlink:href="#DejaVuSans-32"/>
       <use xlink:href="#DejaVuSans-30" transform="translate(63.623047 0)"/>
       <use xlink:href="#DejaVuSans-2e" transform="translate(127.246094 0)"/>
       <use xlink:href="#DejaVuSans-30" transform="translate(159.033203 0)"/>
      </g>
     </g>
    </g>
    <g id="text_29">
     <!-- Glucose uptake (mmol/gDW/h) -->
     <g transform="translate(490.829766 324.276406) scale(0.11 -0.11)">
      <use xlink:href="#DejaVuSans-47"/>
      <use xlink:href="#DejaVuSans-6c" transform="translate(77.490234 0)"/>
      <use xlink:href="#DejaVuSans-75" transform="translate(105.273438 0)"/>
      <use xlink:href="#DejaVuSans-63" transform="translate(168.652344 0)"/>
      <use xlink:href="#DejaVuSans-6f" transform="translate(223.632812 0)"/>
      <use xlink:href="#DejaVuSans-73" transform="translate(284.814453 0)"/>
      <use xlink:href="#DejaVuSans-65" transform="translate(336.914062 0)"/>
      <use xlink:href="#DejaVuSans-20" transform="translate(398.4375 0)"/>
      <use xlink:href="#DejaVuSans-75" transform="translate(430.224609 0)"/>
      <use xlink:href="#DejaVuSans-70" transform="translate(493.603516 0)"/>
      <use xlink:href="#DejaVuSans-74" transform="translate(557.080078 0)"/>
      <use xlink:href="#DejaVuSans-61" transform="translate(596.289062 0)"/>
      <use xlink:href="#DejaVuSans-6b" transform="translate(657.568359 0)"/>
      <use xlink:href="#DejaVuSans-65" transform="translate(711.853516 0)"/>
      <use xlink:href="#DejaVuSans-20" transform="translate(773.376953 0)"/>
      <use xlink:href="#DejaVuSans-28" transform="translate(805.164062 0)"/>
      <use xlink:href="#DejaVuSans-6d" transform="translate(844.177734 0)"/>
      <use xlink:href="#DejaVuSans-6d" transform="translate(941.589844 0)"/>
      <use xlink:href="#DejaVuSans-6f" transform="translate(1039.001953 0)"/>
      <use xlink:href="#DejaVuSans-6c" transform="translate(1100.183594 0)"/>
      <use xlink:href="#DejaVuSans-2f" transform="translate(1127.966797 0)"/>
      <use xlink:href="#DejaVuSans-67" transform="translate(1161.658203 0)"/>
      <use xlink:href="#DejaVuSans-44" transform="translate(1225.134766 0)"/>
      <use xlink:href="#DejaVuSans-57" transform="translate(1302.136719 0)"/>
      <use xlink:href="#DejaVuSans-2f" transform="translate(1401.013672 0)"/>
      <use xlink:href="#DejaVuSans-68" transform="translate(1434.705078 0)"/>
      <use xlink:href="#DejaVuSans-29" transform="translate(1498.083984 0)"/>
     </g>
    </g>
   </g>
   <g id="matplotlib.axis_4">
    <g id="ytick_10">
     <g id="line2d_50">
      <path d="M 424.249063 284.634545 
L 726.489063 284.634545 
" clip-path="url(#pf09665fb31)" style="fill: none; stroke: #b0b0b0; stroke-opacity: 0.3; stroke-width: 0.8; stroke-linecap: square"/>
     </g>
     <g id="line2d_51">
      <g>
       <use xlink:href="#mc74d4c85a9" x="424.249063" y="284.634545" style="stroke: #000000; stroke-width: 0.8"/>
      </g>
     </g>
     <g id="text_30">
      <!-- 0.0 -->
      <g transform="translate(401.345938 288.433764) scale(0.1 -0.1)">
       <use xlink:href="#DejaVuSans-30"/>
       <use xlink:href="#DejaVuSans-2e" transform="translate(63.623047 0)"/>
       <use xlink:href="#DejaVuSans-30" transform="translate(95.410156 0)"/>
      </g>
     </g>
    </g>
    <g id="ytick_11">
     <g id="line2d_52">
      <path d="M 424.249063 242.212727 
L 726.489063 242.212727 
" clip-path="url(#pf09665fb31)" style="fill: none; stroke: #b0b0b0; stroke-opacity: 0.3; stroke-width: 0.8; stroke-linecap: square"/>
     </g>
     <g id="line2d_53">
      <g>
       <use xlink:href="#mc74d4c85a9" x="424.249063" y="242.212727" style="stroke: #000000; stroke-width: 0.8"/>
      </g>
     </g>
     <g id="text_31">
      <!-- 0.2 -->
      <g transform="translate(401.345938 246.011946) scale(0.1 -0.1)">
       <use xlink:href="#DejaVuSans-30"/>
       <use xlink:href="#DejaVuSans-2e" transform="translate(63.623047 0)"/>
       <use xlink:href="#DejaVuSans-32" transform="translate(95.410156 0)"/>
      </g>
     </g>
    </g>
    <g id="ytick_12">
     <g id="line2d_54">
      <path d="M 424.249063 199.790909 
L 726.489063 199.790909 
" clip-path="url(#pf09665fb31)" style="fill: none; stroke: #b0b0b0; stroke-opacity: 0.3; stroke-width: 0.8; stroke-linecap: square"/>
     </g>
     <g id="line2d_55">
      <g>
       <use xlink:href="#mc74d4c85a9" x="424.249063" y="199.790909" style="stroke: #000000; stroke-width: 0.8"/>
      </g>
     </g>
     <g id="text_32">
      <!-- 0.4 -->
      <g transform="translate(401.345938 203.590128) scale(0.1 -0.1)">
       <use xlink:href="#DejaVuSans-30"/>
       <use xlink:href="#DejaVuSans-2e" transform="translate(63.623047 0)"/>
       <use xlink:href="#DejaVuSans-34" transform="translate(95.410156 0)"/>
      </g>
     </g>
    </g>
    <g id="ytick_13">
     <g id="line2d_56">
      <path d="M 424.249063 157.369091 
L 726.489063 157.369091 
" clip-path="url(#pf09665fb31)" style="fill: none; stroke: #b0b0b0; stroke-opacity: 0.3; stroke-width: 0.8; stroke-linecap: square"/>
     </g>
     <g id="line2d_57">
      <g>
       <use xlink:href="#mc74d4c85a9" x="424.249063" y="157.369091" style="stroke: #000000; stroke-width: 0.8"/>
      </g>
     </g>
     <g id="text_33">
      <!-- 0.6 -->
      <g transform="translate(401.345938 161.16831) scale(0.1 -0.1)">
       <use xlink:href="#DejaVuSans-30"/>
       <use xlink:href="#DejaVuSans-2e" transform="translate(63.623047 0)"/>
       <use xlink:href="#DejaVuSans-36" transform="translate(95.410156 0)"/>
      </g>
     </g>
    </g>
    <g id="ytick_14">
     <g id="line2d_58">
      <path d="M 424.249063 114.947273 
L 726.489063 114.947273 
" clip-path="url(#pf09665fb31)" style="fill: none; stroke: #b0b0b0; stroke-opacity: 0.3; stroke-width: 0.8; stroke-linecap: square"/>
     </g>
     <g id="line2d_59">
      <g>
       <use xlink:href="#mc74d4c85a9" x="424.249063" y="114.947273" style="stroke: #000000; stroke-width: 0.8"/>
      </g>
     </g>
     <g id="text_34">
      <!-- 0.8 -->
      <g transform="translate(401.345938 118.746491) scale(0.1 -0.1)">
       <use xlink:href="#DejaVuSans-30"/>
       <use xlink:href="#DejaVuSans-2e" transform="translate(63.623047 0)"/>
       <use xlink:href="#DejaVuSans-38" transform="translate(95.410156 0)"/>
      </g>
     </g>
    </g>
    <g id="ytick_15">
     <g id="line2d_60">
      <path d="M 424.249063 72.525455 
L 726.489063 72.525455 
" clip-path="url(#pf09665fb31)" style="fill: none; stroke: #b0b0b0; stroke-opacity: 0.3; stroke-width: 0.8; stroke-linecap: square"/>
     </g>
     <g id="line2d_61">
      <g>
       <use xlink:href="#mc74d4c85a9" x="424.249063" y="72.525455" style="stroke: #000000; stroke-width: 0.8"/>
      </g>
     </g>
     <g id="text_35">
      <!-- 1.0 -->
      <g transform="translate(401.345938 76.324673) scale(0.1 -0.1)">
       <use xlink:href="#DejaVuSans-31"/>
       <use xlink:href="#DejaVuSans-2e" transform="translate(63.623047 0)"/>
       <use xlink:href="#DejaVuSans-30" transform="translate(95.410156 0)"/>
      </g>
     </g>
    </g>
    <g id="text_36">
     <!-- Fermentative carbon fraction -->
     <g style="fill: #e6a817" transform="translate(395.058281 258.688359) rotate(-90) scale(0.11 -0.11)">
      <defs>
       <path id="DejaVuSans-46" d="M 628 4666 
L 3309 4666 
L 3309 4134 
L 1259 4134 
L 1259 2759 
L 3109 2759 
L 3109 2228 
L 1259 2228 
L 1259 0 
L 628 0 
L 628 4666 
z
" transform="scale(0.015625)"/>
      </defs>
      <use xlink:href="#DejaVuSans-46"/>
      <use xlink:href="#DejaVuSans-65" transform="translate(52.019531 0)"/>
      <use xlink:href="#DejaVuSans-72" transform="translate(113.542969 0)"/>
      <use xlink:href="#DejaVuSans-6d" transform="translate(152.90625 0)"/>
      <use xlink:href="#DejaVuSans-65" transform="translate(250.318359 0)"/>
      <use xlink:href="#DejaVuSans-6e" transform="translate(311.841797 0)"/>
      <use xlink:href="#DejaVuSans-74" transform="translate(375.220703 0)"/>
      <use xlink:href="#DejaVuSans-61" transform="translate(414.429688 0)"/>
      <use xlink:href="#DejaVuSans-74" transform="translate(475.708984 0)"/>
      <use xlink:href="#DejaVuSans-69" transform="translate(514.917969 0)"/>
      <use xlink:href="#DejaVuSans-76" transform="translate(542.701172 0)"/>
      <use xlink:href="#DejaVuSans-65" transform="translate(601.880859 0)"/>
      <use xlink:href="#DejaVuSans-20" transform="translate(663.404297 0)"/>
      <use xlink:href="#DejaVuSans-63" transform="translate(695.191406 0)"/>
      <use xlink:href="#DejaVuSans-61" transform="translate(750.171875 0)"/>
      <use xlink:href="#DejaVuSans-72" transform="translate(811.451172 0)"/>
      <use xlink:href="#DejaVuSans-62" transform="translate(852.564453 0)"/>
      <use xlink:href="#DejaVuSans-6f" transform="translate(916.041016 0)"/>
      <use xlink:href="#DejaVuSans-6e" transform="translate(977.222656 0)"/>
      <use xlink:href="#DejaVuSans-20" transform="translate(1040.601562 0)"/>
      <use xlink:href="#DejaVuSans-66" transform="translate(1072.388672 0)"/>
      <use xlink:href="#DejaVuSans-72" transform="translate(1107.59375 0)"/>
      <use xlink:href="#DejaVuSans-61" transform="translate(1148.707031 0)"/>
      <use xlink:href="#DejaVuSans-63" transform="translate(1209.986328 0)"/>
      <use xlink:href="#DejaVuSans-74" transform="translate(1264.966797 0)"/>
      <use xlink:href="#DejaVuSans-69" transform="translate(1304.175781 0)"/>
      <use xlink:href="#DejaVuSans-6f" transform="translate(1331.958984 0)"/>
      <use xlink:href="#DejaVuSans-6e" transform="translate(1393.140625 0)"/>
     </g>
    </g>
   </g>
   <g id="line2d_62">
    <path d="M 437.987244 284.634545 
L 447.461852 284.634545 
L 456.936461 284.634545 
L 466.411069 273.150909 
L 475.885677 233.337152 
L 485.360285 208.291051 
L 494.834893 208.291051 
L 504.309501 208.291051 
L 513.78411 208.291051 
L 523.258718 208.291051 
L 532.733326 208.291051 
L 542.207934 208.291051 
L 551.682542 208.291051 
L 561.15715 208.291051 
L 570.631758 208.291051 
L 580.106367 208.291051 
L 589.580975 208.291051 
L 599.055583 208.291051 
L 608.530191 208.291051 
L 618.004799 208.291051 
L 627.479407 208.291051 
L 636.954015 208.291051 
L 646.428624 208.291051 
L 655.903232 208.291051 
L 665.37784 208.291051 
L 674.852448 208.291051 
L 684.327056 208.291051 
L 693.801664 208.291051 
L 703.276273 208.291051 
L 712.750881 208.291051 
" clip-path="url(#pf09665fb31)" style="fill: none; stroke: #e6a817; stroke-width: 2; stroke-linecap: square"/>
   </g>
   <g id="patch_9">
    <path d="M 424.249063 295.24 
L 424.249063 61.92 
" style="fill: none; stroke: #000000; stroke-width: 0.8; stroke-linejoin: miter; stroke-linecap: square"/>
   </g>
   <g id="patch_10">
    <path d="M 726.489063 295.24 
L 726.489063 61.92 
" style="fill: none; stroke: #000000; stroke-width: 0.8; stroke-linejoin: miter; stroke-linecap: square"/>
   </g>
   <g id="patch_11">
    <path d="M 424.249063 295.24 
L 726.489063 295.24 
" style="fill: none; stroke: #000000; stroke-width: 0.8; stroke-linejoin: miter; stroke-linecap: square"/>
   </g>
   <g id="patch_12">
    <path d="M 424.249063 61.92 
L 726.489063 61.92 
" style="fill: none; stroke: #000000; stroke-width: 0.8; stroke-linejoin: miter; stroke-linecap: square"/>
   </g>
   <g id="text_37">
    <!-- Glucose Sweep at Tight Φ = 5000 -->
    <g transform="translate(473.955 55.92) scale(0.12 -0.12)">
     <defs>
      <path id="DejaVuSans-54" d="M -19 4666 
L 3928 4666 
L 3928 4134 
L 2272 4134 
L 2272 0 
L 1638 0 
L 1638 4134 
L -19 4134 
L -19 4666 
z
" transform="scale(0.015625)"/>
      <path id="DejaVuSans-3d" d="M 678 2906 
L 4684 2906 
L 4684 2381 
L 678 2381 
L 678 2906 
z
M 678 1631 
L 4684 1631 
L 4684 1100 
L 678 1100 
L 678 1631 
z
" transform="scale(0.015625)"/>
     </defs>
     <use xlink:href="#DejaVuSans-47"/>
     <use xlink:href="#DejaVuSans-6c" transform="translate(77.490234 0)"/>
     <use xlink:href="#DejaVuSans-75" transform="translate(105.273438 0)"/>
     <use xlink:href="#DejaVuSans-63" transform="translate(168.652344 0)"/>
     <use xlink:href="#DejaVuSans-6f" transform="translate(223.632812 0)"/>
     <use xlink:href="#DejaVuSans-73" transform="translate(284.814453 0)"/>
     <use xlink:href="#DejaVuSans-65" transform="translate(336.914062 0)"/>
     <use xlink:href="#DejaVuSans-20" transform="translate(398.4375 0)"/>
     <use xlink:href="#DejaVuSans-53" transform="translate(430.224609 0)"/>
     <use xlink:href="#DejaVuSans-77" transform="translate(493.701172 0)"/>
     <use xlink:href="#DejaVuSans-65" transform="translate(575.488281 0)"/>
     <use xlink:href="#DejaVuSans-65" transform="translate(637.011719 0)"/>
     <use xlink:href="#DejaVuSans-70" transform="translate(698.535156 0)"/>
     <use xlink:href="#DejaVuSans-20" transform="translate(762.011719 0)"/>
     <use xlink:href="#DejaVuSans-61" transform="translate(793.798828 0)"/>
     <use xlink:href="#DejaVuSans-74" transform="translate(855.078125 0)"/>
     <use xlink:href="#DejaVuSans-20" transform="translate(894.287109 0)"/>
     <use xlink:href="#DejaVuSans-54" transform="translate(926.074219 0)"/>
     <use xlink:href="#DejaVuSans-69" transform="translate(984.033203 0)"/>
     <use xlink:href="#DejaVuSans-67" transform="translate(1011.816406 0)"/>
     <use xlink:href="#DejaVuSans-68" transform="translate(1075.292969 0)"/>
     <use xlink:href="#DejaVuSans-74" transform="translate(1138.671875 0)"/>
     <use xlink:href="#DejaVuSans-20" transform="translate(1177.880859 0)"/>
     <use xlink:href="#DejaVuSans-3a6" transform="translate(1209.667969 0)"/>
     <use xlink:href="#DejaVuSans-20" transform="translate(1288.378906 0)"/>
     <use xlink:href="#DejaVuSans-3d" transform="translate(1320.166016 0)"/>
     <use xlink:href="#DejaVuSans-20" transform="translate(1403.955078 0)"/>
     <use xlink:href="#DejaVuSans-35" transform="translate(1435.742188 0)"/>
     <use xlink:href="#DejaVuSans-30" transform="translate(1499.365234 0)"/>
     <use xlink:href="#DejaVuSans-30" transform="translate(1562.988281 0)"/>
     <use xlink:href="#DejaVuSans-30" transform="translate(1626.611328 0)"/>
    </g>
   </g>
   <g id="legend_2">
    <g id="patch_13">
     <path d="M 429.849063 91.805 
L 511.289063 91.805 
Q 512.889063 91.805 512.889063 90.205 
L 512.889063 67.52 
Q 512.889063 65.92 511.289063 65.92 
L 429.849063 65.92 
Q 428.249063 65.92 428.249063 67.52 
L 428.249063 90.205 
Q 428.249063 91.805 429.849063 91.805 
z
" style="fill: #ffffff; opacity: 0.8; stroke: #cccccc; stroke-linejoin: miter"/>
    </g>
    <g id="line2d_63">
     <path d="M 431.449063 72.39875 
L 439.449063 72.39875 
L 447.449063 72.39875 
" style="fill: none; stroke: #e6a817; stroke-width: 2; stroke-linecap: square"/>
    </g>
    <g id="text_38">
     <!-- Ferm. fraction -->
     <g transform="translate(453.849063 75.19875) scale(0.08 -0.08)">
      <use xlink:href="#DejaVuSans-46"/>
      <use xlink:href="#DejaVuSans-65" transform="translate(52.019531 0)"/>
      <use xlink:href="#DejaVuSans-72" transform="translate(113.542969 0)"/>
      <use xlink:href="#DejaVuSans-6d" transform="translate(152.90625 0)"/>
      <use xlink:href="#DejaVuSans-2e" transform="translate(250.318359 0)"/>
      <use xlink:href="#DejaVuSans-20" transform="translate(282.105469 0)"/>
      <use xlink:href="#DejaVuSans-66" transform="translate(313.892578 0)"/>
      <use xlink:href="#DejaVuSans-72" transform="translate(349.097656 0)"/>
      <use xlink:href="#DejaVuSans-61" transform="translate(390.210938 0)"/>
      <use xlink:href="#DejaVuSans-63" transform="translate(451.490234 0)"/>
      <use xlink:href="#DejaVuSans-74" transform="translate(506.470703 0)"/>
      <use xlink:href="#DejaVuSans-69" transform="translate(545.679688 0)"/>
      <use xlink:href="#DejaVuSans-6f" transform="translate(573.462891 0)"/>
      <use xlink:href="#DejaVuSans-6e" transform="translate(634.644531 0)"/>
     </g>
    </g>
    <g id="line2d_64">
     <path d="M 431.449063 84.14125 
L 439.449063 84.14125 
L 447.449063 84.14125 
" style="fill: none; stroke-dasharray: 7.4,3.2; stroke-dashoffset: 0; stroke: #2c3e50; stroke-width: 2"/>
    </g>
    <g id="text_39">
     <!-- Growth rate -->
     <g transform="translate(453.849063 86.94125) scale(0.08 -0.08)">
      <use xlink:href="#DejaVuSans-47"/>
      <use xlink:href="#DejaVuSans-72" transform="translate(77.490234 0)"/>
      <use xlink:href="#DejaVuSans-6f" transform="translate(116.353516 0)"/>
      <use xlink:href="#DejaVuSans-77" transform="translate(177.535156 0)"/>
      <use xlink:href="#DejaVuSans-74" transform="translate(259.322266 0)"/>
      <use xlink:href="#DejaVuSans-68" transform="translate(298.53125 0)"/>
      <use xlink:href="#DejaVuSans-20" transform="translate(361.910156 0)"/>
      <use xlink:href="#DejaVuSans-72" transform="translate(393.697266 0)"/>
      <use xlink:href="#DejaVuSans-61" transform="translate(434.810547 0)"/>
      <use xlink:href="#DejaVuSans-74" transform="translate(496.089844 0)"/>
      <use xlink:href="#DejaVuSans-65" transform="translate(535.298828 0)"/>
     </g>
    </g>
   </g>
  </g>
  <g id="axes_3">
   <g id="FillBetweenPolyCollection_2">
    <defs>
     <path id="m79cbd853fb" d="M 58.487244 -121.721168 
L 58.487244 -49.129517 
L 68.300231 -49.129517 
L 78.113218 -49.129517 
L 87.926205 -49.129517 
L 97.739192 -49.129517 
L 107.552179 -49.129517 
L 117.365166 -49.129517 
L 127.178153 -49.129517 
L 127.178153 -119.614091 
L 127.178153 -119.614091 
L 117.365166 -224.14347 
L 107.552179 -261.238608 
L 97.739192 -233.33512 
L 87.926205 -205.431632 
L 78.113218 -177.528144 
L 68.300231 -149.624656 
L 58.487244 -121.721168 
z
" style="stroke: #e6a817; stroke-opacity: 0.15"/>
    </defs>
    <g clip-path="url(#p6c3c0d9091)">
     <use xlink:href="#m79cbd853fb" x="0" y="333.764062" style="fill: #e6a817; fill-opacity: 0.15; stroke: #e6a817; stroke-opacity: 0.15"/>
    </g>
   </g>
   <g id="matplotlib.axis_5">
    <g id="ytick_16">
     <g id="line2d_65">
      <defs>
       <path id="mee8344150a" d="M 0 0 
L 3.5 0 
" style="stroke: #000000; stroke-width: 0.8"/>
      </defs>
      <g>
       <use xlink:href="#mee8344150a" x="346.989063" y="284.634545" style="stroke: #000000; stroke-width: 0.8"/>
      </g>
     </g>
     <g id="text_40">
      <!-- 0 -->
      <g transform="translate(353.989063 288.433764) scale(0.1 -0.1)">
       <use xlink:href="#DejaVuSans-30"/>
      </g>
     </g>
    </g>
    <g id="ytick_17">
     <g id="line2d_66">
      <g>
       <use xlink:href="#mee8344150a" x="346.989063" y="253.198001" style="stroke: #000000; stroke-width: 0.8"/>
      </g>
     </g>
     <g id="text_41">
      <!-- 1 -->
      <g transform="translate(353.989063 256.99722) scale(0.1 -0.1)">
       <use xlink:href="#DejaVuSans-31"/>
      </g>
     </g>
    </g>
    <g id="ytick_18">
     <g id="line2d_67">
      <g>
       <use xlink:href="#mee8344150a" x="346.989063" y="221.761457" style="stroke: #000000; stroke-width: 0.8"/>
      </g>
     </g>
     <g id="text_42">
      <!-- 2 -->
      <g transform="translate(353.989063 225.560676) scale(0.1 -0.1)">
       <use xlink:href="#DejaVuSans-32"/>
      </g>
     </g>
    </g>
    <g id="ytick_19">
     <g id="line2d_68">
      <g>
       <use xlink:href="#mee8344150a" x="346.989063" y="190.324913" style="stroke: #000000; stroke-width: 0.8"/>
      </g>
     </g>
     <g id="text_43">
      <!-- 3 -->
      <g transform="translate(353.989063 194.124131) scale(0.1 -0.1)">
       <use xlink:href="#DejaVuSans-33"/>
      </g>
     </g>
    </g>
    <g id="ytick_20">
     <g id="line2d_69">
      <g>
       <use xlink:href="#mee8344150a" x="346.989063" y="158.888368" style="stroke: #000000; stroke-width: 0.8"/>
      </g>
     </g>
     <g id="text_44">
      <!-- 4 -->
      <g transform="translate(353.989063 162.687587) scale(0.1 -0.1)">
       <use xlink:href="#DejaVuSans-34"/>
      </g>
     </g>
    </g>
    <g id="ytick_21">
     <g id="line2d_70">
      <g>
       <use xlink:href="#mee8344150a" x="346.989063" y="127.451824" style="stroke: #000000; stroke-width: 0.8"/>
      </g>
     </g>
     <g id="text_45">
      <!-- 5 -->
      <g transform="translate(353.989063 131.251043) scale(0.1 -0.1)">
       <use xlink:href="#DejaVuSans-35"/>
      </g>
     </g>
    </g>
    <g id="ytick_22">
     <g id="line2d_71">
      <g>
       <use xlink:href="#mee8344150a" x="346.989063" y="96.01528" style="stroke: #000000; stroke-width: 0.8"/>
      </g>
     </g>
     <g id="text_46">
      <!-- 6 -->
      <g transform="translate(353.989063 99.814499) scale(0.1 -0.1)">
       <use xlink:href="#DejaVuSans-36"/>
      </g>
     </g>
    </g>
    <g id="ytick_23">
     <g id="line2d_72">
      <g>
       <use xlink:href="#mee8344150a" x="346.989063" y="64.578736" style="stroke: #000000; stroke-width: 0.8"/>
      </g>
     </g>
     <g id="text_47">
      <!-- 7 -->
      <g transform="translate(353.989063 68.377954) scale(0.1 -0.1)">
       <use xlink:href="#DejaVuSans-37"/>
      </g>
     </g>
    </g>
    <g id="text_48">
     <!-- Acetate secretion (mmol/gDW/h) -->
     <g style="fill: #e6a817" transform="translate(372.709844 268.803203) rotate(-90) scale(0.11 -0.11)">
      <use xlink:href="#DejaVuSans-41"/>
      <use xlink:href="#DejaVuSans-63" transform="translate(66.658203 0)"/>
      <use xlink:href="#DejaVuSans-65" transform="translate(121.638672 0)"/>
      <use xlink:href="#DejaVuSans-74" transform="translate(183.162109 0)"/>
      <use xlink:href="#DejaVuSans-61" transform="translate(222.371094 0)"/>
      <use xlink:href="#DejaVuSans-74" transform="translate(283.650391 0)"/>
      <use xlink:href="#DejaVuSans-65" transform="translate(322.859375 0)"/>
      <use xlink:href="#DejaVuSans-20" transform="translate(384.382812 0)"/>
      <use xlink:href="#DejaVuSans-73" transform="translate(416.169922 0)"/>
      <use xlink:href="#DejaVuSans-65" transform="translate(468.269531 0)"/>
      <use xlink:href="#DejaVuSans-63" transform="translate(529.792969 0)"/>
      <use xlink:href="#DejaVuSans-72" transform="translate(584.773438 0)"/>
      <use xlink:href="#DejaVuSans-65" transform="translate(623.636719 0)"/>
      <use xlink:href="#DejaVuSans-74" transform="translate(685.160156 0)"/>
      <use xlink:href="#DejaVuSans-69" transform="translate(724.369141 0)"/>
      <use xlink:href="#DejaVuSans-6f" transform="translate(752.152344 0)"/>
      <use xlink:href="#DejaVuSans-6e" transform="translate(813.333984 0)"/>
      <use xlink:href="#DejaVuSans-20" transform="translate(876.712891 0)"/>
      <use xlink:href="#DejaVuSans-28" transform="translate(908.5 0)"/>
      <use xlink:href="#DejaVuSans-6d" transform="translate(947.513672 0)"/>
      <use xlink:href="#DejaVuSans-6d" transform="translate(1044.925781 0)"/>
      <use xlink:href="#DejaVuSans-6f" transform="translate(1142.337891 0)"/>
      <use xlink:href="#DejaVuSans-6c" transform="translate(1203.519531 0)"/>
      <use xlink:href="#DejaVuSans-2f" transform="translate(1231.302734 0)"/>
      <use xlink:href="#DejaVuSans-67" transform="translate(1264.994141 0)"/>
      <use xlink:href="#DejaVuSans-44" transform="translate(1328.470703 0)"/>
      <use xlink:href="#DejaVuSans-57" transform="translate(1405.472656 0)"/>
      <use xlink:href="#DejaVuSans-2f" transform="translate(1504.349609 0)"/>
      <use xlink:href="#DejaVuSans-68" transform="translate(1538.041016 0)"/>
      <use xlink:href="#DejaVuSans-29" transform="translate(1601.419922 0)"/>
     </g>
    </g>
   </g>
   <g id="line2d_73">
    <path d="M 58.487244 212.042895 
L 68.300231 184.139407 
L 78.113218 156.235919 
L 87.926205 128.332431 
L 97.739192 100.428943 
L 107.552179 72.525455 
L 117.365166 109.620592 
L 127.178153 214.149971 
L 136.99114 284.634545 
L 146.804127 284.634545 
L 156.617114 284.634545 
L 166.430101 284.634545 
L 176.243088 284.634545 
L 186.056075 284.634545 
L 195.869063 284.634545 
L 205.68205 284.634545 
L 215.495037 284.634545 
L 225.308024 284.634545 
L 235.121011 284.634545 
L 244.933998 284.634545 
L 254.746985 284.634545 
L 264.559972 284.634545 
L 274.372959 284.634545 
L 284.185946 284.634545 
L 293.998933 284.634545 
L 303.81192 284.634545 
L 313.624907 284.634545 
L 323.437894 284.634545 
L 333.250881 284.634545 
" clip-path="url(#p6c3c0d9091)" style="fill: none; stroke-dasharray: 7.4,3.2; stroke-dashoffset: 0; stroke: #e6a817; stroke-width: 2"/>
   </g>
   <g id="patch_14">
    <path d="M 44.749063 295.24 
L 44.749063 61.92 
" style="fill: none; stroke: #000000; stroke-width: 0.8; stroke-linejoin: miter; stroke-linecap: square"/>
   </g>
   <g id="patch_15">
    <path d="M 346.989063 295.24 
L 346.989063 61.92 
" style="fill: none; stroke: #000000; stroke-width: 0.8; stroke-linejoin: miter; stroke-linecap: square"/>
   </g>
   <g id="patch_16">
    <path d="M 44.749063 295.24 
L 346.989063 295.24 
" style="fill: none; stroke: #000000; stroke-width: 0.8; stroke-linejoin: miter; stroke-linecap: square"/>
   </g>
   <g id="patch_17">
    <path d="M 44.749063 61.92 
L 346.989063 61.92 
" style="fill: none; stroke: #000000; stroke-width: 0.8; stroke-linejoin: miter; stroke-linecap: square"/>
   </g>
  </g>
  <g id="axes_4">
   <g id="matplotlib.axis_6">
    <g id="ytick_24">
     <g id="line2d_74">
      <g>
       <use xlink:href="#mee8344150a" x="726.489063" y="282.953115" style="stroke: #000000; stroke-width: 0.8"/>
      </g>
     </g>
     <g id="text_49">
      <!-- 0.050 -->
      <g transform="translate(733.489063 286.752334) scale(0.1 -0.1)">
       <use xlink:href="#DejaVuSans-30"/>
       <use xlink:href="#DejaVuSans-2e" transform="translate(63.623047 0)"/>
       <use xlink:href="#DejaVuSans-30" transform="translate(95.410156 0)"/>
       <use xlink:href="#DejaVuSans-35" transform="translate(159.033203 0)"/>
       <use xlink:href="#DejaVuSans-30" transform="translate(222.65625 0)"/>
      </g>
     </g>
    </g>
    <g id="ytick_25">
     <g id="line2d_75">
      <g>
       <use xlink:href="#mee8344150a" x="726.489063" y="256.92523" style="stroke: #000000; stroke-width: 0.8"/>
      </g>
     </g>
     <g id="text_50">
      <!-- 0.075 -->
      <g transform="translate(733.489063 260.724449) scale(0.1 -0.1)">
       <use xlink:href="#DejaVuSans-30"/>
       <use xlink:href="#DejaVuSans-2e" transform="translate(63.623047 0)"/>
       <use xlink:href="#DejaVuSans-30" transform="translate(95.410156 0)"/>
       <use xlink:href="#DejaVuSans-37" transform="translate(159.033203 0)"/>
       <use xlink:href="#DejaVuSans-35" transform="translate(222.65625 0)"/>
      </g>
     </g>
    </g>
    <g id="ytick_26">
     <g id="line2d_76">
      <g>
       <use xlink:href="#mee8344150a" x="726.489063" y="230.897344" style="stroke: #000000; stroke-width: 0.8"/>
      </g>
     </g>
     <g id="text_51">
      <!-- 0.100 -->
      <g transform="translate(733.489063 234.696563) scale(0.1 -0.1)">
       <use xlink:href="#DejaVuSans-30"/>
       <use xlink:href="#DejaVuSans-2e" transform="translate(63.623047 0)"/>
       <use xlink:href="#DejaVuSans-31" transform="translate(95.410156 0)"/>
       <use xlink:href="#DejaVuSans-30" transform="translate(159.033203 0)"/>
       <use xlink:href="#DejaVuSans-30" transform="translate(222.65625 0)"/>
      </g>
     </g>
    </g>
    <g id="ytick_27">
     <g id="line2d_77">
      <g>
       <use xlink:href="#mee8344150a" x="726.489063" y="204.869459" style="stroke: #000000; stroke-width: 0.8"/>
      </g>
     </g>
     <g id="text_52">
      <!-- 0.125 -->
      <g transform="translate(733.489063 208.668678) scale(0.1 -0.1)">
       <use xlink:href="#DejaVuSans-30"/>
       <use xlink:href="#DejaVuSans-2e" transform="translate(63.623047 0)"/>
       <use xlink:href="#DejaVuSans-31" transform="translate(95.410156 0)"/>
       <use xlink:href="#DejaVuSans-32" transform="translate(159.033203 0)"/>
       <use xlink:href="#DejaVuSans-35" transform="translate(222.65625 0)"/>
      </g>
     </g>
    </g>
    <g id="ytick_28">
     <g id="line2d_78">
      <g>
       <use xlink:href="#mee8344150a" x="726.489063" y="178.841574" style="stroke: #000000; stroke-width: 0.8"/>
      </g>
     </g>
     <g id="text_53">
      <!-- 0.150 -->
      <g transform="translate(733.489063 182.640792) scale(0.1 -0.1)">
       <use xlink:href="#DejaVuSans-30"/>
       <use xlink:href="#DejaVuSans-2e" transform="translate(63.623047 0)"/>
       <use xlink:href="#DejaVuSans-31" transform="translate(95.410156 0)"/>
       <use xlink:href="#DejaVuSans-35" transform="translate(159.033203 0)"/>
       <use xlink:href="#DejaVuSans-30" transform="translate(222.65625 0)"/>
      </g>
     </g>
    </g>
    <g id="ytick_29">
     <g id="line2d_79">
      <g>
       <use xlink:href="#mee8344150a" x="726.489063" y="152.813688" style="stroke: #000000; stroke-width: 0.8"/>
      </g>
     </g>
     <g id="text_54">
      <!-- 0.175 -->
      <g transform="translate(733.489063 156.612907) scale(0.1 -0.1)">
       <use xlink:href="#DejaVuSans-30"/>
       <use xlink:href="#DejaVuSans-2e" transform="translate(63.623047 0)"/>
       <use xlink:href="#DejaVuSans-31" transform="translate(95.410156 0)"/>
       <use xlink:href="#DejaVuSans-37" transform="translate(159.033203 0)"/>
       <use xlink:href="#DejaVuSans-35" transform="translate(222.65625 0)"/>
      </g>
     </g>
    </g>
    <g id="ytick_30">
     <g id="line2d_80">
      <g>
       <use xlink:href="#mee8344150a" x="726.489063" y="126.785803" style="stroke: #000000; stroke-width: 0.8"/>
      </g>
     </g>
     <g id="text_55">
      <!-- 0.200 -->
      <g transform="translate(733.489063 130.585022) scale(0.1 -0.1)">
       <use xlink:href="#DejaVuSans-30"/>
       <use xlink:href="#DejaVuSans-2e" transform="translate(63.623047 0)"/>
       <use xlink:href="#DejaVuSans-32" transform="translate(95.410156 0)"/>
       <use xlink:href="#DejaVuSans-30" transform="translate(159.033203 0)"/>
       <use xlink:href="#DejaVuSans-30" transform="translate(222.65625 0)"/>
      </g>
     </g>
    </g>
    <g id="ytick_31">
     <g id="line2d_81">
      <g>
       <use xlink:href="#mee8344150a" x="726.489063" y="100.757918" style="stroke: #000000; stroke-width: 0.8"/>
      </g>
     </g>
     <g id="text_56">
      <!-- 0.225 -->
      <g transform="translate(733.489063 104.557136) scale(0.1 -0.1)">
       <use xlink:href="#DejaVuSans-30"/>
       <use xlink:href="#DejaVuSans-2e" transform="translate(63.623047 0)"/>
       <use xlink:href="#DejaVuSans-32" transform="translate(95.410156 0)"/>
       <use xlink:href="#DejaVuSans-32" transform="translate(159.033203 0)"/>
       <use xlink:href="#DejaVuSans-35" transform="translate(222.65625 0)"/>
      </g>
     </g>
    </g>
    <g id="ytick_32">
     <g id="line2d_82">
      <g>
       <use xlink:href="#mee8344150a" x="726.489063" y="74.730032" style="stroke: #000000; stroke-width: 0.8"/>
      </g>
     </g>
     <g id="text_57">
      <!-- 0.250 -->
      <g transform="translate(733.489063 78.529251) scale(0.1 -0.1)">
       <use xlink:href="#DejaVuSans-30"/>
       <use xlink:href="#DejaVuSans-2e" transform="translate(63.623047 0)"/>
       <use xlink:href="#DejaVuSans-32" transform="translate(95.410156 0)"/>
       <use xlink:href="#DejaVuSans-35" transform="translate(159.033203 0)"/>
       <use xlink:href="#DejaVuSans-30" transform="translate(222.65625 0)"/>
      </g>
     </g>
    </g>
    <g id="text_58">
     <!-- Growth rate (1/h) -->
     <g style="fill: #2c3e50" transform="translate(774.475469 226.281328) rotate(-90) scale(0.11 -0.11)">
      <use xlink:href="#DejaVuSans-47"/>
      <use xlink:href="#DejaVuSans-72" transform="translate(77.490234 0)"/>
      <use xlink:href="#DejaVuSans-6f" transform="translate(116.353516 0)"/>
      <use xlink:href="#DejaVuSans-77" transform="translate(177.535156 0)"/>
      <use xlink:href="#DejaVuSans-74" transform="translate(259.322266 0)"/>
      <use xlink:href="#DejaVuSans-68" transform="translate(298.53125 0)"/>
      <use xlink:href="#DejaVuSans-20" transform="translate(361.910156 0)"/>
      <use xlink:href="#DejaVuSans-72" transform="translate(393.697266 0)"/>
      <use xlink:href="#DejaVuSans-61" transform="translate(434.810547 0)"/>
      <use xlink:href="#DejaVuSans-74" transform="translate(496.089844 0)"/>
      <use xlink:href="#DejaVuSans-65" transform="translate(535.298828 0)"/>
      <use xlink:href="#DejaVuSans-20" transform="translate(596.822266 0)"/>
      <use xlink:href="#DejaVuSans-28" transform="translate(628.609375 0)"/>
      <use xlink:href="#DejaVuSans-31" transform="translate(667.623047 0)"/>
      <use xlink:href="#DejaVuSans-2f" transform="translate(731.246094 0)"/>
      <use xlink:href="#DejaVuSans-68" transform="translate(764.9375 0)"/>
      <use xlink:href="#DejaVuSans-29" transform="translate(828.316406 0)"/>
     </g>
    </g>
   </g>
   <g id="line2d_83">
    <path d="M 437.987244 284.634545 
L 447.461852 221.532508 
L 456.936461 159.007059 
L 466.411069 106.857237 
L 475.885677 87.97798 
L 485.360285 72.525455 
L 494.834893 72.525455 
L 504.309501 72.525455 
L 513.78411 72.525455 
L 523.258718 72.525455 
L 532.733326 72.525455 
L 542.207934 72.525455 
L 551.682542 72.525455 
L 561.15715 72.525455 
L 570.631758 72.525455 
L 580.106367 72.525455 
L 589.580975 72.525455 
L 599.055583 72.525455 
L 608.530191 72.525455 
L 618.004799 72.525455 
L 627.479407 72.525455 
L 636.954015 72.525455 
L 646.428624 72.525455 
L 655.903232 72.525455 
L 665.37784 72.525455 
L 674.852448 72.525455 
L 684.327056 72.525455 
L 693.801664 72.525455 
L 703.276273 72.525455 
L 712.750881 72.525455 
" clip-path="url(#pf09665fb31)" style="fill: none; stroke-dasharray: 7.4,3.2; stroke-dashoffset: 0; stroke: #2c3e50; stroke-width: 2"/>
   </g>
   <g id="patch_18">
    <path d="M 424.249063 295.24 
L 424.249063 61.92 
" style="fill: none; stroke: #000000; stroke-width: 0.8; stroke-linejoin: miter; stroke-linecap: square"/>
   </g>
   <g id="patch_19">
    <path d="M 726.489063 295.24 
L 726.489063 61.92 
" style="fill: none; stroke: #000000; stroke-width: 0.8; stroke-linejoin: miter; stroke-linecap: square"/>
   </g>
   <g id="patch_20">
    <path d="M 424.249063 295.24 
L 726.489063 295.24 
" style="fill: none; stroke: #000000; stroke-width: 0.8; stroke-linejoin: miter; stroke-linecap: square"/>
   </g>
   <g id="patch_21">
    <path d="M 424.249063 61.92 
L 726.489063 61.92 
" style="fill: none; stroke: #000000; stroke-width: 0.8; stroke-linejoin: miter; stroke-linecap: square"/>
   </g>
  </g>
  <g id="text_59">
   <!-- M6 Validation: ecCore Enzyme-Constrained FBA Confirms Overflow Transition -->
   <g transform="translate(160.584375 16.318125) scale(0.12 -0.12)">
    <defs>
     <path id="DejaVuSans-4d" d="M 628 4666 
L 1569 4666 
L 2759 1491 
L 3956 4666 
L 4897 4666 
L 4897 0 
L 4281 0 
L 4281 4097 
L 3078 897 
L 2444 897 
L 1241 4097 
L 1241 0 
L 628 0 
L 628 4666 
z
" transform="scale(0.015625)"/>
     <path id="DejaVuSans-56" d="M 1831 0 
L 50 4666 
L 709 4666 
L 2188 738 
L 3669 4666 
L 4325 4666 
L 2547 0 
L 1831 0 
z
" transform="scale(0.015625)"/>
     <path id="DejaVuSans-45" d="M 628 4666 
L 3578 4666 
L 3578 4134 
L 1259 4134 
L 1259 2753 
L 3481 2753 
L 3481 2222 
L 1259 2222 
L 1259 531 
L 3634 531 
L 3634 0 
L 628 0 
L 628 4666 
z
" transform="scale(0.015625)"/>
     <path id="DejaVuSans-7a" d="M 353 3500 
L 3084 3500 
L 3084 2975 
L 922 459 
L 3084 459 
L 3084 0 
L 275 0 
L 275 525 
L 2438 3041 
L 353 3041 
L 353 3500 
z
" transform="scale(0.015625)"/>
     <path id="DejaVuSans-79" d="M 2059 -325 
Q 1816 -950 1584 -1140 
Q 1353 -1331 966 -1331 
L 506 -1331 
L 506 -850 
L 844 -850 
Q 1081 -850 1212 -737 
Q 1344 -625 1503 -206 
L 1606 56 
L 191 3500 
L 800 3500 
L 1894 763 
L 2988 3500 
L 3597 3500 
L 2059 -325 
z
" transform="scale(0.015625)"/>
     <path id="DejaVuSans-42" d="M 1259 2228 
L 1259 519 
L 2272 519 
Q 2781 519 3026 730 
Q 3272 941 3272 1375 
Q 3272 1813 3026 2020 
Q 2781 2228 2272 2228 
L 1259 2228 
z
M 1259 4147 
L 1259 2741 
L 2194 2741 
Q 2656 2741 2882 2914 
Q 3109 3088 3109 3444 
Q 3109 3797 2882 3972 
Q 2656 4147 2194 4147 
L 1259 4147 
z
M 628 4666 
L 2241 4666 
Q 2963 4666 3353 4366 
Q 3744 4066 3744 3513 
Q 3744 3084 3544 2831 
Q 3344 2578 2956 2516 
Q 3422 2416 3680 2098 
Q 3938 1781 3938 1306 
Q 3938 681 3513 340 
Q 3088 0 2303 0 
L 628 0 
L 628 4666 
z
" transform="scale(0.015625)"/>
    </defs>
    <use xlink:href="#DejaVuSans-4d"/>
    <use xlink:href="#DejaVuSans-36" transform="translate(86.279297 0)"/>
    <use xlink:href="#DejaVuSans-20" transform="translate(149.902344 0)"/>
    <use xlink:href="#DejaVuSans-56" transform="translate(181.689453 0)"/>
    <use xlink:href="#DejaVuSans-61" transform="translate(242.347656 0)"/>
    <use xlink:href="#DejaVuSans-6c" transform="translate(303.626953 0)"/>
    <use xlink:href="#DejaVuSans-69" transform="translate(331.410156 0)"/>
    <use xlink:href="#DejaVuSans-64" transform="translate(359.193359 0)"/>
    <use xlink:href="#DejaVuSans-61" transform="translate(422.669922 0)"/>
    <use xlink:href="#DejaVuSans-74" transform="translate(483.949219 0)"/>
    <use xlink:href="#DejaVuSans-69" transform="translate(523.158203 0)"/>
    <use xlink:href="#DejaVuSans-6f" transform="translate(550.941406 0)"/>
    <use xlink:href="#DejaVuSans-6e" transform="translate(612.123047 0)"/>
    <use xlink:href="#DejaVuSans-3a" transform="translate(675.501953 0)"/>
    <use xlink:href="#DejaVuSans-20" transform="translate(709.193359 0)"/>
    <use xlink:href="#DejaVuSans-65" transform="translate(740.980469 0)"/>
    <use xlink:href="#DejaVuSans-63" transform="translate(802.503906 0)"/>
    <use xlink:href="#DejaVuSans-43" transform="translate(857.484375 0)"/>
    <use xlink:href="#DejaVuSans-6f" transform="translate(927.308594 0)"/>
    <use xlink:href="#DejaVuSans-72" transform="translate(988.490234 0)"/>
    <use xlink:href="#DejaVuSans-65" transform="translate(1027.353516 0)"/>
    <use xlink:href="#DejaVuSans-20" transform="translate(1088.876953 0)"/>
    <use xlink:href="#DejaVuSans-45" transform="translate(1120.664062 0)"/>
    <use xlink:href="#DejaVuSans-6e" transform="translate(1183.847656 0)"/>
    <use xlink:href="#DejaVuSans-7a" transform="translate(1247.226562 0)"/>
    <use xlink:href="#DejaVuSans-79" transform="translate(1299.716797 0)"/>
    <use xlink:href="#DejaVuSans-6d" transform="translate(1358.896484 0)"/>
    <use xlink:href="#DejaVuSans-65" transform="translate(1456.308594 0)"/>
    <use xlink:href="#DejaVuSans-2d" transform="translate(1517.832031 0)"/>
    <use xlink:href="#DejaVuSans-43" transform="translate(1553.916016 0)"/>
    <use xlink:href="#DejaVuSans-6f" transform="translate(1623.740234 0)"/>
    <use xlink:href="#DejaVuSans-6e" transform="translate(1684.921875 0)"/>
    <use xlink:href="#DejaVuSans-73" transform="translate(1748.300781 0)"/>
    <use xlink:href="#DejaVuSans-74" transform="translate(1800.400391 0)"/>
    <use xlink:href="#DejaVuSans-72" transform="translate(1839.609375 0)"/>
    <use xlink:href="#DejaVuSans-61" transform="translate(1880.722656 0)"/>
    <use xlink:href="#DejaVuSans-69" transform="translate(1942.001953 0)"/>
    <use xlink:href="#DejaVuSans-6e" transform="translate(1969.785156 0)"/>
    <use xlink:href="#DejaVuSans-65" transform="translate(2033.164062 0)"/>
    <use xlink:href="#DejaVuSans-64" transform="translate(2094.6875 0)"/>
    <use xlink:href="#DejaVuSans-20" transform="translate(2158.164062 0)"/>
    <use xlink:href="#DejaVuSans-46" transform="translate(2189.951172 0)"/>
    <use xlink:href="#DejaVuSans-42" transform="translate(2247.470703 0)"/>
    <use xlink:href="#DejaVuSans-41" transform="translate(2316.074219 0)"/>
    <use xlink:href="#DejaVuSans-20" transform="translate(2384.482422 0)"/>
    <use xlink:href="#DejaVuSans-43" transform="translate(2416.269531 0)"/>
    <use xlink:href="#DejaVuSans-6f" transform="translate(2486.09375 0)"/>
    <use xlink:href="#DejaVuSans-6e" transform="translate(2547.275391 0)"/>
    <use xlink:href="#DejaVuSans-66" transform="translate(2610.654297 0)"/>
    <use xlink:href="#DejaVuSans-69" transform="translate(2645.859375 0)"/>
    <use xlink:href="#DejaVuSans-72" transform="translate(2673.642578 0)"/>
    <use xlink:href="#DejaVuSans-6d" transform="translate(2713.005859 0)"/>
    <use xlink:href="#DejaVuSans-73" transform="translate(2810.417969 0)"/>
    <use xlink:href="#DejaVuSans-20" transform="translate(2862.517578 0)"/>
    <use xlink:href="#DejaVuSans-4f" transform="translate(2894.304688 0)"/>
    <use xlink:href="#DejaVuSans-76" transform="translate(2973.015625 0)"/>
    <use xlink:href="#DejaVuSans-65" transform="translate(3032.195312 0)"/>
    <use xlink:href="#DejaVuSans-72" transform="translate(3093.71875 0)"/>
    <use xlink:href="#DejaVuSans-66" transform="translate(3134.832031 0)"/>
    <use xlink:href="#DejaVuSans-6c" transform="translate(3170.037109 0)"/>
    <use xlink:href="#DejaVuSans-6f" transform="translate(3197.820312 0)"/>
    <use xlink:href="#DejaVuSans-77" transform="translate(3259.001953 0)"/>
    <use xlink:href="#DejaVuSans-20" transform="translate(3340.789062 0)"/>
    <use xlink:href="#DejaVuSans-54" transform="translate(3372.576172 0)"/>
    <use xlink:href="#DejaVuSans-72" transform="translate(3418.910156 0)"/>
    <use xlink:href="#DejaVuSans-61" transform="translate(3460.023438 0)"/>
    <use xlink:href="#DejaVuSans-6e" transform="translate(3521.302734 0)"/>
    <use xlink:href="#DejaVuSans-73" transform="translate(3584.681641 0)"/>
    <use xlink:href="#DejaVuSans-69" transform="translate(3636.78125 0)"/>
    <use xlink:href="#DejaVuSans-74" transform="translate(3664.564453 0)"/>
    <use xlink:href="#DejaVuSans-69" transform="translate(3703.773438 0)"/>
    <use xlink:href="#DejaVuSans-6f" transform="translate(3731.556641 0)"/>
    <use xlink:href="#DejaVuSans-6e" transform="translate(3792.738281 0)"/>
   </g>
  </g>
 </g>
 <defs>
  <clipPath id="p6c3c0d9091">
   <rect x="44.749063" y="61.92" width="302.24" height="233.32"/>
  </clipPath>
  <clipPath id="pf09665fb31">
   <rect x="424.249063" y="61.92" width="302.24" height="233.32"/>
  </clipPath>
 </defs>
</svg>
